%TF.GenerationSoftware,KiCad,Pcbnew,9.0.0*%
%TF.CreationDate,2025-03-25T01:25:05+01:00*%
%TF.ProjectId,FCCU-v2-schematic-pcb,46434355-2d76-4322-9d73-6368656d6174,rev?*%
%TF.SameCoordinates,Original*%
%TF.FileFunction,Legend,Bot*%
%TF.FilePolarity,Positive*%
%FSLAX46Y46*%
G04 Gerber Fmt 4.6, Leading zero omitted, Abs format (unit mm)*
G04 Created by KiCad (PCBNEW 9.0.0) date 2025-03-25 01:25:05*
%MOMM*%
%LPD*%
G01*
G04 APERTURE LIST*
%ADD10C,0.400000*%
%ADD11C,0.000000*%
%ADD12C,0.150000*%
%ADD13C,0.254000*%
%ADD14C,0.120000*%
%ADD15C,0.200000*%
G04 APERTURE END LIST*
D10*
X161752956Y-71593985D02*
X161752956Y-72260652D01*
X160705337Y-72260652D02*
X162705337Y-72260652D01*
X162705337Y-72260652D02*
X162705337Y-71308271D01*
X162038671Y-69689223D02*
X160705337Y-69689223D01*
X162038671Y-70546366D02*
X160991052Y-70546366D01*
X160991052Y-70546366D02*
X160800576Y-70451128D01*
X160800576Y-70451128D02*
X160705337Y-70260652D01*
X160705337Y-70260652D02*
X160705337Y-69974937D01*
X160705337Y-69974937D02*
X160800576Y-69784461D01*
X160800576Y-69784461D02*
X160895814Y-69689223D01*
X160800576Y-67974937D02*
X160705337Y-68165413D01*
X160705337Y-68165413D02*
X160705337Y-68546366D01*
X160705337Y-68546366D02*
X160800576Y-68736842D01*
X160800576Y-68736842D02*
X160991052Y-68832080D01*
X160991052Y-68832080D02*
X161752956Y-68832080D01*
X161752956Y-68832080D02*
X161943433Y-68736842D01*
X161943433Y-68736842D02*
X162038671Y-68546366D01*
X162038671Y-68546366D02*
X162038671Y-68165413D01*
X162038671Y-68165413D02*
X161943433Y-67974937D01*
X161943433Y-67974937D02*
X161752956Y-67879699D01*
X161752956Y-67879699D02*
X161562480Y-67879699D01*
X161562480Y-67879699D02*
X161372004Y-68832080D01*
X160705337Y-66736842D02*
X160800576Y-66927318D01*
X160800576Y-66927318D02*
X160991052Y-67022556D01*
X160991052Y-67022556D02*
X162705337Y-67022556D01*
X160895814Y-63308270D02*
X160800576Y-63403508D01*
X160800576Y-63403508D02*
X160705337Y-63689222D01*
X160705337Y-63689222D02*
X160705337Y-63879698D01*
X160705337Y-63879698D02*
X160800576Y-64165413D01*
X160800576Y-64165413D02*
X160991052Y-64355889D01*
X160991052Y-64355889D02*
X161181528Y-64451127D01*
X161181528Y-64451127D02*
X161562480Y-64546365D01*
X161562480Y-64546365D02*
X161848195Y-64546365D01*
X161848195Y-64546365D02*
X162229147Y-64451127D01*
X162229147Y-64451127D02*
X162419623Y-64355889D01*
X162419623Y-64355889D02*
X162610099Y-64165413D01*
X162610099Y-64165413D02*
X162705337Y-63879698D01*
X162705337Y-63879698D02*
X162705337Y-63689222D01*
X162705337Y-63689222D02*
X162610099Y-63403508D01*
X162610099Y-63403508D02*
X162514861Y-63308270D01*
X160800576Y-61689222D02*
X160705337Y-61879698D01*
X160705337Y-61879698D02*
X160705337Y-62260651D01*
X160705337Y-62260651D02*
X160800576Y-62451127D01*
X160800576Y-62451127D02*
X160991052Y-62546365D01*
X160991052Y-62546365D02*
X161752956Y-62546365D01*
X161752956Y-62546365D02*
X161943433Y-62451127D01*
X161943433Y-62451127D02*
X162038671Y-62260651D01*
X162038671Y-62260651D02*
X162038671Y-61879698D01*
X162038671Y-61879698D02*
X161943433Y-61689222D01*
X161943433Y-61689222D02*
X161752956Y-61593984D01*
X161752956Y-61593984D02*
X161562480Y-61593984D01*
X161562480Y-61593984D02*
X161372004Y-62546365D01*
X160705337Y-60451127D02*
X160800576Y-60641603D01*
X160800576Y-60641603D02*
X160991052Y-60736841D01*
X160991052Y-60736841D02*
X162705337Y-60736841D01*
X160705337Y-59403508D02*
X160800576Y-59593984D01*
X160800576Y-59593984D02*
X160991052Y-59689222D01*
X160991052Y-59689222D02*
X162705337Y-59689222D01*
X160895814Y-55974936D02*
X160800576Y-56070174D01*
X160800576Y-56070174D02*
X160705337Y-56355888D01*
X160705337Y-56355888D02*
X160705337Y-56546364D01*
X160705337Y-56546364D02*
X160800576Y-56832079D01*
X160800576Y-56832079D02*
X160991052Y-57022555D01*
X160991052Y-57022555D02*
X161181528Y-57117793D01*
X161181528Y-57117793D02*
X161562480Y-57213031D01*
X161562480Y-57213031D02*
X161848195Y-57213031D01*
X161848195Y-57213031D02*
X162229147Y-57117793D01*
X162229147Y-57117793D02*
X162419623Y-57022555D01*
X162419623Y-57022555D02*
X162610099Y-56832079D01*
X162610099Y-56832079D02*
X162705337Y-56546364D01*
X162705337Y-56546364D02*
X162705337Y-56355888D01*
X162705337Y-56355888D02*
X162610099Y-56070174D01*
X162610099Y-56070174D02*
X162514861Y-55974936D01*
X160705337Y-54832079D02*
X160800576Y-55022555D01*
X160800576Y-55022555D02*
X160895814Y-55117793D01*
X160895814Y-55117793D02*
X161086290Y-55213031D01*
X161086290Y-55213031D02*
X161657718Y-55213031D01*
X161657718Y-55213031D02*
X161848195Y-55117793D01*
X161848195Y-55117793D02*
X161943433Y-55022555D01*
X161943433Y-55022555D02*
X162038671Y-54832079D01*
X162038671Y-54832079D02*
X162038671Y-54546364D01*
X162038671Y-54546364D02*
X161943433Y-54355888D01*
X161943433Y-54355888D02*
X161848195Y-54260650D01*
X161848195Y-54260650D02*
X161657718Y-54165412D01*
X161657718Y-54165412D02*
X161086290Y-54165412D01*
X161086290Y-54165412D02*
X160895814Y-54260650D01*
X160895814Y-54260650D02*
X160800576Y-54355888D01*
X160800576Y-54355888D02*
X160705337Y-54546364D01*
X160705337Y-54546364D02*
X160705337Y-54832079D01*
X162038671Y-53308269D02*
X160705337Y-53308269D01*
X161848195Y-53308269D02*
X161943433Y-53213031D01*
X161943433Y-53213031D02*
X162038671Y-53022555D01*
X162038671Y-53022555D02*
X162038671Y-52736840D01*
X162038671Y-52736840D02*
X161943433Y-52546364D01*
X161943433Y-52546364D02*
X161752956Y-52451126D01*
X161752956Y-52451126D02*
X160705337Y-52451126D01*
X162038671Y-51784459D02*
X162038671Y-51022555D01*
X162705337Y-51498745D02*
X160991052Y-51498745D01*
X160991052Y-51498745D02*
X160800576Y-51403507D01*
X160800576Y-51403507D02*
X160705337Y-51213031D01*
X160705337Y-51213031D02*
X160705337Y-51022555D01*
X160705337Y-50355888D02*
X162038671Y-50355888D01*
X161657718Y-50355888D02*
X161848195Y-50260650D01*
X161848195Y-50260650D02*
X161943433Y-50165412D01*
X161943433Y-50165412D02*
X162038671Y-49974936D01*
X162038671Y-49974936D02*
X162038671Y-49784459D01*
X160705337Y-48832079D02*
X160800576Y-49022555D01*
X160800576Y-49022555D02*
X160895814Y-49117793D01*
X160895814Y-49117793D02*
X161086290Y-49213031D01*
X161086290Y-49213031D02*
X161657718Y-49213031D01*
X161657718Y-49213031D02*
X161848195Y-49117793D01*
X161848195Y-49117793D02*
X161943433Y-49022555D01*
X161943433Y-49022555D02*
X162038671Y-48832079D01*
X162038671Y-48832079D02*
X162038671Y-48546364D01*
X162038671Y-48546364D02*
X161943433Y-48355888D01*
X161943433Y-48355888D02*
X161848195Y-48260650D01*
X161848195Y-48260650D02*
X161657718Y-48165412D01*
X161657718Y-48165412D02*
X161086290Y-48165412D01*
X161086290Y-48165412D02*
X160895814Y-48260650D01*
X160895814Y-48260650D02*
X160800576Y-48355888D01*
X160800576Y-48355888D02*
X160705337Y-48546364D01*
X160705337Y-48546364D02*
X160705337Y-48832079D01*
X160705337Y-47022555D02*
X160800576Y-47213031D01*
X160800576Y-47213031D02*
X160991052Y-47308269D01*
X160991052Y-47308269D02*
X162705337Y-47308269D01*
X162705337Y-44736840D02*
X161086290Y-44736840D01*
X161086290Y-44736840D02*
X160895814Y-44641602D01*
X160895814Y-44641602D02*
X160800576Y-44546364D01*
X160800576Y-44546364D02*
X160705337Y-44355888D01*
X160705337Y-44355888D02*
X160705337Y-43974935D01*
X160705337Y-43974935D02*
X160800576Y-43784459D01*
X160800576Y-43784459D02*
X160895814Y-43689221D01*
X160895814Y-43689221D02*
X161086290Y-43593983D01*
X161086290Y-43593983D02*
X162705337Y-43593983D01*
X162038671Y-42641602D02*
X160705337Y-42641602D01*
X161848195Y-42641602D02*
X161943433Y-42546364D01*
X161943433Y-42546364D02*
X162038671Y-42355888D01*
X162038671Y-42355888D02*
X162038671Y-42070173D01*
X162038671Y-42070173D02*
X161943433Y-41879697D01*
X161943433Y-41879697D02*
X161752956Y-41784459D01*
X161752956Y-41784459D02*
X160705337Y-41784459D01*
X160705337Y-40832078D02*
X162038671Y-40832078D01*
X162705337Y-40832078D02*
X162610099Y-40927316D01*
X162610099Y-40927316D02*
X162514861Y-40832078D01*
X162514861Y-40832078D02*
X162610099Y-40736840D01*
X162610099Y-40736840D02*
X162705337Y-40832078D01*
X162705337Y-40832078D02*
X162514861Y-40832078D01*
X162038671Y-40165411D02*
X162038671Y-39403507D01*
X162705337Y-39879697D02*
X160991052Y-39879697D01*
X160991052Y-39879697D02*
X160800576Y-39784459D01*
X160800576Y-39784459D02*
X160705337Y-39593983D01*
X160705337Y-39593983D02*
X160705337Y-39403507D01*
X162038671Y-37403506D02*
X160705337Y-36927316D01*
X160705337Y-36927316D02*
X162038671Y-36451125D01*
X162514861Y-35784458D02*
X162610099Y-35689220D01*
X162610099Y-35689220D02*
X162705337Y-35498744D01*
X162705337Y-35498744D02*
X162705337Y-35022553D01*
X162705337Y-35022553D02*
X162610099Y-34832077D01*
X162610099Y-34832077D02*
X162514861Y-34736839D01*
X162514861Y-34736839D02*
X162324385Y-34641601D01*
X162324385Y-34641601D02*
X162133909Y-34641601D01*
X162133909Y-34641601D02*
X161848195Y-34736839D01*
X161848195Y-34736839D02*
X160705337Y-35879696D01*
X160705337Y-35879696D02*
X160705337Y-34641601D01*
X157485449Y-72260652D02*
X158818783Y-72260652D01*
X159485449Y-72260652D02*
X159390211Y-72355890D01*
X159390211Y-72355890D02*
X159294973Y-72260652D01*
X159294973Y-72260652D02*
X159390211Y-72165414D01*
X159390211Y-72165414D02*
X159485449Y-72260652D01*
X159485449Y-72260652D02*
X159294973Y-72260652D01*
X158818783Y-71308271D02*
X157485449Y-71308271D01*
X158628307Y-71308271D02*
X158723545Y-71213033D01*
X158723545Y-71213033D02*
X158818783Y-71022557D01*
X158818783Y-71022557D02*
X158818783Y-70736842D01*
X158818783Y-70736842D02*
X158723545Y-70546366D01*
X158723545Y-70546366D02*
X158533068Y-70451128D01*
X158533068Y-70451128D02*
X157485449Y-70451128D01*
X158818783Y-69689223D02*
X158818783Y-68641604D01*
X158818783Y-68641604D02*
X157485449Y-69689223D01*
X157485449Y-69689223D02*
X157485449Y-68641604D01*
X159485449Y-69117795D02*
X159390211Y-69213033D01*
X159390211Y-69213033D02*
X159294973Y-69117795D01*
X159294973Y-69117795D02*
X159390211Y-69022557D01*
X159390211Y-69022557D02*
X159485449Y-69117795D01*
X159485449Y-69117795D02*
X159294973Y-69117795D01*
X157675926Y-67879699D02*
X157580688Y-67784461D01*
X157580688Y-67784461D02*
X157485449Y-67879699D01*
X157485449Y-67879699D02*
X157580688Y-67974937D01*
X157580688Y-67974937D02*
X157675926Y-67879699D01*
X157675926Y-67879699D02*
X157485449Y-67879699D01*
X157485449Y-65403508D02*
X159485449Y-65403508D01*
X159485449Y-65403508D02*
X158056878Y-64736841D01*
X158056878Y-64736841D02*
X159485449Y-64070175D01*
X159485449Y-64070175D02*
X157485449Y-64070175D01*
X157485449Y-63117794D02*
X158818783Y-63117794D01*
X159485449Y-63117794D02*
X159390211Y-63213032D01*
X159390211Y-63213032D02*
X159294973Y-63117794D01*
X159294973Y-63117794D02*
X159390211Y-63022556D01*
X159390211Y-63022556D02*
X159485449Y-63117794D01*
X159485449Y-63117794D02*
X159294973Y-63117794D01*
X157580688Y-61308270D02*
X157485449Y-61498746D01*
X157485449Y-61498746D02*
X157485449Y-61879699D01*
X157485449Y-61879699D02*
X157580688Y-62070175D01*
X157580688Y-62070175D02*
X157675926Y-62165413D01*
X157675926Y-62165413D02*
X157866402Y-62260651D01*
X157866402Y-62260651D02*
X158437830Y-62260651D01*
X158437830Y-62260651D02*
X158628307Y-62165413D01*
X158628307Y-62165413D02*
X158723545Y-62070175D01*
X158723545Y-62070175D02*
X158818783Y-61879699D01*
X158818783Y-61879699D02*
X158818783Y-61498746D01*
X158818783Y-61498746D02*
X158723545Y-61308270D01*
X157485449Y-60451127D02*
X159485449Y-60451127D01*
X157485449Y-59593984D02*
X158533068Y-59593984D01*
X158533068Y-59593984D02*
X158723545Y-59689222D01*
X158723545Y-59689222D02*
X158818783Y-59879698D01*
X158818783Y-59879698D02*
X158818783Y-60165413D01*
X158818783Y-60165413D02*
X158723545Y-60355889D01*
X158723545Y-60355889D02*
X158628307Y-60451127D01*
X157485449Y-57784460D02*
X158533068Y-57784460D01*
X158533068Y-57784460D02*
X158723545Y-57879698D01*
X158723545Y-57879698D02*
X158818783Y-58070174D01*
X158818783Y-58070174D02*
X158818783Y-58451127D01*
X158818783Y-58451127D02*
X158723545Y-58641603D01*
X157580688Y-57784460D02*
X157485449Y-57974936D01*
X157485449Y-57974936D02*
X157485449Y-58451127D01*
X157485449Y-58451127D02*
X157580688Y-58641603D01*
X157580688Y-58641603D02*
X157771164Y-58736841D01*
X157771164Y-58736841D02*
X157961640Y-58736841D01*
X157961640Y-58736841D02*
X158152116Y-58641603D01*
X158152116Y-58641603D02*
X158247354Y-58451127D01*
X158247354Y-58451127D02*
X158247354Y-57974936D01*
X158247354Y-57974936D02*
X158342592Y-57784460D01*
X157485449Y-56546365D02*
X157580688Y-56736841D01*
X157580688Y-56736841D02*
X157771164Y-56832079D01*
X157771164Y-56832079D02*
X159485449Y-56832079D01*
X158437830Y-57117793D02*
X158818783Y-56546365D01*
X158533068Y-53593983D02*
X158437830Y-53308269D01*
X158437830Y-53308269D02*
X158342592Y-53213031D01*
X158342592Y-53213031D02*
X158152116Y-53117793D01*
X158152116Y-53117793D02*
X157866402Y-53117793D01*
X157866402Y-53117793D02*
X157675926Y-53213031D01*
X157675926Y-53213031D02*
X157580688Y-53308269D01*
X157580688Y-53308269D02*
X157485449Y-53498745D01*
X157485449Y-53498745D02*
X157485449Y-54260650D01*
X157485449Y-54260650D02*
X159485449Y-54260650D01*
X159485449Y-54260650D02*
X159485449Y-53593983D01*
X159485449Y-53593983D02*
X159390211Y-53403507D01*
X159390211Y-53403507D02*
X159294973Y-53308269D01*
X159294973Y-53308269D02*
X159104497Y-53213031D01*
X159104497Y-53213031D02*
X158914021Y-53213031D01*
X158914021Y-53213031D02*
X158723545Y-53308269D01*
X158723545Y-53308269D02*
X158628307Y-53403507D01*
X158628307Y-53403507D02*
X158533068Y-53593983D01*
X158533068Y-53593983D02*
X158533068Y-54260650D01*
X157485449Y-51974936D02*
X157580688Y-52165412D01*
X157580688Y-52165412D02*
X157675926Y-52260650D01*
X157675926Y-52260650D02*
X157866402Y-52355888D01*
X157866402Y-52355888D02*
X158437830Y-52355888D01*
X158437830Y-52355888D02*
X158628307Y-52260650D01*
X158628307Y-52260650D02*
X158723545Y-52165412D01*
X158723545Y-52165412D02*
X158818783Y-51974936D01*
X158818783Y-51974936D02*
X158818783Y-51689221D01*
X158818783Y-51689221D02*
X158723545Y-51498745D01*
X158723545Y-51498745D02*
X158628307Y-51403507D01*
X158628307Y-51403507D02*
X158437830Y-51308269D01*
X158437830Y-51308269D02*
X157866402Y-51308269D01*
X157866402Y-51308269D02*
X157675926Y-51403507D01*
X157675926Y-51403507D02*
X157580688Y-51498745D01*
X157580688Y-51498745D02*
X157485449Y-51689221D01*
X157485449Y-51689221D02*
X157485449Y-51974936D01*
X157485449Y-50451126D02*
X158818783Y-50451126D01*
X158437830Y-50451126D02*
X158628307Y-50355888D01*
X158628307Y-50355888D02*
X158723545Y-50260650D01*
X158723545Y-50260650D02*
X158818783Y-50070174D01*
X158818783Y-50070174D02*
X158818783Y-49879697D01*
X157485449Y-49213031D02*
X159485449Y-49213031D01*
X158247354Y-49022555D02*
X157485449Y-48451126D01*
X158818783Y-48451126D02*
X158056878Y-49213031D01*
X157485449Y-47308269D02*
X157580688Y-47498745D01*
X157580688Y-47498745D02*
X157675926Y-47593983D01*
X157675926Y-47593983D02*
X157866402Y-47689221D01*
X157866402Y-47689221D02*
X158437830Y-47689221D01*
X158437830Y-47689221D02*
X158628307Y-47593983D01*
X158628307Y-47593983D02*
X158723545Y-47498745D01*
X158723545Y-47498745D02*
X158818783Y-47308269D01*
X158818783Y-47308269D02*
X158818783Y-47022554D01*
X158818783Y-47022554D02*
X158723545Y-46832078D01*
X158723545Y-46832078D02*
X158628307Y-46736840D01*
X158628307Y-46736840D02*
X158437830Y-46641602D01*
X158437830Y-46641602D02*
X157866402Y-46641602D01*
X157866402Y-46641602D02*
X157675926Y-46736840D01*
X157675926Y-46736840D02*
X157580688Y-46832078D01*
X157580688Y-46832078D02*
X157485449Y-47022554D01*
X157485449Y-47022554D02*
X157485449Y-47308269D01*
X158818783Y-45974935D02*
X157485449Y-45593983D01*
X157485449Y-45593983D02*
X158437830Y-45213030D01*
X158437830Y-45213030D02*
X157485449Y-44832078D01*
X157485449Y-44832078D02*
X158818783Y-44451126D01*
X157580688Y-43784459D02*
X157485449Y-43593983D01*
X157485449Y-43593983D02*
X157485449Y-43213031D01*
X157485449Y-43213031D02*
X157580688Y-43022554D01*
X157580688Y-43022554D02*
X157771164Y-42927316D01*
X157771164Y-42927316D02*
X157866402Y-42927316D01*
X157866402Y-42927316D02*
X158056878Y-43022554D01*
X158056878Y-43022554D02*
X158152116Y-43213031D01*
X158152116Y-43213031D02*
X158152116Y-43498745D01*
X158152116Y-43498745D02*
X158247354Y-43689221D01*
X158247354Y-43689221D02*
X158437830Y-43784459D01*
X158437830Y-43784459D02*
X158533068Y-43784459D01*
X158533068Y-43784459D02*
X158723545Y-43689221D01*
X158723545Y-43689221D02*
X158818783Y-43498745D01*
X158818783Y-43498745D02*
X158818783Y-43213031D01*
X158818783Y-43213031D02*
X158723545Y-43022554D01*
X157485449Y-42070173D02*
X159485449Y-42070173D01*
X158247354Y-41879697D02*
X157485449Y-41308268D01*
X158818783Y-41308268D02*
X158056878Y-42070173D01*
X157485449Y-40451125D02*
X158818783Y-40451125D01*
X159485449Y-40451125D02*
X159390211Y-40546363D01*
X159390211Y-40546363D02*
X159294973Y-40451125D01*
X159294973Y-40451125D02*
X159390211Y-40355887D01*
X159390211Y-40355887D02*
X159485449Y-40451125D01*
X159485449Y-40451125D02*
X159294973Y-40451125D01*
X156265561Y-71879700D02*
X156265561Y-71689223D01*
X156265561Y-71689223D02*
X156170323Y-71498747D01*
X156170323Y-71498747D02*
X156075085Y-71403509D01*
X156075085Y-71403509D02*
X155884609Y-71308271D01*
X155884609Y-71308271D02*
X155503657Y-71213033D01*
X155503657Y-71213033D02*
X155027466Y-71213033D01*
X155027466Y-71213033D02*
X154646514Y-71308271D01*
X154646514Y-71308271D02*
X154456038Y-71403509D01*
X154456038Y-71403509D02*
X154360800Y-71498747D01*
X154360800Y-71498747D02*
X154265561Y-71689223D01*
X154265561Y-71689223D02*
X154265561Y-71879700D01*
X154265561Y-71879700D02*
X154360800Y-72070176D01*
X154360800Y-72070176D02*
X154456038Y-72165414D01*
X154456038Y-72165414D02*
X154646514Y-72260652D01*
X154646514Y-72260652D02*
X155027466Y-72355890D01*
X155027466Y-72355890D02*
X155503657Y-72355890D01*
X155503657Y-72355890D02*
X155884609Y-72260652D01*
X155884609Y-72260652D02*
X156075085Y-72165414D01*
X156075085Y-72165414D02*
X156170323Y-72070176D01*
X156170323Y-72070176D02*
X156265561Y-71879700D01*
X156265561Y-69403509D02*
X156265561Y-70355890D01*
X156265561Y-70355890D02*
X155313180Y-70451128D01*
X155313180Y-70451128D02*
X155408419Y-70355890D01*
X155408419Y-70355890D02*
X155503657Y-70165414D01*
X155503657Y-70165414D02*
X155503657Y-69689223D01*
X155503657Y-69689223D02*
X155408419Y-69498747D01*
X155408419Y-69498747D02*
X155313180Y-69403509D01*
X155313180Y-69403509D02*
X155122704Y-69308271D01*
X155122704Y-69308271D02*
X154646514Y-69308271D01*
X154646514Y-69308271D02*
X154456038Y-69403509D01*
X154456038Y-69403509D02*
X154360800Y-69498747D01*
X154360800Y-69498747D02*
X154265561Y-69689223D01*
X154265561Y-69689223D02*
X154265561Y-70165414D01*
X154265561Y-70165414D02*
X154360800Y-70355890D01*
X154360800Y-70355890D02*
X154456038Y-70451128D01*
X154456038Y-68451128D02*
X154360800Y-68355890D01*
X154360800Y-68355890D02*
X154265561Y-68451128D01*
X154265561Y-68451128D02*
X154360800Y-68546366D01*
X154360800Y-68546366D02*
X154456038Y-68451128D01*
X154456038Y-68451128D02*
X154265561Y-68451128D01*
X156265561Y-67117795D02*
X156265561Y-66927318D01*
X156265561Y-66927318D02*
X156170323Y-66736842D01*
X156170323Y-66736842D02*
X156075085Y-66641604D01*
X156075085Y-66641604D02*
X155884609Y-66546366D01*
X155884609Y-66546366D02*
X155503657Y-66451128D01*
X155503657Y-66451128D02*
X155027466Y-66451128D01*
X155027466Y-66451128D02*
X154646514Y-66546366D01*
X154646514Y-66546366D02*
X154456038Y-66641604D01*
X154456038Y-66641604D02*
X154360800Y-66736842D01*
X154360800Y-66736842D02*
X154265561Y-66927318D01*
X154265561Y-66927318D02*
X154265561Y-67117795D01*
X154265561Y-67117795D02*
X154360800Y-67308271D01*
X154360800Y-67308271D02*
X154456038Y-67403509D01*
X154456038Y-67403509D02*
X154646514Y-67498747D01*
X154646514Y-67498747D02*
X155027466Y-67593985D01*
X155027466Y-67593985D02*
X155503657Y-67593985D01*
X155503657Y-67593985D02*
X155884609Y-67498747D01*
X155884609Y-67498747D02*
X156075085Y-67403509D01*
X156075085Y-67403509D02*
X156170323Y-67308271D01*
X156170323Y-67308271D02*
X156265561Y-67117795D01*
X156265561Y-65784461D02*
X156265561Y-64546366D01*
X156265561Y-64546366D02*
X155503657Y-65213033D01*
X155503657Y-65213033D02*
X155503657Y-64927318D01*
X155503657Y-64927318D02*
X155408419Y-64736842D01*
X155408419Y-64736842D02*
X155313180Y-64641604D01*
X155313180Y-64641604D02*
X155122704Y-64546366D01*
X155122704Y-64546366D02*
X154646514Y-64546366D01*
X154646514Y-64546366D02*
X154456038Y-64641604D01*
X154456038Y-64641604D02*
X154360800Y-64736842D01*
X154360800Y-64736842D02*
X154265561Y-64927318D01*
X154265561Y-64927318D02*
X154265561Y-65498747D01*
X154265561Y-65498747D02*
X154360800Y-65689223D01*
X154360800Y-65689223D02*
X154456038Y-65784461D01*
X154456038Y-63689223D02*
X154360800Y-63593985D01*
X154360800Y-63593985D02*
X154265561Y-63689223D01*
X154265561Y-63689223D02*
X154360800Y-63784461D01*
X154360800Y-63784461D02*
X154456038Y-63689223D01*
X154456038Y-63689223D02*
X154265561Y-63689223D01*
X156075085Y-62832080D02*
X156170323Y-62736842D01*
X156170323Y-62736842D02*
X156265561Y-62546366D01*
X156265561Y-62546366D02*
X156265561Y-62070175D01*
X156265561Y-62070175D02*
X156170323Y-61879699D01*
X156170323Y-61879699D02*
X156075085Y-61784461D01*
X156075085Y-61784461D02*
X155884609Y-61689223D01*
X155884609Y-61689223D02*
X155694133Y-61689223D01*
X155694133Y-61689223D02*
X155408419Y-61784461D01*
X155408419Y-61784461D02*
X154265561Y-62927318D01*
X154265561Y-62927318D02*
X154265561Y-61689223D01*
X156265561Y-60451128D02*
X156265561Y-60260651D01*
X156265561Y-60260651D02*
X156170323Y-60070175D01*
X156170323Y-60070175D02*
X156075085Y-59974937D01*
X156075085Y-59974937D02*
X155884609Y-59879699D01*
X155884609Y-59879699D02*
X155503657Y-59784461D01*
X155503657Y-59784461D02*
X155027466Y-59784461D01*
X155027466Y-59784461D02*
X154646514Y-59879699D01*
X154646514Y-59879699D02*
X154456038Y-59974937D01*
X154456038Y-59974937D02*
X154360800Y-60070175D01*
X154360800Y-60070175D02*
X154265561Y-60260651D01*
X154265561Y-60260651D02*
X154265561Y-60451128D01*
X154265561Y-60451128D02*
X154360800Y-60641604D01*
X154360800Y-60641604D02*
X154456038Y-60736842D01*
X154456038Y-60736842D02*
X154646514Y-60832080D01*
X154646514Y-60832080D02*
X155027466Y-60927318D01*
X155027466Y-60927318D02*
X155503657Y-60927318D01*
X155503657Y-60927318D02*
X155884609Y-60832080D01*
X155884609Y-60832080D02*
X156075085Y-60736842D01*
X156075085Y-60736842D02*
X156170323Y-60641604D01*
X156170323Y-60641604D02*
X156265561Y-60451128D01*
X156075085Y-59022556D02*
X156170323Y-58927318D01*
X156170323Y-58927318D02*
X156265561Y-58736842D01*
X156265561Y-58736842D02*
X156265561Y-58260651D01*
X156265561Y-58260651D02*
X156170323Y-58070175D01*
X156170323Y-58070175D02*
X156075085Y-57974937D01*
X156075085Y-57974937D02*
X155884609Y-57879699D01*
X155884609Y-57879699D02*
X155694133Y-57879699D01*
X155694133Y-57879699D02*
X155408419Y-57974937D01*
X155408419Y-57974937D02*
X154265561Y-59117794D01*
X154265561Y-59117794D02*
X154265561Y-57879699D01*
X156265561Y-56070175D02*
X156265561Y-57022556D01*
X156265561Y-57022556D02*
X155313180Y-57117794D01*
X155313180Y-57117794D02*
X155408419Y-57022556D01*
X155408419Y-57022556D02*
X155503657Y-56832080D01*
X155503657Y-56832080D02*
X155503657Y-56355889D01*
X155503657Y-56355889D02*
X155408419Y-56165413D01*
X155408419Y-56165413D02*
X155313180Y-56070175D01*
X155313180Y-56070175D02*
X155122704Y-55974937D01*
X155122704Y-55974937D02*
X154646514Y-55974937D01*
X154646514Y-55974937D02*
X154456038Y-56070175D01*
X154456038Y-56070175D02*
X154360800Y-56165413D01*
X154360800Y-56165413D02*
X154265561Y-56355889D01*
X154265561Y-56355889D02*
X154265561Y-56832080D01*
X154265561Y-56832080D02*
X154360800Y-57022556D01*
X154360800Y-57022556D02*
X154456038Y-57117794D01*
D11*
G36*
X171859122Y-100916059D02*
G01*
X171640923Y-101190320D01*
X171183591Y-101752063D01*
X170713558Y-102317378D01*
X170249082Y-102869398D01*
X170302346Y-102727474D01*
X170357694Y-102569824D01*
X170413240Y-102398581D01*
X170467099Y-102215878D01*
X170517387Y-102023848D01*
X170540602Y-101925002D01*
X170562217Y-101824625D01*
X170581997Y-101722983D01*
X170599705Y-101620342D01*
X170615107Y-101516969D01*
X170627966Y-101413132D01*
X170734032Y-101335647D01*
X170839310Y-101262662D01*
X170943509Y-101194061D01*
X171046338Y-101129730D01*
X171147505Y-101069553D01*
X171246719Y-101013417D01*
X171438120Y-100912805D01*
X171618211Y-100826977D01*
X171784658Y-100755015D01*
X171935132Y-100696000D01*
X172067299Y-100649016D01*
X171859122Y-100916059D01*
G37*
G36*
X170978333Y-103730967D02*
G01*
X170934461Y-103787643D01*
X170845123Y-103893391D01*
X170753701Y-103989695D01*
X170660245Y-104077388D01*
X170564805Y-104157305D01*
X170467430Y-104230280D01*
X170368170Y-104297147D01*
X170267074Y-104358739D01*
X170164193Y-104415892D01*
X170059575Y-104469439D01*
X169953270Y-104520213D01*
X169845329Y-104569050D01*
X169398183Y-104761700D01*
X169363531Y-104775766D01*
X169328730Y-104787803D01*
X169293929Y-104797819D01*
X169259277Y-104805820D01*
X169224922Y-104811811D01*
X169191014Y-104815799D01*
X169157702Y-104817791D01*
X169125133Y-104817792D01*
X169093458Y-104815809D01*
X169062824Y-104811847D01*
X169033381Y-104805914D01*
X169005277Y-104798014D01*
X168978661Y-104788156D01*
X168953683Y-104776344D01*
X168930491Y-104762584D01*
X168909233Y-104746884D01*
X169010205Y-104618925D01*
X169121693Y-104480448D01*
X169242310Y-104332843D01*
X169370666Y-104177499D01*
X169376218Y-104177487D01*
X169381745Y-104177400D01*
X169387223Y-104177164D01*
X169389936Y-104176968D01*
X169392626Y-104176706D01*
X169395292Y-104176369D01*
X169397931Y-104175949D01*
X169400538Y-104175436D01*
X169403111Y-104174821D01*
X169405647Y-104174094D01*
X169408142Y-104173246D01*
X169410594Y-104172268D01*
X169413000Y-104171150D01*
X169410883Y-104171150D01*
X169552137Y-104106791D01*
X169709023Y-104041000D01*
X169805373Y-104002937D01*
X169912268Y-103962659D01*
X170028664Y-103921091D01*
X170153514Y-103879158D01*
X170285776Y-103837783D01*
X170424402Y-103797890D01*
X170568350Y-103760402D01*
X170716573Y-103726245D01*
X170868026Y-103696342D01*
X171021666Y-103671617D01*
X170978333Y-103730967D01*
G37*
G36*
X172294312Y-100830819D02*
G01*
X172201327Y-101138095D01*
X172140479Y-101324607D01*
X172069945Y-101529285D01*
X171989638Y-101749318D01*
X171899470Y-101981892D01*
X171799357Y-102224196D01*
X171689209Y-102473418D01*
X171568942Y-102726745D01*
X171438467Y-102981364D01*
X171297699Y-103234465D01*
X171146549Y-103483234D01*
X171031667Y-103496149D01*
X170917457Y-103512437D01*
X170804296Y-103531751D01*
X170692557Y-103553745D01*
X170474851Y-103604379D01*
X170267339Y-103661562D01*
X170073023Y-103722516D01*
X169894905Y-103784461D01*
X169735985Y-103844621D01*
X169599266Y-103900217D01*
X170162299Y-103231349D01*
X170715741Y-102574720D01*
X171284662Y-101891500D01*
X171836913Y-101211455D01*
X172096742Y-100881925D01*
X172340349Y-100564351D01*
X172351793Y-100561573D01*
X172360458Y-100559588D01*
X172367866Y-100558000D01*
X172294312Y-100830819D01*
G37*
G36*
X170405972Y-101718292D02*
G01*
X170373991Y-101871060D01*
X170338178Y-102020653D01*
X170299420Y-102166004D01*
X170216614Y-102439715D01*
X170132667Y-102683661D01*
X170054672Y-102889309D01*
X169989726Y-103048125D01*
X169927350Y-103191133D01*
X169926208Y-103193490D01*
X169925163Y-103195804D01*
X169924211Y-103198081D01*
X169923348Y-103200327D01*
X169922572Y-103202548D01*
X169921880Y-103204750D01*
X169921269Y-103206940D01*
X169920735Y-103209124D01*
X169920276Y-103211308D01*
X169919888Y-103213498D01*
X169919568Y-103215700D01*
X169919313Y-103217921D01*
X169919120Y-103220167D01*
X169918986Y-103222444D01*
X169918908Y-103224758D01*
X169918883Y-103227115D01*
X169918882Y-103229233D01*
X169921263Y-103237434D01*
X169923347Y-103244413D01*
X169924352Y-103247666D01*
X169925232Y-103250398D01*
X169268801Y-104033300D01*
X169023036Y-104330593D01*
X168826682Y-104573315D01*
X168826794Y-104562009D01*
X168827178Y-104550330D01*
X168827910Y-104538304D01*
X168829064Y-104525955D01*
X168830713Y-104513309D01*
X168831747Y-104506882D01*
X168832933Y-104500390D01*
X168834280Y-104493835D01*
X168835798Y-104487223D01*
X168837496Y-104480554D01*
X168839382Y-104473833D01*
X168912110Y-104191791D01*
X168975114Y-103933586D01*
X169033752Y-103695275D01*
X169093383Y-103472913D01*
X169125244Y-103366481D01*
X169159363Y-103262557D01*
X169196409Y-103160648D01*
X169237051Y-103060262D01*
X169281960Y-102960905D01*
X169331805Y-102862085D01*
X169387256Y-102763308D01*
X169448982Y-102664081D01*
X169505080Y-102579864D01*
X169562204Y-102497848D01*
X169620288Y-102418003D01*
X169679269Y-102340297D01*
X169739081Y-102264700D01*
X169799659Y-102191180D01*
X169860937Y-102119706D01*
X169922851Y-102050248D01*
X169985336Y-101982774D01*
X170048326Y-101917254D01*
X170175562Y-101791949D01*
X170304038Y-101674086D01*
X170433233Y-101563415D01*
X170405972Y-101718292D01*
G37*
G36*
X168184628Y-103169840D02*
G01*
X168191521Y-103170431D01*
X168198287Y-103171554D01*
X168204910Y-103173210D01*
X168211375Y-103175401D01*
X168217665Y-103178128D01*
X168223765Y-103181393D01*
X168229659Y-103185198D01*
X168235331Y-103189543D01*
X168240765Y-103194432D01*
X168245945Y-103199864D01*
X168250855Y-103205842D01*
X168255480Y-103212368D01*
X168259803Y-103219442D01*
X168263809Y-103227067D01*
X168267481Y-103235243D01*
X168270804Y-103243973D01*
X168273762Y-103253258D01*
X168276339Y-103263100D01*
X168269998Y-103265216D01*
X168275633Y-103297959D01*
X168278461Y-103333883D01*
X168278803Y-103372400D01*
X168276977Y-103412919D01*
X168273303Y-103454852D01*
X168268101Y-103497610D01*
X168254388Y-103583244D01*
X168202265Y-103840948D01*
X168178817Y-104018352D01*
X168152788Y-104194962D01*
X168123982Y-104370778D01*
X168092198Y-104545799D01*
X168053933Y-104767586D01*
X168043228Y-104823979D01*
X168031068Y-104879844D01*
X168016954Y-104934729D01*
X168000388Y-104988183D01*
X167980871Y-105039750D01*
X167957902Y-105088981D01*
X167944968Y-105112578D01*
X167930983Y-105135420D01*
X167915887Y-105157452D01*
X167899615Y-105178617D01*
X167882107Y-105198857D01*
X167863299Y-105218117D01*
X167843129Y-105236340D01*
X167821534Y-105253469D01*
X167798453Y-105269448D01*
X167773823Y-105284220D01*
X167747581Y-105297728D01*
X167719666Y-105309917D01*
X167651713Y-105337156D01*
X167584431Y-105365115D01*
X167517892Y-105394116D01*
X167452172Y-105424481D01*
X167387345Y-105456532D01*
X167323485Y-105490593D01*
X167260667Y-105526986D01*
X167229672Y-105546157D01*
X167198966Y-105566032D01*
X167158682Y-105593314D01*
X167118796Y-105621165D01*
X167079307Y-105649562D01*
X167040215Y-105678480D01*
X167001520Y-105707894D01*
X166963221Y-105737780D01*
X166925319Y-105768112D01*
X166887814Y-105798865D01*
X166854597Y-105828193D01*
X166821702Y-105858860D01*
X166789253Y-105890618D01*
X166757375Y-105923220D01*
X166726191Y-105956417D01*
X166695826Y-105989961D01*
X166666404Y-106023604D01*
X166638048Y-106057099D01*
X166703022Y-106053649D01*
X166768508Y-106047458D01*
X166834422Y-106038812D01*
X166900680Y-106027995D01*
X166967198Y-106015293D01*
X167033894Y-106000991D01*
X167167479Y-105968729D01*
X167433088Y-105897555D01*
X167563772Y-105863209D01*
X167692148Y-105832732D01*
X167748182Y-105821297D01*
X167774031Y-105817059D01*
X167798312Y-105814277D01*
X167820931Y-105813307D01*
X167831588Y-105813611D01*
X167841795Y-105814501D01*
X167851539Y-105816020D01*
X167860810Y-105818212D01*
X167869596Y-105821122D01*
X167877885Y-105824795D01*
X167885666Y-105829273D01*
X167892926Y-105834602D01*
X167899655Y-105840825D01*
X167905840Y-105847987D01*
X167911470Y-105856132D01*
X167916534Y-105865304D01*
X167921019Y-105875547D01*
X167924915Y-105886906D01*
X167928209Y-105899424D01*
X167930890Y-105913146D01*
X167932946Y-105928116D01*
X167934365Y-105944378D01*
X167935137Y-105961977D01*
X167935249Y-105980956D01*
X167934690Y-106001359D01*
X167933447Y-106023232D01*
X167923055Y-106173147D01*
X167911032Y-106306961D01*
X167896343Y-106425836D01*
X167877951Y-106530935D01*
X167867044Y-106578682D01*
X167854822Y-106623421D01*
X167841157Y-106665297D01*
X167825919Y-106704456D01*
X167808980Y-106741043D01*
X167790208Y-106775204D01*
X167769475Y-106807083D01*
X167746652Y-106836826D01*
X167721609Y-106864579D01*
X167694216Y-106890486D01*
X167664344Y-106914694D01*
X167631864Y-106937347D01*
X167596646Y-106958591D01*
X167558561Y-106978571D01*
X167517479Y-106997432D01*
X167473271Y-107015321D01*
X167374959Y-107048759D01*
X167262589Y-107080049D01*
X167135125Y-107110352D01*
X166991531Y-107140832D01*
X166736472Y-107192955D01*
X166481413Y-107246666D01*
X166447377Y-107253227D01*
X166413515Y-107258675D01*
X166379801Y-107263088D01*
X166346212Y-107266543D01*
X166312721Y-107269116D01*
X166279305Y-107270887D01*
X166212597Y-107272330D01*
X166145889Y-107271491D01*
X166078982Y-107268990D01*
X165943781Y-107261482D01*
X165939634Y-107261495D01*
X165935214Y-107261581D01*
X165930645Y-107261817D01*
X165928344Y-107262014D01*
X165926052Y-107262276D01*
X165923785Y-107262612D01*
X165921558Y-107263032D01*
X165919387Y-107263546D01*
X165917288Y-107264161D01*
X165915275Y-107264888D01*
X165913364Y-107265736D01*
X165911572Y-107266714D01*
X165909912Y-107267832D01*
X165909137Y-107268440D01*
X165908397Y-107269071D01*
X165907693Y-107269726D01*
X165907022Y-107270403D01*
X165906384Y-107271102D01*
X165905777Y-107271822D01*
X165905201Y-107272562D01*
X165904653Y-107273322D01*
X165903641Y-107274896D01*
X165902731Y-107276538D01*
X165901914Y-107278243D01*
X165901181Y-107280003D01*
X165900522Y-107281812D01*
X165899929Y-107283666D01*
X165899391Y-107285556D01*
X165898899Y-107287477D01*
X165898019Y-107291388D01*
X165897214Y-107295349D01*
X165871793Y-107406768D01*
X165848232Y-107518757D01*
X165827004Y-107631291D01*
X165808578Y-107744347D01*
X165793427Y-107857898D01*
X165782021Y-107971921D01*
X165774832Y-108086391D01*
X165772966Y-108143785D01*
X165772331Y-108201282D01*
X165773861Y-108300122D01*
X165778421Y-108398177D01*
X165785963Y-108495408D01*
X165796441Y-108591774D01*
X165809810Y-108687234D01*
X165826021Y-108781749D01*
X165845029Y-108875277D01*
X165866787Y-108967780D01*
X165891249Y-109059215D01*
X165918369Y-109149544D01*
X165948099Y-109238726D01*
X165980393Y-109326720D01*
X166015204Y-109413486D01*
X166052487Y-109498984D01*
X166092195Y-109583174D01*
X166134280Y-109666015D01*
X166154870Y-109655471D01*
X166176167Y-109645261D01*
X166198184Y-109635375D01*
X166220932Y-109625798D01*
X166244424Y-109616519D01*
X166268672Y-109607525D01*
X166293690Y-109598804D01*
X166319489Y-109590344D01*
X166373480Y-109574155D01*
X166430746Y-109558858D01*
X166491385Y-109544356D01*
X166555496Y-109530548D01*
X166608161Y-109520589D01*
X166661297Y-109511200D01*
X166768486Y-109493242D01*
X166876072Y-109474886D01*
X166929704Y-109465002D01*
X166983063Y-109454348D01*
X166986572Y-109453628D01*
X166989956Y-109453056D01*
X166993212Y-109452629D01*
X166996337Y-109452347D01*
X166999331Y-109452207D01*
X167002192Y-109452208D01*
X167004917Y-109452349D01*
X167007504Y-109452628D01*
X167009951Y-109453043D01*
X167012257Y-109453593D01*
X167014420Y-109454277D01*
X167016438Y-109455092D01*
X167018308Y-109456037D01*
X167020029Y-109457112D01*
X167021598Y-109458313D01*
X167023015Y-109459640D01*
X167024277Y-109461091D01*
X167025381Y-109462664D01*
X167026327Y-109464358D01*
X167027112Y-109466172D01*
X167027734Y-109468103D01*
X167028192Y-109470151D01*
X167028483Y-109472313D01*
X167028605Y-109474589D01*
X167028556Y-109476976D01*
X167028336Y-109479473D01*
X167027940Y-109482079D01*
X167027369Y-109484792D01*
X167026619Y-109487610D01*
X167025689Y-109490532D01*
X167024577Y-109493557D01*
X167023280Y-109496682D01*
X167019481Y-109505182D01*
X167016004Y-109513979D01*
X167012825Y-109523024D01*
X167009919Y-109532268D01*
X167007261Y-109541661D01*
X167004826Y-109551153D01*
X167000526Y-109570236D01*
X166987297Y-109640615D01*
X166978174Y-109684357D01*
X166967594Y-109727522D01*
X166955736Y-109770179D01*
X166942781Y-109812396D01*
X166914297Y-109895781D01*
X166883580Y-109978224D01*
X166821204Y-110142464D01*
X166792423Y-110225353D01*
X166779263Y-110267228D01*
X166767163Y-110309482D01*
X166761938Y-110330392D01*
X166759610Y-110341024D01*
X166757506Y-110351749D01*
X166755650Y-110362548D01*
X166754066Y-110373403D01*
X166752781Y-110384296D01*
X166751817Y-110395206D01*
X166751201Y-110406117D01*
X166750957Y-110417010D01*
X166751110Y-110427865D01*
X166751685Y-110438664D01*
X166752706Y-110449389D01*
X166754198Y-110460021D01*
X166756187Y-110470542D01*
X166758696Y-110480932D01*
X166761231Y-110489396D01*
X166764067Y-110497725D01*
X166770607Y-110513976D01*
X166778244Y-110529687D01*
X166786908Y-110544862D01*
X166796526Y-110559503D01*
X166807029Y-110573614D01*
X166818343Y-110587199D01*
X166830399Y-110600259D01*
X166843124Y-110612798D01*
X166856448Y-110624820D01*
X166870299Y-110636327D01*
X166884605Y-110647322D01*
X166899296Y-110657808D01*
X166914300Y-110667790D01*
X166929547Y-110677269D01*
X166944963Y-110686249D01*
X167034938Y-110739401D01*
X167124218Y-110793570D01*
X167302679Y-110901884D01*
X167392852Y-110954491D01*
X167484315Y-111005038D01*
X167530686Y-111029300D01*
X167577565Y-111052758D01*
X167625014Y-111075318D01*
X167673096Y-111096882D01*
X167747700Y-111128060D01*
X167823048Y-111157294D01*
X167899091Y-111184574D01*
X167975779Y-111209892D01*
X168053062Y-111233238D01*
X168130891Y-111254602D01*
X168209216Y-111273976D01*
X168287987Y-111291351D01*
X168367155Y-111306716D01*
X168446671Y-111320062D01*
X168526484Y-111331381D01*
X168606546Y-111340662D01*
X168686805Y-111347898D01*
X168767214Y-111353077D01*
X168847722Y-111356192D01*
X168928279Y-111357232D01*
X169037772Y-111355209D01*
X169147094Y-111349183D01*
X169256124Y-111339219D01*
X169364742Y-111325383D01*
X169472827Y-111307739D01*
X169580258Y-111286352D01*
X169686913Y-111261289D01*
X169792672Y-111232613D01*
X169897415Y-111200390D01*
X170001019Y-111164685D01*
X170103365Y-111125564D01*
X170204331Y-111083090D01*
X170303796Y-111037330D01*
X170401640Y-110988349D01*
X170497741Y-110936211D01*
X170591979Y-110880981D01*
X170698907Y-110805294D01*
X170879085Y-110664817D01*
X171100190Y-110479890D01*
X171215990Y-110377114D01*
X171329902Y-110270853D01*
X171437885Y-110163649D01*
X171535901Y-110058045D01*
X171619907Y-109956584D01*
X171655395Y-109908201D01*
X171685866Y-109861807D01*
X171710814Y-109817720D01*
X171729735Y-109776258D01*
X171742125Y-109737738D01*
X171747477Y-109702478D01*
X171745286Y-109670796D01*
X171735049Y-109643011D01*
X171716259Y-109619439D01*
X171688413Y-109600398D01*
X171676492Y-109594681D01*
X171664165Y-109589808D01*
X171651459Y-109585742D01*
X171638402Y-109582448D01*
X171625021Y-109579888D01*
X171611343Y-109578028D01*
X171583207Y-109576255D01*
X171554216Y-109576839D01*
X171524590Y-109579488D01*
X171494548Y-109583910D01*
X171464310Y-109589815D01*
X171434097Y-109596910D01*
X171404130Y-109604905D01*
X171345810Y-109622425D01*
X171241795Y-109655431D01*
X171095051Y-109695846D01*
X170947314Y-109734277D01*
X170799180Y-109770327D01*
X170651245Y-109803599D01*
X170054081Y-109937477D01*
X169755002Y-110003623D01*
X169455328Y-110068182D01*
X167052911Y-110574065D01*
X167055274Y-110573244D01*
X167057598Y-110571991D01*
X167059883Y-110570332D01*
X167062126Y-110568294D01*
X167064328Y-110565901D01*
X167066487Y-110563182D01*
X167068602Y-110560162D01*
X167070672Y-110556867D01*
X167074670Y-110549560D01*
X167078473Y-110541472D01*
X167082071Y-110532813D01*
X167085455Y-110523794D01*
X167088616Y-110514627D01*
X167091545Y-110505521D01*
X167096667Y-110488340D01*
X167103711Y-110463998D01*
X167114047Y-110434931D01*
X167123695Y-110405691D01*
X167141347Y-110346788D01*
X167157512Y-110287488D01*
X167173031Y-110227990D01*
X167188749Y-110168492D01*
X167205509Y-110109192D01*
X167224154Y-110050289D01*
X167234447Y-110021048D01*
X167245528Y-109991981D01*
X167277936Y-109914497D01*
X167313302Y-109838630D01*
X167351707Y-109764711D01*
X167393231Y-109693068D01*
X167437955Y-109624030D01*
X167485959Y-109557924D01*
X167537324Y-109495080D01*
X167592131Y-109435827D01*
X167650460Y-109380493D01*
X167712393Y-109329407D01*
X167778008Y-109282897D01*
X167812223Y-109261461D01*
X167847388Y-109241293D01*
X167883515Y-109222432D01*
X167920612Y-109204922D01*
X167958692Y-109188802D01*
X167997762Y-109174113D01*
X168037834Y-109160898D01*
X168078918Y-109149196D01*
X168121023Y-109139049D01*
X168164160Y-109130498D01*
X168187155Y-109126889D01*
X168210103Y-109123946D01*
X168233008Y-109121592D01*
X168255872Y-109119750D01*
X168301492Y-109117290D01*
X168346988Y-109115947D01*
X168437707Y-109114128D01*
X168482980Y-109112412D01*
X168528227Y-109109332D01*
X168566699Y-109105253D01*
X168605122Y-109100216D01*
X168681818Y-109087603D01*
X168758316Y-109072162D01*
X168834615Y-109054563D01*
X169137827Y-108975982D01*
X169209993Y-108956237D01*
X169246844Y-108945063D01*
X169265180Y-108938922D01*
X169283348Y-108932326D01*
X169301268Y-108925208D01*
X169318860Y-108917505D01*
X169336043Y-108909150D01*
X169352735Y-108900079D01*
X169368857Y-108890227D01*
X169384328Y-108879529D01*
X169399067Y-108867919D01*
X169412994Y-108855332D01*
X169427655Y-108840148D01*
X169441112Y-108824003D01*
X169453414Y-108806952D01*
X169464608Y-108789050D01*
X169474744Y-108770352D01*
X169483869Y-108750915D01*
X169492032Y-108730793D01*
X169499281Y-108710043D01*
X169511233Y-108666876D01*
X169520113Y-108621858D01*
X169526307Y-108575432D01*
X169530204Y-108528042D01*
X169532191Y-108480132D01*
X169532656Y-108432143D01*
X169530568Y-108337708D01*
X169527042Y-108248283D01*
X169525177Y-108167416D01*
X169525177Y-107500665D01*
X169523032Y-107367869D01*
X169516942Y-107249311D01*
X169506239Y-107144445D01*
X169498948Y-107096976D01*
X169490252Y-107052726D01*
X169480068Y-107011625D01*
X169468313Y-106973607D01*
X169454901Y-106938602D01*
X169439750Y-106906543D01*
X169422776Y-106877362D01*
X169403895Y-106850989D01*
X169383023Y-106827357D01*
X169360077Y-106806399D01*
X169334973Y-106788044D01*
X169307628Y-106772226D01*
X169277957Y-106758876D01*
X169245876Y-106747926D01*
X169211303Y-106739307D01*
X169174154Y-106732952D01*
X169134344Y-106728792D01*
X169091790Y-106726759D01*
X169046408Y-106726785D01*
X168998115Y-106728801D01*
X168892459Y-106738533D01*
X168774153Y-106755408D01*
X168642527Y-106778882D01*
X168613873Y-106784645D01*
X168584749Y-106790854D01*
X168523200Y-106804811D01*
X168373710Y-106840265D01*
X168389341Y-106651422D01*
X168406481Y-106481845D01*
X168425749Y-106330463D01*
X168447760Y-106196203D01*
X168473133Y-106077991D01*
X168502484Y-105974755D01*
X168536429Y-105885422D01*
X168555318Y-105845634D01*
X168575587Y-105808920D01*
X168597313Y-105775144D01*
X168620574Y-105744174D01*
X168645446Y-105715875D01*
X168672007Y-105690114D01*
X168700334Y-105666755D01*
X168730503Y-105645665D01*
X168762593Y-105626709D01*
X168796680Y-105609755D01*
X168871153Y-105581311D01*
X168954541Y-105559261D01*
X169047460Y-105542531D01*
X169150527Y-105530049D01*
X169270036Y-105522852D01*
X169388454Y-105524960D01*
X169505185Y-105536202D01*
X169619633Y-105556408D01*
X169731205Y-105585408D01*
X169839304Y-105623030D01*
X169943334Y-105669104D01*
X170042702Y-105723460D01*
X170136811Y-105785927D01*
X170225066Y-105856334D01*
X170266812Y-105894462D01*
X170306872Y-105934512D01*
X170345170Y-105976461D01*
X170381633Y-106020289D01*
X170416186Y-106065974D01*
X170448755Y-106113495D01*
X170479264Y-106162830D01*
X170507641Y-106213959D01*
X170533810Y-106266860D01*
X170557697Y-106321512D01*
X170579227Y-106377893D01*
X170598327Y-106435982D01*
X170615441Y-106496152D01*
X170630366Y-106556780D01*
X170643245Y-106617831D01*
X170654220Y-106679266D01*
X170663434Y-106741048D01*
X170671029Y-106803141D01*
X170677149Y-106865506D01*
X170681935Y-106928107D01*
X170688078Y-107053866D01*
X170690600Y-107180122D01*
X170690642Y-107306576D01*
X170689343Y-107432931D01*
X170678761Y-108381198D01*
X170679067Y-108409459D01*
X170679570Y-108423819D01*
X170680414Y-108438216D01*
X170681680Y-108452563D01*
X170683449Y-108466774D01*
X170685800Y-108480762D01*
X170688815Y-108494440D01*
X170692574Y-108507720D01*
X170697157Y-108520518D01*
X170702646Y-108532744D01*
X170709122Y-108544314D01*
X170712754Y-108549825D01*
X170716663Y-108555139D01*
X170720859Y-108560245D01*
X170725352Y-108565133D01*
X170730152Y-108569791D01*
X170735269Y-108574210D01*
X170740713Y-108578376D01*
X170746494Y-108582281D01*
X170750896Y-108584949D01*
X170755369Y-108587400D01*
X170764514Y-108591678D01*
X170773901Y-108595169D01*
X170783502Y-108597925D01*
X170793289Y-108599999D01*
X170803234Y-108601443D01*
X170813310Y-108602311D01*
X170823487Y-108602654D01*
X170833740Y-108602527D01*
X170844038Y-108601980D01*
X170854355Y-108601068D01*
X170864663Y-108599843D01*
X170874934Y-108598357D01*
X170885140Y-108596664D01*
X170905244Y-108592865D01*
X172035544Y-108383314D01*
X172040393Y-108382417D01*
X172045367Y-108381297D01*
X172047876Y-108380645D01*
X172050390Y-108379929D01*
X172052896Y-108379144D01*
X172055388Y-108378288D01*
X172057854Y-108377357D01*
X172060287Y-108376349D01*
X172062676Y-108375260D01*
X172065012Y-108374087D01*
X172067286Y-108372828D01*
X172069489Y-108371479D01*
X172071611Y-108370036D01*
X172073644Y-108368498D01*
X172074605Y-108367295D01*
X172075507Y-108366069D01*
X172077137Y-108363549D01*
X172078550Y-108360950D01*
X172079762Y-108358278D01*
X172080788Y-108355545D01*
X172081643Y-108352759D01*
X172082343Y-108349930D01*
X172082904Y-108347067D01*
X172083341Y-108344178D01*
X172083669Y-108341275D01*
X172083904Y-108338365D01*
X172084062Y-108335458D01*
X172084206Y-108329691D01*
X172084227Y-108324048D01*
X172074550Y-108157515D01*
X172058902Y-107990822D01*
X172037114Y-107824451D01*
X172009019Y-107658886D01*
X171974451Y-107494610D01*
X171933241Y-107332109D01*
X171885222Y-107171864D01*
X171830227Y-107014361D01*
X171768088Y-106860082D01*
X171698638Y-106709511D01*
X171621710Y-106563133D01*
X171537135Y-106421430D01*
X171444747Y-106284886D01*
X171344378Y-106153986D01*
X171235860Y-106029212D01*
X171119027Y-105911049D01*
X171021429Y-105820958D01*
X170970906Y-105775913D01*
X170919267Y-105731661D01*
X170866536Y-105688799D01*
X170839769Y-105668075D01*
X170812739Y-105647921D01*
X170785448Y-105628412D01*
X170757899Y-105609622D01*
X170730097Y-105591626D01*
X170702043Y-105574499D01*
X170673434Y-105558337D01*
X170644025Y-105543133D01*
X170613909Y-105528804D01*
X170583179Y-105515265D01*
X170551928Y-105502433D01*
X170520250Y-105490225D01*
X170455981Y-105467342D01*
X170200394Y-105383998D01*
X170180339Y-105376520D01*
X170170251Y-105372488D01*
X170160210Y-105368223D01*
X170150281Y-105363698D01*
X170140528Y-105358884D01*
X170131017Y-105353754D01*
X170121812Y-105348280D01*
X170112980Y-105342434D01*
X170104586Y-105336188D01*
X170096693Y-105329514D01*
X170089368Y-105322384D01*
X170082675Y-105314770D01*
X170079586Y-105310773D01*
X170076680Y-105306645D01*
X170073965Y-105302382D01*
X170071448Y-105297980D01*
X170069138Y-105293437D01*
X170067043Y-105288748D01*
X170064236Y-105280344D01*
X170062148Y-105271819D01*
X170060755Y-105263201D01*
X170060032Y-105254517D01*
X170059953Y-105245797D01*
X170060495Y-105237067D01*
X170061632Y-105228356D01*
X170063339Y-105219692D01*
X170065592Y-105211102D01*
X170068366Y-105202614D01*
X170071636Y-105194256D01*
X170075378Y-105186057D01*
X170079566Y-105178043D01*
X170084175Y-105170244D01*
X170089182Y-105162686D01*
X170094560Y-105155398D01*
X170100239Y-105148401D01*
X170106152Y-105141685D01*
X170112290Y-105135236D01*
X170118637Y-105129039D01*
X170125184Y-105123077D01*
X170131916Y-105117335D01*
X170138822Y-105111798D01*
X170145889Y-105106450D01*
X170153106Y-105101275D01*
X170160458Y-105096259D01*
X170167935Y-105091385D01*
X170175523Y-105086639D01*
X170190984Y-105077465D01*
X170206743Y-105068614D01*
X170423305Y-104936091D01*
X170639073Y-104802179D01*
X170745667Y-104733276D01*
X170850872Y-104662314D01*
X170954291Y-104588723D01*
X171055527Y-104511932D01*
X171089688Y-104483222D01*
X171127597Y-104448837D01*
X171212987Y-104368726D01*
X171259631Y-104325840D01*
X171308349Y-104282960D01*
X171358722Y-104241506D01*
X171410333Y-104202899D01*
X171462762Y-104168558D01*
X171489153Y-104153431D01*
X171515592Y-104139903D01*
X171542026Y-104128152D01*
X171568402Y-104118355D01*
X171594670Y-104110690D01*
X171620776Y-104105334D01*
X171646668Y-104102465D01*
X171672294Y-104102259D01*
X171697601Y-104104896D01*
X171722537Y-104110551D01*
X171747050Y-104119404D01*
X171771087Y-104131630D01*
X171794597Y-104147408D01*
X171817526Y-104166916D01*
X172348810Y-104668567D01*
X172784843Y-105079199D01*
X172794399Y-105088992D01*
X172803227Y-105099304D01*
X172811328Y-105110106D01*
X172818705Y-105121371D01*
X172825362Y-105133072D01*
X172831300Y-105145181D01*
X172836523Y-105157671D01*
X172841034Y-105170514D01*
X172844834Y-105183682D01*
X172847927Y-105197148D01*
X172850315Y-105210885D01*
X172852002Y-105224865D01*
X172852989Y-105239060D01*
X172853280Y-105253444D01*
X172852877Y-105267987D01*
X172851783Y-105282664D01*
X172850000Y-105297446D01*
X172847532Y-105312306D01*
X172844381Y-105327216D01*
X172840550Y-105342150D01*
X172836042Y-105357078D01*
X172830858Y-105371975D01*
X172825003Y-105386811D01*
X172818478Y-105401561D01*
X172811287Y-105416196D01*
X172803431Y-105430688D01*
X172794915Y-105445011D01*
X172785740Y-105459137D01*
X172775909Y-105473037D01*
X172765425Y-105486686D01*
X172754291Y-105500054D01*
X172742510Y-105513116D01*
X172562593Y-105769232D01*
X172549847Y-105788291D01*
X172538607Y-105808097D01*
X172528893Y-105828554D01*
X172520723Y-105849567D01*
X172514116Y-105871038D01*
X172509089Y-105892872D01*
X172505663Y-105914972D01*
X172503856Y-105937243D01*
X172503685Y-105959588D01*
X172505170Y-105981912D01*
X172508330Y-106004118D01*
X172513182Y-106026110D01*
X172519746Y-106047792D01*
X172528040Y-106069067D01*
X172538083Y-106089841D01*
X172549893Y-106110016D01*
X172619528Y-106227073D01*
X172685492Y-106346388D01*
X172747686Y-106467836D01*
X172806010Y-106591293D01*
X172860365Y-106716635D01*
X172910652Y-106843738D01*
X172956772Y-106972479D01*
X172998626Y-107102732D01*
X173002203Y-107113930D01*
X173006179Y-107124900D01*
X173010546Y-107135636D01*
X173015295Y-107146132D01*
X173020415Y-107156383D01*
X173025899Y-107166384D01*
X173031736Y-107176129D01*
X173037917Y-107185613D01*
X173044432Y-107194830D01*
X173051274Y-107203775D01*
X173058431Y-107212442D01*
X173065896Y-107220827D01*
X173073658Y-107228923D01*
X173081709Y-107236726D01*
X173090039Y-107244229D01*
X173098638Y-107251428D01*
X173116609Y-107264889D01*
X173135548Y-107277067D01*
X173155379Y-107287919D01*
X173176029Y-107297399D01*
X173197423Y-107305466D01*
X173219487Y-107312075D01*
X173242146Y-107317184D01*
X173265326Y-107320749D01*
X173574359Y-107354615D01*
X173609328Y-107355213D01*
X173643465Y-107358505D01*
X173676585Y-107364358D01*
X173708503Y-107372640D01*
X173739031Y-107383215D01*
X173767984Y-107395952D01*
X173795177Y-107410716D01*
X173820422Y-107427375D01*
X173843533Y-107445795D01*
X173854231Y-107455624D01*
X173864326Y-107465843D01*
X173873794Y-107476436D01*
X173882613Y-107487386D01*
X173890759Y-107498676D01*
X173898209Y-107510289D01*
X173904940Y-107522210D01*
X173910928Y-107534421D01*
X173916150Y-107546905D01*
X173920583Y-107559647D01*
X173924204Y-107572628D01*
X173926989Y-107585834D01*
X173928915Y-107599246D01*
X173929959Y-107612849D01*
X173963825Y-108677532D01*
X173963773Y-108691346D01*
X173962836Y-108704993D01*
X173961034Y-108718459D01*
X173958389Y-108731726D01*
X173954921Y-108744778D01*
X173950650Y-108757597D01*
X173945596Y-108770167D01*
X173939781Y-108782472D01*
X173933226Y-108794495D01*
X173925949Y-108806219D01*
X173917973Y-108817628D01*
X173909317Y-108828704D01*
X173900003Y-108839432D01*
X173890050Y-108849794D01*
X173879479Y-108859774D01*
X173868311Y-108869355D01*
X173856566Y-108878520D01*
X173844266Y-108887254D01*
X173831429Y-108895539D01*
X173818078Y-108903358D01*
X173804232Y-108910695D01*
X173789911Y-108917533D01*
X173775138Y-108923856D01*
X173759931Y-108929647D01*
X173744313Y-108934889D01*
X173728302Y-108939565D01*
X173711920Y-108943659D01*
X173695187Y-108947155D01*
X173678124Y-108950035D01*
X173660752Y-108952283D01*
X173643090Y-108953882D01*
X173625160Y-108954816D01*
X173318243Y-109009849D01*
X173295508Y-109014627D01*
X173273387Y-109020986D01*
X173251949Y-109028871D01*
X173231261Y-109038225D01*
X173211391Y-109048993D01*
X173192408Y-109061120D01*
X173174380Y-109074548D01*
X173157376Y-109089223D01*
X173141462Y-109105089D01*
X173126709Y-109122089D01*
X173113183Y-109140169D01*
X173100953Y-109159272D01*
X173090088Y-109179342D01*
X173080655Y-109200323D01*
X173072722Y-109222161D01*
X173066359Y-109244798D01*
X173033051Y-109378839D01*
X172995153Y-109511068D01*
X172952841Y-109641463D01*
X172906287Y-109769996D01*
X172855664Y-109896645D01*
X172801148Y-110021384D01*
X172742910Y-110144187D01*
X172681126Y-110265031D01*
X172670878Y-110285974D01*
X172662349Y-110307460D01*
X172655518Y-110329386D01*
X172650368Y-110351649D01*
X172646880Y-110374149D01*
X172645035Y-110396782D01*
X172644815Y-110419445D01*
X172646201Y-110442038D01*
X172649175Y-110464457D01*
X172653717Y-110486599D01*
X172659810Y-110508364D01*
X172667434Y-110529648D01*
X172676571Y-110550349D01*
X172687203Y-110570365D01*
X172699311Y-110589593D01*
X172712876Y-110607931D01*
X172907610Y-110851349D01*
X172920389Y-110864014D01*
X172932532Y-110876988D01*
X172944031Y-110890247D01*
X172954883Y-110903765D01*
X172965082Y-110917517D01*
X172974624Y-110931479D01*
X172983503Y-110945624D01*
X172991714Y-110959927D01*
X172999252Y-110974364D01*
X173006112Y-110988909D01*
X173012290Y-111003536D01*
X173017779Y-111018222D01*
X173022576Y-111032940D01*
X173026675Y-111047666D01*
X173030070Y-111062373D01*
X173032757Y-111077038D01*
X173034732Y-111091634D01*
X173035988Y-111106138D01*
X173036521Y-111120522D01*
X173036325Y-111134763D01*
X173035396Y-111148834D01*
X173033729Y-111162712D01*
X173031319Y-111176370D01*
X173028160Y-111189784D01*
X173024248Y-111202927D01*
X173019577Y-111215776D01*
X173014143Y-111228305D01*
X173007940Y-111240489D01*
X173000964Y-111252302D01*
X172993209Y-111263719D01*
X172984670Y-111274715D01*
X172975343Y-111285265D01*
X172249326Y-112055731D01*
X172239532Y-112065288D01*
X172229220Y-112074115D01*
X172218417Y-112082215D01*
X172207149Y-112089590D01*
X172195445Y-112096243D01*
X172183330Y-112102175D01*
X172170832Y-112107390D01*
X172157978Y-112111889D01*
X172144796Y-112115676D01*
X172131312Y-112118751D01*
X172117554Y-112121118D01*
X172103549Y-112122779D01*
X172089323Y-112123736D01*
X172074904Y-112123991D01*
X172060320Y-112123547D01*
X172045597Y-112122407D01*
X172030762Y-112120571D01*
X172015842Y-112118044D01*
X172000865Y-112114827D01*
X171985859Y-112110922D01*
X171970848Y-112106332D01*
X171955862Y-112101059D01*
X171940927Y-112095105D01*
X171926071Y-112088474D01*
X171911320Y-112081166D01*
X171896701Y-112073185D01*
X171882242Y-112064532D01*
X171867970Y-112055211D01*
X171853912Y-112045222D01*
X171840095Y-112034570D01*
X171826546Y-112023256D01*
X171813292Y-112011282D01*
X171563525Y-111831365D01*
X171544467Y-111818619D01*
X171524661Y-111807379D01*
X171504203Y-111797665D01*
X171483191Y-111789494D01*
X171461720Y-111782887D01*
X171439886Y-111777861D01*
X171417786Y-111774435D01*
X171395515Y-111772627D01*
X171373170Y-111772457D01*
X171350846Y-111773942D01*
X171328640Y-111777102D01*
X171306648Y-111781954D01*
X171284966Y-111788518D01*
X171263691Y-111796812D01*
X171242917Y-111806855D01*
X171222743Y-111818665D01*
X171156278Y-111859341D01*
X171088698Y-111898801D01*
X171020075Y-111937021D01*
X170950486Y-111973975D01*
X170880003Y-112009640D01*
X170808702Y-112043991D01*
X170736657Y-112077002D01*
X170663942Y-112108649D01*
X170611166Y-112131878D01*
X170557646Y-112153992D01*
X170503431Y-112175063D01*
X170448572Y-112195167D01*
X170393117Y-112214379D01*
X170337116Y-112232771D01*
X170280619Y-112250420D01*
X170223676Y-112267398D01*
X170212477Y-112270975D01*
X170201507Y-112274951D01*
X170190772Y-112279319D01*
X170180276Y-112284067D01*
X170170024Y-112289188D01*
X170160024Y-112294671D01*
X170150279Y-112300508D01*
X170140795Y-112306689D01*
X170131578Y-112313205D01*
X170122633Y-112320046D01*
X170113965Y-112327204D01*
X170105580Y-112334669D01*
X170097484Y-112342431D01*
X170089682Y-112350482D01*
X170082178Y-112358811D01*
X170074980Y-112367411D01*
X170061518Y-112385382D01*
X170049340Y-112404320D01*
X170038489Y-112424152D01*
X170029008Y-112444802D01*
X170020942Y-112466196D01*
X170014332Y-112488259D01*
X170009224Y-112510918D01*
X170005659Y-112534098D01*
X169971792Y-112843132D01*
X169972100Y-112871048D01*
X169970684Y-112898388D01*
X169967606Y-112925071D01*
X169962928Y-112951015D01*
X169956713Y-112976141D01*
X169949021Y-113000368D01*
X169939916Y-113023615D01*
X169929459Y-113045802D01*
X169917712Y-113066848D01*
X169904737Y-113086672D01*
X169890596Y-113105194D01*
X169875352Y-113122333D01*
X169859065Y-113138009D01*
X169841799Y-113152140D01*
X169823615Y-113164647D01*
X169804575Y-113175448D01*
X169799763Y-113178128D01*
X169794848Y-113180616D01*
X169789828Y-113182917D01*
X169784699Y-113185039D01*
X169779458Y-113186988D01*
X169774103Y-113188768D01*
X169768630Y-113190388D01*
X169763036Y-113191852D01*
X169757318Y-113193168D01*
X169751473Y-113194341D01*
X169745498Y-113195378D01*
X169739389Y-113196284D01*
X169733144Y-113197067D01*
X169726759Y-113197731D01*
X169720232Y-113198284D01*
X169713559Y-113198732D01*
X168650992Y-113228365D01*
X168638554Y-113228579D01*
X168626252Y-113228040D01*
X168614098Y-113226766D01*
X168602102Y-113224772D01*
X168590277Y-113222077D01*
X168578633Y-113218696D01*
X168567184Y-113214646D01*
X168555940Y-113209943D01*
X168544913Y-113204605D01*
X168534115Y-113198648D01*
X168523557Y-113192089D01*
X168513251Y-113184944D01*
X168503209Y-113177231D01*
X168493442Y-113168964D01*
X168483961Y-113160163D01*
X168474779Y-113150842D01*
X168465907Y-113141019D01*
X168457357Y-113130710D01*
X168449140Y-113119933D01*
X168441268Y-113108703D01*
X168433753Y-113097037D01*
X168426606Y-113084953D01*
X168419838Y-113072466D01*
X168413462Y-113059594D01*
X168407489Y-113046352D01*
X168401931Y-113032759D01*
X168396799Y-113018829D01*
X168392106Y-113004581D01*
X168387861Y-112990030D01*
X168384078Y-112975194D01*
X168380768Y-112960089D01*
X168377942Y-112944731D01*
X168377871Y-112941532D01*
X168377673Y-112938282D01*
X168377370Y-112934983D01*
X168376983Y-112931635D01*
X168375032Y-112917744D01*
X168374118Y-112910501D01*
X168373753Y-112906805D01*
X168373477Y-112903060D01*
X168373313Y-112899265D01*
X168373283Y-112895420D01*
X168373407Y-112891525D01*
X168373708Y-112887582D01*
X168318675Y-112580665D01*
X168313897Y-112557930D01*
X168307538Y-112535810D01*
X168299653Y-112514371D01*
X168290299Y-112493683D01*
X168279531Y-112473813D01*
X168267404Y-112454830D01*
X168253976Y-112436803D01*
X168239301Y-112419798D01*
X168223435Y-112403885D01*
X168206434Y-112389131D01*
X168188355Y-112375605D01*
X168169252Y-112363376D01*
X168149182Y-112352510D01*
X168128200Y-112343077D01*
X168106363Y-112335145D01*
X168083725Y-112328781D01*
X167949507Y-112295555D01*
X167816827Y-112257840D01*
X167685833Y-112215709D01*
X167556675Y-112169237D01*
X167429501Y-112118499D01*
X167304461Y-112063570D01*
X167181703Y-112004522D01*
X167061376Y-111941431D01*
X167058549Y-111939869D01*
X167055633Y-111938355D01*
X167052636Y-111936892D01*
X167049568Y-111935478D01*
X167043255Y-111932799D01*
X167036768Y-111930319D01*
X167030183Y-111928037D01*
X167023572Y-111925953D01*
X167017012Y-111924068D01*
X167010576Y-111922381D01*
X166991831Y-111917371D01*
X166972935Y-111913456D01*
X166953932Y-111910638D01*
X166934872Y-111908921D01*
X166915798Y-111908307D01*
X166896759Y-111908801D01*
X166877800Y-111910404D01*
X166858969Y-111913121D01*
X166840311Y-111916954D01*
X166821874Y-111921906D01*
X166803703Y-111927980D01*
X166785845Y-111935180D01*
X166768347Y-111943509D01*
X166751255Y-111952970D01*
X166734615Y-111963565D01*
X166718475Y-111975298D01*
X166475060Y-112170031D01*
X166462395Y-112182811D01*
X166449421Y-112194954D01*
X166436165Y-112206455D01*
X166422652Y-112217309D01*
X166408907Y-112227512D01*
X166394958Y-112237060D01*
X166380829Y-112245947D01*
X166366547Y-112254169D01*
X166352139Y-112261721D01*
X166337629Y-112268599D01*
X166323044Y-112274798D01*
X166308409Y-112280313D01*
X166293752Y-112285140D01*
X166279097Y-112289273D01*
X166264471Y-112292710D01*
X166249899Y-112295444D01*
X166235408Y-112297471D01*
X166221024Y-112298786D01*
X166206772Y-112299385D01*
X166192679Y-112299263D01*
X166178770Y-112298416D01*
X166165072Y-112296839D01*
X166151610Y-112294527D01*
X166138410Y-112291475D01*
X166125499Y-112287679D01*
X166112902Y-112283134D01*
X166100646Y-112277836D01*
X166088756Y-112271780D01*
X166077258Y-112264961D01*
X166066178Y-112257375D01*
X166055542Y-112249016D01*
X166045377Y-112239881D01*
X165514092Y-111738232D01*
X165078059Y-111327598D01*
X165068503Y-111317805D01*
X165059676Y-111307494D01*
X165051574Y-111296692D01*
X165044197Y-111285426D01*
X165037540Y-111273725D01*
X165031602Y-111261616D01*
X165026379Y-111249127D01*
X165021868Y-111236284D01*
X165018068Y-111223116D01*
X165014975Y-111209650D01*
X165012587Y-111195913D01*
X165010900Y-111181933D01*
X165009913Y-111167737D01*
X165009622Y-111153354D01*
X165010025Y-111138810D01*
X165011119Y-111124134D01*
X165012902Y-111109352D01*
X165015370Y-111094492D01*
X165018521Y-111079581D01*
X165022352Y-111064648D01*
X165026860Y-111049719D01*
X165032043Y-111034823D01*
X165037899Y-111019986D01*
X165044424Y-111005237D01*
X165051615Y-110990602D01*
X165059470Y-110976109D01*
X165067987Y-110961786D01*
X165077161Y-110947661D01*
X165086992Y-110933760D01*
X165097476Y-110920112D01*
X165108610Y-110906743D01*
X165120392Y-110893682D01*
X165300308Y-110637566D01*
X165313055Y-110618507D01*
X165324294Y-110598701D01*
X165334008Y-110578243D01*
X165342178Y-110557231D01*
X165348786Y-110535760D01*
X165353812Y-110513926D01*
X165357238Y-110491826D01*
X165359045Y-110469555D01*
X165359216Y-110447209D01*
X165357731Y-110424886D01*
X165354571Y-110402680D01*
X165349719Y-110380688D01*
X165343155Y-110359006D01*
X165334861Y-110337730D01*
X165324818Y-110316957D01*
X165313008Y-110296782D01*
X165243373Y-110179724D01*
X165177409Y-110060410D01*
X165115216Y-109938962D01*
X165056892Y-109815505D01*
X165002536Y-109690163D01*
X164952249Y-109563059D01*
X164906129Y-109434319D01*
X164864275Y-109304066D01*
X164860698Y-109292867D01*
X164856722Y-109281898D01*
X164852355Y-109271162D01*
X164847606Y-109260666D01*
X164842485Y-109250415D01*
X164837002Y-109240414D01*
X164831165Y-109230669D01*
X164824984Y-109221185D01*
X164818468Y-109211968D01*
X164811627Y-109203023D01*
X164804469Y-109194355D01*
X164797004Y-109185971D01*
X164789242Y-109177874D01*
X164781191Y-109170072D01*
X164772862Y-109162569D01*
X164764262Y-109155370D01*
X164746291Y-109141908D01*
X164727353Y-109129730D01*
X164707521Y-109118879D01*
X164686871Y-109109399D01*
X164665477Y-109101332D01*
X164643413Y-109094723D01*
X164620754Y-109089614D01*
X164597574Y-109086050D01*
X164288541Y-109052183D01*
X164253572Y-109051585D01*
X164219435Y-109048293D01*
X164186314Y-109042439D01*
X164154397Y-109034158D01*
X164123868Y-109023582D01*
X164094915Y-109010846D01*
X164067723Y-108996081D01*
X164042478Y-108979422D01*
X164019366Y-108961002D01*
X164008668Y-108951173D01*
X163998574Y-108940954D01*
X163989105Y-108930362D01*
X163980286Y-108919412D01*
X163972140Y-108908122D01*
X163964690Y-108896508D01*
X163957960Y-108884588D01*
X163951972Y-108872377D01*
X163946750Y-108859892D01*
X163942317Y-108847151D01*
X163938696Y-108834169D01*
X163935911Y-108820964D01*
X163933985Y-108807552D01*
X163932941Y-108793949D01*
X163899072Y-107729266D01*
X163899125Y-107715453D01*
X163900062Y-107701805D01*
X163901864Y-107688339D01*
X163904509Y-107675072D01*
X163907978Y-107662021D01*
X163912249Y-107649201D01*
X163917302Y-107636631D01*
X163923117Y-107624326D01*
X163929673Y-107612303D01*
X163936950Y-107600579D01*
X163944926Y-107589170D01*
X163953582Y-107578094D01*
X163962897Y-107567366D01*
X163972849Y-107557004D01*
X163983420Y-107547024D01*
X163994588Y-107537443D01*
X164006333Y-107528278D01*
X164018634Y-107519544D01*
X164031470Y-107511259D01*
X164044822Y-107503440D01*
X164058668Y-107496103D01*
X164072988Y-107489265D01*
X164087761Y-107482942D01*
X164102968Y-107477151D01*
X164118587Y-107471909D01*
X164134597Y-107467233D01*
X164150979Y-107463139D01*
X164167712Y-107459643D01*
X164184775Y-107456763D01*
X164202148Y-107454515D01*
X164219809Y-107452916D01*
X164237740Y-107451983D01*
X164544655Y-107396950D01*
X164567390Y-107392172D01*
X164589510Y-107385813D01*
X164610949Y-107377928D01*
X164631637Y-107368573D01*
X164651507Y-107357805D01*
X164670490Y-107345679D01*
X164688518Y-107332250D01*
X164705522Y-107317575D01*
X164721436Y-107301709D01*
X164736189Y-107284709D01*
X164749715Y-107266629D01*
X164761945Y-107247526D01*
X164772810Y-107227456D01*
X164782243Y-107206474D01*
X164790176Y-107184637D01*
X164796539Y-107161999D01*
X164829848Y-107027959D01*
X164867745Y-106895729D01*
X164910058Y-106765335D01*
X164956612Y-106636801D01*
X165007234Y-106510153D01*
X165061751Y-106385414D01*
X165119988Y-106262610D01*
X165181772Y-106141766D01*
X165192019Y-106120823D01*
X165200549Y-106099338D01*
X165207380Y-106077412D01*
X165212530Y-106055148D01*
X165216018Y-106032649D01*
X165217863Y-106010016D01*
X165218083Y-105987353D01*
X165216697Y-105964760D01*
X165213724Y-105942341D01*
X165209181Y-105920199D01*
X165203088Y-105898434D01*
X165195464Y-105877150D01*
X165186327Y-105856449D01*
X165175695Y-105836433D01*
X165163587Y-105817205D01*
X165150021Y-105798866D01*
X164955289Y-105555450D01*
X164942509Y-105542785D01*
X164930367Y-105529810D01*
X164918867Y-105516551D01*
X164908015Y-105503033D01*
X164897816Y-105489281D01*
X164888274Y-105475319D01*
X164879395Y-105461174D01*
X164871184Y-105446871D01*
X164863646Y-105432434D01*
X164856786Y-105417889D01*
X164850608Y-105403261D01*
X164845119Y-105388576D01*
X164840322Y-105373858D01*
X164836224Y-105359132D01*
X164832828Y-105344424D01*
X164830141Y-105329760D01*
X164828167Y-105315163D01*
X164826911Y-105300660D01*
X164826378Y-105286276D01*
X164826574Y-105272035D01*
X164827502Y-105257964D01*
X164829169Y-105244086D01*
X164831580Y-105230428D01*
X164834739Y-105217014D01*
X164838651Y-105203871D01*
X164843322Y-105191022D01*
X164848756Y-105178493D01*
X164854959Y-105166310D01*
X164861935Y-105154497D01*
X164869690Y-105143080D01*
X164878229Y-105132083D01*
X164887557Y-105121533D01*
X165613573Y-104351067D01*
X165623366Y-104341510D01*
X165633678Y-104332683D01*
X165644482Y-104324583D01*
X165655749Y-104317208D01*
X165667454Y-104310555D01*
X165679569Y-104304623D01*
X165692067Y-104299408D01*
X165704920Y-104294909D01*
X165718103Y-104291122D01*
X165731587Y-104288047D01*
X165745345Y-104285680D01*
X165759350Y-104284019D01*
X165773576Y-104283062D01*
X165787994Y-104282807D01*
X165802579Y-104283251D01*
X165817302Y-104284391D01*
X165832137Y-104286226D01*
X165847056Y-104288754D01*
X165862033Y-104291971D01*
X165877040Y-104295876D01*
X165892050Y-104300466D01*
X165907036Y-104305739D01*
X165921971Y-104311692D01*
X165936827Y-104318324D01*
X165951578Y-104325632D01*
X165966197Y-104333613D01*
X165980655Y-104342266D01*
X165994928Y-104351587D01*
X166008986Y-104361576D01*
X166022803Y-104372228D01*
X166036351Y-104383543D01*
X166049605Y-104395517D01*
X166299371Y-104575433D01*
X166318430Y-104588179D01*
X166338237Y-104599419D01*
X166358694Y-104609133D01*
X166379706Y-104617303D01*
X166401177Y-104623910D01*
X166423011Y-104628936D01*
X166445111Y-104632362D01*
X166467382Y-104634169D01*
X166489728Y-104634340D01*
X166512051Y-104632855D01*
X166534257Y-104629695D01*
X166556249Y-104624843D01*
X166577931Y-104618279D01*
X166599207Y-104609985D01*
X166619980Y-104599942D01*
X166640155Y-104588132D01*
X166719518Y-104538175D01*
X166800394Y-104490104D01*
X166882708Y-104444215D01*
X166966387Y-104400807D01*
X167051355Y-104360177D01*
X167137539Y-104322623D01*
X167181063Y-104305093D01*
X167224864Y-104288443D01*
X167268931Y-104272710D01*
X167313255Y-104257933D01*
X167465556Y-104212027D01*
X167505329Y-104199404D01*
X167544944Y-104185751D01*
X167583982Y-104170783D01*
X167622024Y-104154216D01*
X167658653Y-104135763D01*
X167693450Y-104115140D01*
X167725995Y-104092062D01*
X167741293Y-104079512D01*
X167755871Y-104066242D01*
X167769677Y-104052215D01*
X167782658Y-104037396D01*
X167794763Y-104021749D01*
X167805939Y-104005239D01*
X167816134Y-103987829D01*
X167825295Y-103969485D01*
X167833370Y-103950170D01*
X167840306Y-103929849D01*
X167846201Y-103909092D01*
X167851253Y-103888111D01*
X167855561Y-103866932D01*
X167859224Y-103845580D01*
X167865012Y-103802453D01*
X167869410Y-103758929D01*
X167877215Y-103671484D01*
X167882209Y-103627960D01*
X167885326Y-103606334D01*
X167888989Y-103584833D01*
X167894269Y-103558768D01*
X167900569Y-103532978D01*
X167907867Y-103507493D01*
X167916142Y-103482340D01*
X167925372Y-103457546D01*
X167935535Y-103433140D01*
X167946610Y-103409149D01*
X167958575Y-103385602D01*
X167971407Y-103362526D01*
X167985087Y-103339949D01*
X167999591Y-103317899D01*
X168014898Y-103296404D01*
X168030986Y-103275492D01*
X168047834Y-103255191D01*
X168065420Y-103235529D01*
X168083722Y-103216533D01*
X168090720Y-103209842D01*
X168097815Y-103203661D01*
X168104989Y-103197992D01*
X168112227Y-103192836D01*
X168119513Y-103188195D01*
X168126831Y-103184070D01*
X168134165Y-103180463D01*
X168141500Y-103177375D01*
X168148820Y-103174808D01*
X168156108Y-103172763D01*
X168163348Y-103171243D01*
X168170526Y-103170248D01*
X168177625Y-103169780D01*
X168184628Y-103169840D01*
G37*
G36*
X169207128Y-85978531D02*
G01*
X169217849Y-85992379D01*
X169227934Y-86013613D01*
X169245981Y-86076030D01*
X169260827Y-86161366D01*
X169272034Y-86265207D01*
X169279160Y-86383136D01*
X169281765Y-86510740D01*
X169279410Y-86643602D01*
X169271653Y-86777308D01*
X169258055Y-86907441D01*
X169238175Y-87029588D01*
X169211573Y-87139333D01*
X169195614Y-87188174D01*
X169177809Y-87232260D01*
X169158103Y-87271037D01*
X169136442Y-87303954D01*
X169112770Y-87330459D01*
X169087032Y-87350000D01*
X169022019Y-87382398D01*
X168936414Y-87415807D01*
X168833639Y-87449798D01*
X168717112Y-87483945D01*
X168456485Y-87550992D01*
X168181892Y-87613524D01*
X167700251Y-87711354D01*
X167491065Y-87750049D01*
X168043515Y-86446182D01*
X168083198Y-86444111D01*
X168189532Y-86435169D01*
X168261732Y-86426842D01*
X168343441Y-86415263D01*
X168432276Y-86399920D01*
X168525851Y-86380301D01*
X168621782Y-86355894D01*
X168717686Y-86326189D01*
X168811178Y-86290673D01*
X168856274Y-86270576D01*
X168899873Y-86248835D01*
X168941676Y-86225385D01*
X168981386Y-86200163D01*
X169018705Y-86173105D01*
X169053335Y-86144146D01*
X169084977Y-86113223D01*
X169113334Y-86080272D01*
X169138107Y-86045229D01*
X169158999Y-86008029D01*
X169158999Y-86008032D01*
X169171708Y-85986819D01*
X169184003Y-85975199D01*
X169195828Y-85972620D01*
X169207128Y-85978531D01*
G37*
G36*
X169425699Y-89140701D02*
G01*
X167740833Y-90118600D01*
X166906865Y-89341785D01*
X169584449Y-87743698D01*
X169425699Y-89140701D01*
G37*
G36*
X169495549Y-91295468D02*
G01*
X169499782Y-92569699D01*
X167404282Y-91771716D01*
X167452966Y-90508066D01*
X169495549Y-91295468D01*
G37*
G36*
X168475315Y-94294783D02*
G01*
X166259166Y-94783733D01*
X166019981Y-93630150D01*
X168602316Y-93088284D01*
X168475315Y-94294783D01*
G37*
G36*
X168477432Y-97869833D02*
G01*
X165996698Y-98407466D01*
X166364999Y-97131117D01*
X168716615Y-96625233D01*
X168477432Y-97869833D01*
G37*
G36*
X169597976Y-82846659D02*
G01*
X169454009Y-83487084D01*
X169375961Y-83810621D01*
X169306471Y-84070360D01*
X169277888Y-84160833D01*
X169254989Y-84216790D01*
X169246040Y-84229892D01*
X169238954Y-84232043D01*
X169233880Y-84222471D01*
X169230966Y-84200403D01*
X169230966Y-84200400D01*
X169224824Y-84160796D01*
X169212247Y-84125587D01*
X169193669Y-84094568D01*
X169169524Y-84067533D01*
X169140248Y-84044276D01*
X169106275Y-84024591D01*
X169068041Y-84008273D01*
X169025980Y-83995115D01*
X168980526Y-83984913D01*
X168932116Y-83977459D01*
X168881183Y-83972549D01*
X168828162Y-83969976D01*
X168717598Y-83971019D01*
X168603903Y-83978943D01*
X168490555Y-83992100D01*
X168381033Y-84008845D01*
X168187383Y-84046511D01*
X167999065Y-84092450D01*
X168367366Y-82813983D01*
X169662766Y-82545166D01*
X169597976Y-82846659D01*
G37*
G36*
X169185370Y-80357822D02*
G01*
X169196707Y-80370972D01*
X169208257Y-80391553D01*
X169231594Y-80452841D01*
X169254570Y-80537347D01*
X169276378Y-80640728D01*
X169296208Y-80758646D01*
X169313251Y-80886758D01*
X169326696Y-81020724D01*
X169335736Y-81156203D01*
X169339561Y-81288854D01*
X169337361Y-81414337D01*
X169328327Y-81528311D01*
X169311651Y-81626434D01*
X169300193Y-81668195D01*
X169286522Y-81704366D01*
X169270535Y-81734404D01*
X169252132Y-81757767D01*
X169238780Y-81769197D01*
X169220776Y-81781223D01*
X169172141Y-81806805D01*
X169108890Y-81834013D01*
X169033685Y-81862343D01*
X168949192Y-81891293D01*
X168858072Y-81920361D01*
X168666609Y-81976841D01*
X168480603Y-82027765D01*
X168321361Y-82069114D01*
X168168398Y-82107016D01*
X168195915Y-80930148D01*
X168193800Y-80928030D01*
X168326521Y-80891055D01*
X168464927Y-80846101D01*
X168544122Y-80817376D01*
X168626922Y-80784627D01*
X168711038Y-80747959D01*
X168794176Y-80707477D01*
X168874047Y-80663286D01*
X168948358Y-80615493D01*
X168982712Y-80590278D01*
X169014818Y-80564202D01*
X169044388Y-80537278D01*
X169071137Y-80509519D01*
X169094776Y-80480939D01*
X169115022Y-80451550D01*
X169131586Y-80421366D01*
X169144182Y-80390399D01*
X169153653Y-80368394D01*
X169163742Y-80355991D01*
X169174348Y-80352648D01*
X169185370Y-80357822D01*
G37*
G36*
X169003457Y-77378042D02*
G01*
X169020162Y-77392582D01*
X169034617Y-77414612D01*
X169046947Y-77443502D01*
X169057281Y-77478622D01*
X169065745Y-77519339D01*
X169077573Y-77615048D01*
X169083447Y-77725583D01*
X169084385Y-77845901D01*
X169075522Y-78095705D01*
X169059118Y-78324102D01*
X169036231Y-78555249D01*
X167778932Y-78889682D01*
X167850899Y-77687418D01*
X167850899Y-77687414D01*
X167991426Y-77673722D01*
X168138546Y-77655937D01*
X168311538Y-77630264D01*
X168401791Y-77614330D01*
X168491376Y-77596256D01*
X168577917Y-77575988D01*
X168659035Y-77553468D01*
X168732352Y-77528642D01*
X168795490Y-77501453D01*
X168822499Y-77486955D01*
X168846071Y-77471846D01*
X168865909Y-77456118D01*
X168881715Y-77439764D01*
X168911583Y-77407395D01*
X168938564Y-77385668D01*
X168962785Y-77373954D01*
X168984373Y-77371622D01*
X169003457Y-77378042D01*
G37*
G36*
X168604432Y-75134720D02*
G01*
X167442381Y-75392950D01*
X167302683Y-74175870D01*
X168511299Y-73955734D01*
X168604432Y-75134720D01*
G37*
G36*
X166542005Y-97517673D02*
G01*
X166473776Y-97711778D01*
X166407332Y-97897351D01*
X166381171Y-97965613D01*
X166353622Y-98033875D01*
X166324882Y-98102138D01*
X166295149Y-98170401D01*
X166283007Y-98196049D01*
X166270020Y-98219861D01*
X166256224Y-98241911D01*
X166241654Y-98262273D01*
X166226346Y-98281021D01*
X166210336Y-98298230D01*
X166193659Y-98313972D01*
X166176352Y-98328323D01*
X166158449Y-98341357D01*
X166139986Y-98353146D01*
X166120999Y-98363766D01*
X166101524Y-98373290D01*
X166081596Y-98381793D01*
X166061252Y-98389347D01*
X166040525Y-98396029D01*
X166019454Y-98401911D01*
X165976415Y-98411571D01*
X165932422Y-98418922D01*
X165887759Y-98424556D01*
X165842711Y-98429064D01*
X165752604Y-98437071D01*
X165708114Y-98441756D01*
X165664382Y-98447684D01*
X165651561Y-98449275D01*
X165639285Y-98450095D01*
X165627538Y-98450168D01*
X165616306Y-98449515D01*
X165605575Y-98448160D01*
X165595330Y-98446126D01*
X165585557Y-98443435D01*
X165576242Y-98440110D01*
X165567370Y-98436175D01*
X165558928Y-98431651D01*
X165550900Y-98426563D01*
X165543272Y-98420932D01*
X165536031Y-98414782D01*
X165529161Y-98408135D01*
X165522648Y-98401015D01*
X165516479Y-98393444D01*
X165510638Y-98385445D01*
X165505112Y-98377042D01*
X165499885Y-98368256D01*
X165494944Y-98359110D01*
X165485862Y-98339834D01*
X165477751Y-98319394D01*
X165470495Y-98297975D01*
X165463980Y-98275759D01*
X165458091Y-98252929D01*
X165452715Y-98229668D01*
X165428162Y-98108394D01*
X165411072Y-97996677D01*
X165401765Y-97894051D01*
X165400129Y-97846001D01*
X165400559Y-97800050D01*
X165403094Y-97756139D01*
X165407775Y-97714211D01*
X165414640Y-97674206D01*
X165423731Y-97636067D01*
X165435086Y-97599735D01*
X165448747Y-97565153D01*
X165464752Y-97532262D01*
X165483142Y-97501005D01*
X165503957Y-97471323D01*
X165527236Y-97443157D01*
X165553020Y-97416451D01*
X165581348Y-97391145D01*
X165612260Y-97367182D01*
X165645797Y-97344503D01*
X165681998Y-97323050D01*
X165720903Y-97302766D01*
X165762552Y-97283591D01*
X165806985Y-97265469D01*
X165904363Y-97232146D01*
X166013355Y-97202334D01*
X166134282Y-97175566D01*
X166253179Y-97152183D01*
X166380609Y-97128205D01*
X166695200Y-97069733D01*
X166697316Y-97069733D01*
X166542005Y-97517673D01*
G37*
G36*
X170223574Y-87449863D02*
G01*
X170234955Y-87451034D01*
X170246179Y-87453041D01*
X170257243Y-87455933D01*
X170268142Y-87459754D01*
X170278874Y-87464552D01*
X170289433Y-87470373D01*
X170299816Y-87477265D01*
X170310019Y-87485272D01*
X170320039Y-87494442D01*
X170329871Y-87504821D01*
X170339512Y-87516456D01*
X170348957Y-87529393D01*
X170358203Y-87543679D01*
X170367246Y-87559360D01*
X170376082Y-87576483D01*
X170387800Y-87603034D01*
X170397969Y-87631778D01*
X170406612Y-87662552D01*
X170413756Y-87695191D01*
X170423647Y-87765412D01*
X170427841Y-87841134D01*
X170426542Y-87921048D01*
X170419949Y-88003845D01*
X170408266Y-88088217D01*
X170391693Y-88172856D01*
X170370431Y-88256453D01*
X170344684Y-88337700D01*
X170314651Y-88415288D01*
X170280535Y-88487909D01*
X170242536Y-88554254D01*
X170222145Y-88584664D01*
X170200858Y-88613015D01*
X170178701Y-88639143D01*
X170155700Y-88662884D01*
X170131880Y-88684074D01*
X170107266Y-88702551D01*
X169967007Y-88795962D01*
X169824194Y-88886272D01*
X169679050Y-88974349D01*
X169531797Y-89061063D01*
X168926166Y-89411636D01*
X168926166Y-89409518D01*
X168921733Y-89199208D01*
X168923247Y-89007848D01*
X168931496Y-88834000D01*
X168947266Y-88676226D01*
X168971346Y-88533086D01*
X168986749Y-88466555D01*
X169004524Y-88403142D01*
X169024770Y-88342670D01*
X169047586Y-88284956D01*
X169073069Y-88229823D01*
X169101320Y-88177089D01*
X169132435Y-88126575D01*
X169166514Y-88078101D01*
X169203654Y-88031488D01*
X169243955Y-87986555D01*
X169287514Y-87943123D01*
X169334431Y-87901012D01*
X169438729Y-87820033D01*
X169557638Y-87742179D01*
X169691944Y-87666011D01*
X169842435Y-87590092D01*
X170009898Y-87512982D01*
X170063138Y-87489666D01*
X170089159Y-87478939D01*
X170114740Y-87469327D01*
X170139850Y-87461203D01*
X170164457Y-87454940D01*
X170176563Y-87452623D01*
X170188531Y-87450910D01*
X170200358Y-87449848D01*
X170212041Y-87449483D01*
X170223574Y-87449863D01*
G37*
G36*
X168875351Y-91099764D02*
G01*
X168898402Y-91102131D01*
X168922020Y-91105706D01*
X168970753Y-91116083D01*
X169021152Y-91130102D01*
X169072815Y-91146974D01*
X169125344Y-91165908D01*
X169231396Y-91206799D01*
X169336109Y-91246449D01*
X169386964Y-91263833D01*
X169436283Y-91278534D01*
X169465509Y-91286947D01*
X169494471Y-91296235D01*
X169523204Y-91306280D01*
X169551741Y-91316963D01*
X169608366Y-91339775D01*
X169664619Y-91363728D01*
X169720772Y-91387880D01*
X169777099Y-91411287D01*
X169833873Y-91433008D01*
X169862513Y-91442941D01*
X169891367Y-91452100D01*
X169956951Y-91474311D01*
X170018669Y-91498926D01*
X170076374Y-91526016D01*
X170129922Y-91555650D01*
X170155091Y-91571445D01*
X170179166Y-91587902D01*
X170202128Y-91605032D01*
X170223960Y-91622842D01*
X170244644Y-91641343D01*
X170264160Y-91660542D01*
X170282491Y-91680449D01*
X170299619Y-91701072D01*
X170315525Y-91722421D01*
X170330191Y-91744505D01*
X170343599Y-91767332D01*
X170355731Y-91790911D01*
X170366569Y-91815251D01*
X170376093Y-91840362D01*
X170384287Y-91866251D01*
X170391132Y-91892929D01*
X170396609Y-91920403D01*
X170400701Y-91948683D01*
X170403388Y-91977778D01*
X170404654Y-92007697D01*
X170404480Y-92038448D01*
X170402847Y-92070040D01*
X170399738Y-92102483D01*
X170395133Y-92135785D01*
X170397249Y-92135785D01*
X170397059Y-92253555D01*
X170393743Y-92357914D01*
X170386757Y-92449295D01*
X170381716Y-92490253D01*
X170375553Y-92528128D01*
X170368200Y-92562973D01*
X170359587Y-92594844D01*
X170349648Y-92623792D01*
X170338313Y-92649873D01*
X170325515Y-92673140D01*
X170311185Y-92693648D01*
X170295255Y-92711449D01*
X170277657Y-92726598D01*
X170258323Y-92739149D01*
X170237184Y-92749155D01*
X170214173Y-92756671D01*
X170189220Y-92761751D01*
X170162259Y-92764447D01*
X170133220Y-92764815D01*
X170102035Y-92762907D01*
X170068637Y-92758779D01*
X170032956Y-92752483D01*
X169994925Y-92744073D01*
X169911540Y-92721130D01*
X169817936Y-92690379D01*
X169713566Y-92652252D01*
X168708149Y-92267017D01*
X168615545Y-92232952D01*
X168593417Y-92223645D01*
X168572269Y-92213513D01*
X168552386Y-92202303D01*
X168543008Y-92196213D01*
X168534053Y-92189759D01*
X168525557Y-92182908D01*
X168517556Y-92175628D01*
X168510085Y-92167887D01*
X168503180Y-92159655D01*
X168496876Y-92150898D01*
X168491209Y-92141586D01*
X168486216Y-92131686D01*
X168481930Y-92121166D01*
X168478389Y-92109996D01*
X168475628Y-92098142D01*
X168473682Y-92085574D01*
X168472587Y-92072260D01*
X168472379Y-92058167D01*
X168473094Y-92043264D01*
X168474766Y-92027519D01*
X168477432Y-92010901D01*
X168487529Y-91951047D01*
X168495899Y-91891437D01*
X168509282Y-91773536D01*
X168521225Y-91658364D01*
X168535376Y-91547086D01*
X168544419Y-91493272D01*
X168555381Y-91440868D01*
X168568718Y-91390021D01*
X168584886Y-91340876D01*
X168604341Y-91293579D01*
X168627538Y-91248276D01*
X168654933Y-91205112D01*
X168670348Y-91184378D01*
X168686983Y-91164233D01*
X168701622Y-91149092D01*
X168717327Y-91136146D01*
X168734048Y-91125297D01*
X168751735Y-91116447D01*
X168770339Y-91109495D01*
X168789809Y-91104343D01*
X168810095Y-91100893D01*
X168831148Y-91099046D01*
X168852916Y-91098702D01*
X168875351Y-91099764D01*
G37*
G36*
X167455723Y-93339861D02*
G01*
X167466266Y-93340762D01*
X167476326Y-93342307D01*
X167485893Y-93344544D01*
X167494955Y-93347519D01*
X167503502Y-93351279D01*
X167511521Y-93355869D01*
X167519002Y-93361337D01*
X167525933Y-93367729D01*
X167532304Y-93375092D01*
X167538102Y-93383471D01*
X167543318Y-93392914D01*
X167547938Y-93403467D01*
X167551953Y-93415176D01*
X167555351Y-93428089D01*
X167558121Y-93442250D01*
X167560251Y-93457708D01*
X167561730Y-93474509D01*
X167562548Y-93492699D01*
X167562692Y-93512324D01*
X167562152Y-93533431D01*
X167560916Y-93556067D01*
X167550121Y-93710502D01*
X167537658Y-93848374D01*
X167522454Y-93970879D01*
X167503436Y-94079215D01*
X167492162Y-94128443D01*
X167479532Y-94174577D01*
X167465412Y-94217768D01*
X167449668Y-94258164D01*
X167432166Y-94295915D01*
X167412772Y-94331171D01*
X167391352Y-94364082D01*
X167367771Y-94394796D01*
X167341896Y-94423464D01*
X167313592Y-94450236D01*
X167282726Y-94475260D01*
X167249163Y-94498686D01*
X167212769Y-94520665D01*
X167173411Y-94541345D01*
X167130953Y-94560877D01*
X167085262Y-94579409D01*
X166983644Y-94614074D01*
X166867485Y-94646538D01*
X166735711Y-94677998D01*
X166587250Y-94709650D01*
X166060201Y-94817599D01*
X166022696Y-94824636D01*
X165986382Y-94830134D01*
X165951259Y-94834095D01*
X165917326Y-94836517D01*
X165884584Y-94837402D01*
X165853032Y-94836749D01*
X165822671Y-94834558D01*
X165793501Y-94830829D01*
X165765521Y-94825562D01*
X165738732Y-94818757D01*
X165713134Y-94810415D01*
X165688726Y-94800534D01*
X165665509Y-94789116D01*
X165643482Y-94776159D01*
X165622646Y-94761665D01*
X165603001Y-94745633D01*
X165584546Y-94728063D01*
X165567282Y-94708955D01*
X165551209Y-94688309D01*
X165536326Y-94666125D01*
X165522634Y-94642404D01*
X165510132Y-94617144D01*
X165498822Y-94590347D01*
X165488701Y-94562012D01*
X165479772Y-94532139D01*
X165472033Y-94500728D01*
X165465484Y-94467779D01*
X165460126Y-94433292D01*
X165455959Y-94397268D01*
X165452983Y-94359705D01*
X165451197Y-94320605D01*
X165450601Y-94279967D01*
X165450600Y-94279967D01*
X165441720Y-94241980D01*
X165434903Y-94205394D01*
X165430113Y-94170182D01*
X165427316Y-94136319D01*
X165426480Y-94103778D01*
X165427569Y-94072533D01*
X165430549Y-94042559D01*
X165435386Y-94013829D01*
X165442047Y-93986318D01*
X165450497Y-93960000D01*
X165460701Y-93934848D01*
X165472627Y-93910836D01*
X165486239Y-93887940D01*
X165501503Y-93866132D01*
X165518387Y-93845386D01*
X165536854Y-93825678D01*
X165556872Y-93806980D01*
X165578406Y-93789267D01*
X165601422Y-93772513D01*
X165625887Y-93756691D01*
X165651765Y-93741777D01*
X165679022Y-93727744D01*
X165707626Y-93714565D01*
X165737541Y-93702216D01*
X165801169Y-93679901D01*
X165869634Y-93660589D01*
X165942663Y-93644075D01*
X166019983Y-93630150D01*
X166182421Y-93602795D01*
X166344362Y-93572041D01*
X166505907Y-93538658D01*
X166667154Y-93503415D01*
X166989152Y-93430423D01*
X167311150Y-93359216D01*
X167369371Y-93347707D01*
X167396172Y-93343403D01*
X167421316Y-93340563D01*
X167444710Y-93339559D01*
X167455723Y-93339861D01*
G37*
G36*
X170100863Y-78582478D02*
G01*
X170140371Y-78587569D01*
X170179232Y-78595465D01*
X170214742Y-78605357D01*
X170246768Y-78616728D01*
X170275470Y-78629509D01*
X170301011Y-78643628D01*
X170323552Y-78659016D01*
X170343255Y-78675601D01*
X170360281Y-78693313D01*
X170374792Y-78712081D01*
X170386950Y-78731836D01*
X170396916Y-78752506D01*
X170404853Y-78774021D01*
X170410920Y-78796310D01*
X170415281Y-78819303D01*
X170418097Y-78842929D01*
X170419528Y-78867118D01*
X170419738Y-78891799D01*
X170417138Y-78942356D01*
X170411590Y-78994036D01*
X170396819Y-79098505D01*
X170390182Y-79150165D01*
X170385769Y-79200691D01*
X170384800Y-79225352D01*
X170384871Y-79249518D01*
X170386145Y-79273118D01*
X170388783Y-79296081D01*
X170394573Y-79338246D01*
X170399287Y-79380587D01*
X170402991Y-79423084D01*
X170405749Y-79465713D01*
X170408688Y-79551286D01*
X170408626Y-79637131D01*
X170406084Y-79723075D01*
X170401582Y-79808944D01*
X170395641Y-79894565D01*
X170388783Y-79979764D01*
X170372227Y-80121027D01*
X170348016Y-80257580D01*
X170316233Y-80389576D01*
X170276963Y-80517165D01*
X170230288Y-80640501D01*
X170176293Y-80759734D01*
X170115061Y-80875018D01*
X170046676Y-80986503D01*
X169971222Y-81094342D01*
X169888782Y-81198687D01*
X169799440Y-81299689D01*
X169703280Y-81397501D01*
X169600386Y-81492274D01*
X169490840Y-81584161D01*
X169374728Y-81673312D01*
X169252133Y-81759882D01*
X169252133Y-81759885D01*
X169210476Y-81598390D01*
X169178537Y-81438482D01*
X169155366Y-81280063D01*
X169140015Y-81123033D01*
X169131535Y-80967292D01*
X169128977Y-80812742D01*
X169131393Y-80659284D01*
X169137833Y-80506818D01*
X169158991Y-80204465D01*
X169184862Y-79904891D01*
X169207856Y-79607300D01*
X169215902Y-79459001D01*
X169220382Y-79310901D01*
X169222526Y-79271506D01*
X169227685Y-79232358D01*
X169235739Y-79193542D01*
X169246563Y-79155143D01*
X169260038Y-79117246D01*
X169276039Y-79079937D01*
X169294446Y-79043301D01*
X169315136Y-79007423D01*
X169337987Y-78972388D01*
X169362877Y-78938282D01*
X169389684Y-78905189D01*
X169418286Y-78873196D01*
X169448561Y-78842387D01*
X169480386Y-78812848D01*
X169513640Y-78784664D01*
X169548201Y-78757920D01*
X169583946Y-78732702D01*
X169620753Y-78709094D01*
X169658501Y-78687183D01*
X169697066Y-78667052D01*
X169736328Y-78648789D01*
X169776164Y-78632477D01*
X169816451Y-78618202D01*
X169857069Y-78606049D01*
X169897894Y-78596104D01*
X169938805Y-78588452D01*
X169979679Y-78583178D01*
X170020395Y-78580368D01*
X170060831Y-78580106D01*
X170100863Y-78582478D01*
G37*
G36*
X168411815Y-81524933D02*
G01*
X168411736Y-81523132D01*
X168411816Y-81522815D01*
X168411815Y-81524933D01*
G37*
G36*
X167995196Y-80979114D02*
G01*
X168025482Y-80980987D01*
X168054628Y-80984389D01*
X168082632Y-80989321D01*
X168109496Y-80995783D01*
X168135218Y-81003774D01*
X168159799Y-81013295D01*
X168183240Y-81024345D01*
X168205539Y-81036925D01*
X168226698Y-81051035D01*
X168246715Y-81066674D01*
X168265591Y-81083843D01*
X168283327Y-81102541D01*
X168299921Y-81122770D01*
X168315374Y-81144527D01*
X168329686Y-81167815D01*
X168342858Y-81192632D01*
X168354888Y-81218979D01*
X168365777Y-81246855D01*
X168375525Y-81276261D01*
X168384133Y-81307197D01*
X168391599Y-81339662D01*
X168397924Y-81373657D01*
X168403108Y-81409181D01*
X168407152Y-81446235D01*
X168410054Y-81484819D01*
X168411736Y-81523132D01*
X168407272Y-81540849D01*
X168404240Y-81559584D01*
X168402544Y-81578953D01*
X168402010Y-81598887D01*
X168403723Y-81640180D01*
X168407979Y-81682921D01*
X168418513Y-81770577D01*
X168421988Y-81814406D01*
X168422399Y-81857513D01*
X168421018Y-81878626D01*
X168418345Y-81899355D01*
X168414206Y-81919632D01*
X168408426Y-81939389D01*
X168400828Y-81958559D01*
X168391238Y-81977073D01*
X168379481Y-81994864D01*
X168365381Y-82011864D01*
X168348764Y-82028005D01*
X168329454Y-82043220D01*
X168307275Y-82057440D01*
X168282054Y-82070597D01*
X168253614Y-82082625D01*
X168221781Y-82093455D01*
X168186378Y-82103018D01*
X168147232Y-82111249D01*
X167582777Y-82223466D01*
X167019314Y-82343818D01*
X165892983Y-82587500D01*
X165793202Y-82610154D01*
X165767210Y-82615562D01*
X165741215Y-82620204D01*
X165715425Y-82623749D01*
X165690047Y-82625864D01*
X165665289Y-82626217D01*
X165641359Y-82624479D01*
X165629770Y-82622721D01*
X165618465Y-82620315D01*
X165607471Y-82617220D01*
X165596814Y-82613395D01*
X165586520Y-82608798D01*
X165576614Y-82603387D01*
X165567123Y-82597121D01*
X165558073Y-82589959D01*
X165549489Y-82581859D01*
X165541398Y-82572780D01*
X165533826Y-82562679D01*
X165526798Y-82551517D01*
X165512624Y-82526404D01*
X165499832Y-82501077D01*
X165488362Y-82475548D01*
X165478156Y-82449826D01*
X165469156Y-82423921D01*
X165461304Y-82397843D01*
X165448812Y-82345208D01*
X165440214Y-82292003D01*
X165435046Y-82238308D01*
X165432841Y-82184204D01*
X165433136Y-82129771D01*
X165435465Y-82075090D01*
X165439362Y-82020242D01*
X165450004Y-81910366D01*
X165461339Y-81800787D01*
X165466105Y-81746311D01*
X165469649Y-81692151D01*
X165471119Y-81674132D01*
X165473526Y-81656969D01*
X165476836Y-81640637D01*
X165481018Y-81625109D01*
X165486040Y-81610361D01*
X165491871Y-81596367D01*
X165498478Y-81583103D01*
X165505831Y-81570543D01*
X165513896Y-81558662D01*
X165522643Y-81547435D01*
X165532039Y-81536837D01*
X165542054Y-81526842D01*
X165552654Y-81517425D01*
X165563808Y-81508561D01*
X165575485Y-81500225D01*
X165587653Y-81492392D01*
X165600279Y-81485037D01*
X165613333Y-81478133D01*
X165626782Y-81471657D01*
X165640594Y-81465582D01*
X165669183Y-81454539D01*
X165698844Y-81444800D01*
X165729324Y-81436165D01*
X165760368Y-81428433D01*
X165791722Y-81421401D01*
X165823132Y-81414868D01*
X166806324Y-81209021D01*
X167789516Y-81000000D01*
X167826648Y-80992695D01*
X167862640Y-80986920D01*
X167897490Y-80982674D01*
X167931200Y-80979958D01*
X167963768Y-80978771D01*
X167995196Y-80979114D01*
G37*
G36*
X169087177Y-73901570D02*
G01*
X169174962Y-73909837D01*
X169260467Y-73922662D01*
X169343603Y-73939977D01*
X169424281Y-73961713D01*
X169502410Y-73987803D01*
X169577901Y-74018177D01*
X169650663Y-74052768D01*
X169720606Y-74091508D01*
X169787641Y-74134328D01*
X169851678Y-74181161D01*
X169912627Y-74231937D01*
X169970398Y-74286589D01*
X170024900Y-74345048D01*
X170076045Y-74407247D01*
X170123742Y-74473117D01*
X170167901Y-74542590D01*
X170208432Y-74615597D01*
X170245246Y-74692071D01*
X170278252Y-74771943D01*
X170307361Y-74855145D01*
X170332482Y-74941609D01*
X170353526Y-75031266D01*
X170370403Y-75124049D01*
X170383023Y-75219889D01*
X170391296Y-75318718D01*
X170395132Y-75420468D01*
X170396025Y-75555440D01*
X170395925Y-75690609D01*
X170395132Y-75962335D01*
X170397249Y-75962335D01*
X170400953Y-76282746D01*
X170401383Y-76362663D01*
X170400821Y-76442456D01*
X170398870Y-76522099D01*
X170395133Y-76601569D01*
X170381317Y-76752543D01*
X170359021Y-76898340D01*
X170328397Y-77039040D01*
X170289597Y-77174722D01*
X170242772Y-77305469D01*
X170188075Y-77431360D01*
X170125658Y-77552476D01*
X170055672Y-77668898D01*
X169978270Y-77780707D01*
X169893603Y-77887982D01*
X169801823Y-77990805D01*
X169703082Y-78089256D01*
X169597533Y-78183416D01*
X169485326Y-78273365D01*
X169366614Y-78359185D01*
X169241550Y-78440955D01*
X169165019Y-78489439D01*
X169143235Y-78502661D01*
X169121073Y-78515294D01*
X169098874Y-78526823D01*
X169076979Y-78536734D01*
X169055728Y-78544511D01*
X169045451Y-78547439D01*
X169035464Y-78549640D01*
X169025808Y-78551051D01*
X169016526Y-78551607D01*
X169007662Y-78551244D01*
X168999257Y-78549896D01*
X168991355Y-78547501D01*
X168983997Y-78543994D01*
X168977227Y-78539310D01*
X168971087Y-78533384D01*
X168965620Y-78526154D01*
X168960869Y-78517554D01*
X168956876Y-78507519D01*
X168953683Y-78495987D01*
X168937429Y-78429992D01*
X168918605Y-78361731D01*
X168876656Y-78220455D01*
X168834658Y-78076252D01*
X168815771Y-78004333D01*
X168799431Y-77933216D01*
X168786488Y-77863414D01*
X168777797Y-77795439D01*
X168774209Y-77729801D01*
X168774595Y-77698019D01*
X168776577Y-77667013D01*
X168780261Y-77636847D01*
X168785754Y-77607586D01*
X168793163Y-77579292D01*
X168802593Y-77552031D01*
X168814152Y-77525866D01*
X168827946Y-77500861D01*
X168844082Y-77477080D01*
X168862666Y-77454587D01*
X168908002Y-77402022D01*
X168949276Y-77349113D01*
X168986671Y-77295875D01*
X169020366Y-77242324D01*
X169050541Y-77188476D01*
X169077378Y-77134345D01*
X169101057Y-77079948D01*
X169121759Y-77025299D01*
X169139664Y-76970415D01*
X169154953Y-76915311D01*
X169178405Y-76804504D01*
X169193559Y-76693003D01*
X169201862Y-76580931D01*
X169204757Y-76468413D01*
X169203689Y-76355572D01*
X169195446Y-76129419D01*
X169188690Y-75903465D01*
X169189483Y-75790873D01*
X169194982Y-75678702D01*
X169196762Y-75646492D01*
X169197341Y-75614968D01*
X169196721Y-75584160D01*
X169194904Y-75554096D01*
X169191891Y-75524806D01*
X169187685Y-75496318D01*
X169182288Y-75468662D01*
X169175701Y-75441867D01*
X169167926Y-75415962D01*
X169158966Y-75390976D01*
X169148823Y-75366938D01*
X169137497Y-75343877D01*
X169124992Y-75321821D01*
X169111309Y-75300802D01*
X169096450Y-75280846D01*
X169080418Y-75261984D01*
X169063213Y-75244244D01*
X169044838Y-75227656D01*
X169025295Y-75212248D01*
X169004586Y-75198050D01*
X168982712Y-75185090D01*
X168959676Y-75173398D01*
X168935480Y-75163003D01*
X168910125Y-75153934D01*
X168883614Y-75146220D01*
X168855948Y-75139890D01*
X168827130Y-75134973D01*
X168797161Y-75131498D01*
X168766043Y-75129495D01*
X168733778Y-75128991D01*
X168700368Y-75130017D01*
X168665816Y-75132602D01*
X168644876Y-75134414D01*
X168624903Y-75135492D01*
X168605868Y-75135844D01*
X168587747Y-75135480D01*
X168570513Y-75134409D01*
X168554139Y-75132640D01*
X168538599Y-75130183D01*
X168523867Y-75127046D01*
X168509916Y-75123241D01*
X168496720Y-75118774D01*
X168484253Y-75113657D01*
X168472488Y-75107897D01*
X168461399Y-75101506D01*
X168450959Y-75094491D01*
X168441143Y-75086862D01*
X168431924Y-75078628D01*
X168423275Y-75069799D01*
X168415170Y-75060384D01*
X168407584Y-75050393D01*
X168400488Y-75039834D01*
X168393858Y-75028716D01*
X168387666Y-75017051D01*
X168376494Y-74992109D01*
X168366760Y-74965085D01*
X168358254Y-74936051D01*
X168350765Y-74905082D01*
X168344083Y-74872253D01*
X168300426Y-74629632D01*
X168288210Y-74569286D01*
X168274729Y-74509411D01*
X168259610Y-74450181D01*
X168242483Y-74391769D01*
X168235072Y-74367216D01*
X168228714Y-74343549D01*
X168223405Y-74320749D01*
X168219146Y-74298798D01*
X168215932Y-74277676D01*
X168213763Y-74257364D01*
X168212637Y-74237844D01*
X168212552Y-74219096D01*
X168213505Y-74201102D01*
X168215494Y-74183842D01*
X168218519Y-74167298D01*
X168222577Y-74151450D01*
X168227665Y-74136279D01*
X168233783Y-74121767D01*
X168240927Y-74107895D01*
X168249097Y-74094643D01*
X168258290Y-74081992D01*
X168268504Y-74069925D01*
X168279738Y-74058420D01*
X168291988Y-74047460D01*
X168305255Y-74037026D01*
X168319535Y-74027098D01*
X168334826Y-74017658D01*
X168351127Y-74008686D01*
X168368436Y-74000164D01*
X168386750Y-73992072D01*
X168426389Y-73977105D01*
X168470027Y-73963632D01*
X168517649Y-73951501D01*
X168617219Y-73930989D01*
X168715049Y-73915444D01*
X168811050Y-73904798D01*
X168905132Y-73898982D01*
X168997204Y-73897929D01*
X169087177Y-73901570D01*
G37*
G36*
X168219069Y-88729015D02*
G01*
X168206001Y-88900759D01*
X168182420Y-89224576D01*
X168167194Y-89377493D01*
X168157691Y-89451887D01*
X168146536Y-89524977D01*
X168133433Y-89596813D01*
X168118089Y-89667450D01*
X168100208Y-89736940D01*
X168079497Y-89805334D01*
X168068323Y-89835330D01*
X168055118Y-89863480D01*
X168039997Y-89889898D01*
X168023075Y-89914698D01*
X168004465Y-89937995D01*
X167984284Y-89959902D01*
X167962646Y-89980532D01*
X167939665Y-90000001D01*
X167915456Y-90018422D01*
X167890134Y-90035909D01*
X167836610Y-90068536D01*
X167780009Y-90098795D01*
X167721251Y-90127596D01*
X167600932Y-90184473D01*
X167541206Y-90214372D01*
X167482994Y-90246460D01*
X167427212Y-90281649D01*
X167400520Y-90300691D01*
X167374779Y-90320850D01*
X167350105Y-90342240D01*
X167326613Y-90364975D01*
X167304416Y-90389169D01*
X167283630Y-90414935D01*
X167285750Y-90414935D01*
X167527265Y-90535668D01*
X167624054Y-90587223D01*
X167706172Y-90635069D01*
X167742035Y-90658109D01*
X167774598Y-90680832D01*
X167803983Y-90703439D01*
X167830311Y-90726135D01*
X167853707Y-90749123D01*
X167874292Y-90772605D01*
X167892189Y-90796785D01*
X167907520Y-90821865D01*
X167920408Y-90848049D01*
X167930975Y-90875540D01*
X167939343Y-90904541D01*
X167945636Y-90935255D01*
X167949976Y-90967886D01*
X167952484Y-91002635D01*
X167953284Y-91039707D01*
X167952499Y-91079304D01*
X167946659Y-91166887D01*
X167935945Y-91267009D01*
X167903815Y-91511368D01*
X167893298Y-91577799D01*
X167887269Y-91608187D01*
X167880701Y-91636718D01*
X167873577Y-91663415D01*
X167865878Y-91688301D01*
X167857586Y-91711396D01*
X167848683Y-91732724D01*
X167839150Y-91752307D01*
X167828970Y-91770165D01*
X167818123Y-91786323D01*
X167806593Y-91800801D01*
X167794361Y-91813621D01*
X167781408Y-91824807D01*
X167767716Y-91834379D01*
X167753267Y-91842361D01*
X167738044Y-91848774D01*
X167722026Y-91853639D01*
X167705198Y-91856981D01*
X167687539Y-91858819D01*
X167669033Y-91859177D01*
X167649660Y-91858077D01*
X167629403Y-91855540D01*
X167608243Y-91851589D01*
X167586162Y-91846246D01*
X167563142Y-91839533D01*
X167539165Y-91831471D01*
X167514212Y-91822084D01*
X167461307Y-91799421D01*
X167404282Y-91771719D01*
X167240332Y-91689368D01*
X167076339Y-91612283D01*
X166912359Y-91541807D01*
X166748446Y-91479288D01*
X166584658Y-91426070D01*
X166421049Y-91383500D01*
X166257676Y-91352923D01*
X166094594Y-91335685D01*
X166013180Y-91332488D01*
X165931860Y-91333131D01*
X165850641Y-91337781D01*
X165769529Y-91346607D01*
X165688532Y-91359777D01*
X165607656Y-91377459D01*
X165526910Y-91399822D01*
X165446299Y-91427033D01*
X165365830Y-91459260D01*
X165285511Y-91496673D01*
X165205349Y-91539439D01*
X165125350Y-91587726D01*
X165045522Y-91641703D01*
X164965871Y-91701538D01*
X164886405Y-91767398D01*
X164807131Y-91839453D01*
X164802621Y-91843230D01*
X164797841Y-91846650D01*
X164792820Y-91849754D01*
X164787585Y-91852582D01*
X164782163Y-91855174D01*
X164776584Y-91857572D01*
X164770874Y-91859814D01*
X164765062Y-91861941D01*
X164741349Y-91870111D01*
X164735444Y-91872270D01*
X164729604Y-91874555D01*
X164723857Y-91877008D01*
X164718231Y-91879669D01*
X164703468Y-91886213D01*
X164688952Y-91891959D01*
X164674694Y-91896916D01*
X164660705Y-91901092D01*
X164646997Y-91904497D01*
X164633581Y-91907138D01*
X164620468Y-91909023D01*
X164607669Y-91910163D01*
X164595196Y-91910564D01*
X164583059Y-91910236D01*
X164571271Y-91909187D01*
X164559841Y-91907426D01*
X164548783Y-91904961D01*
X164538106Y-91901801D01*
X164527822Y-91897953D01*
X164517942Y-91893428D01*
X164508478Y-91888233D01*
X164499440Y-91882376D01*
X164490841Y-91875867D01*
X164482690Y-91868714D01*
X164475001Y-91860925D01*
X164467782Y-91852509D01*
X164461047Y-91843475D01*
X164454806Y-91833830D01*
X164449070Y-91823584D01*
X164443851Y-91812745D01*
X164439159Y-91801322D01*
X164435007Y-91789322D01*
X164431405Y-91776756D01*
X164428365Y-91763630D01*
X164425898Y-91749954D01*
X164424014Y-91735736D01*
X164408074Y-91586213D01*
X164395705Y-91434904D01*
X164392596Y-91359510D01*
X164392464Y-91284786D01*
X164396002Y-91211103D01*
X164403907Y-91138835D01*
X164416872Y-91068352D01*
X164435591Y-91000027D01*
X164447325Y-90966791D01*
X164460759Y-90934233D01*
X164475979Y-90902401D01*
X164493071Y-90871341D01*
X164512123Y-90841099D01*
X164533222Y-90811723D01*
X164556453Y-90783258D01*
X164581905Y-90755751D01*
X164609663Y-90729249D01*
X164639815Y-90703798D01*
X164672448Y-90679444D01*
X164707648Y-90656235D01*
X165565261Y-90131599D01*
X166436170Y-89611924D01*
X168236131Y-88550153D01*
X168219069Y-88729015D01*
G37*
G36*
X171920422Y-82084559D02*
G01*
X171954953Y-82087852D01*
X171987149Y-82093059D01*
X172017033Y-82100208D01*
X172044632Y-82109326D01*
X172069969Y-82120439D01*
X172093068Y-82133574D01*
X172113954Y-82148758D01*
X172132651Y-82166017D01*
X172149185Y-82185378D01*
X172163578Y-82206869D01*
X172175856Y-82230515D01*
X172186043Y-82256343D01*
X172194164Y-82284381D01*
X172200243Y-82314655D01*
X172204303Y-82347191D01*
X172206371Y-82382016D01*
X172206470Y-82419158D01*
X172204624Y-82458643D01*
X172200858Y-82500497D01*
X172195196Y-82544748D01*
X172178284Y-82640545D01*
X172154083Y-82746249D01*
X172138783Y-82800173D01*
X172120683Y-82851603D01*
X172099811Y-82900528D01*
X172076196Y-82946936D01*
X172049864Y-82990813D01*
X172020844Y-83032148D01*
X171989164Y-83070928D01*
X171954851Y-83107141D01*
X171917934Y-83140774D01*
X171878440Y-83171815D01*
X171836398Y-83200251D01*
X171791835Y-83226071D01*
X171744779Y-83249261D01*
X171695258Y-83269810D01*
X171643300Y-83287704D01*
X171588933Y-83302933D01*
X171206345Y-83401622D01*
X171110202Y-83423752D01*
X171013861Y-83443128D01*
X170917321Y-83458883D01*
X170868977Y-83465131D01*
X170820583Y-83470148D01*
X170787066Y-83473559D01*
X170755155Y-83477840D01*
X170724818Y-83482993D01*
X170696022Y-83489020D01*
X170668736Y-83495923D01*
X170642928Y-83503704D01*
X170618567Y-83512365D01*
X170595621Y-83521907D01*
X170574057Y-83532333D01*
X170553844Y-83543645D01*
X170534951Y-83555844D01*
X170517345Y-83568933D01*
X170500995Y-83582913D01*
X170485869Y-83597786D01*
X170471935Y-83613555D01*
X170459162Y-83630221D01*
X170447517Y-83647786D01*
X170436969Y-83666253D01*
X170427486Y-83685622D01*
X170419036Y-83705896D01*
X170411588Y-83727078D01*
X170405109Y-83749168D01*
X170399569Y-83772169D01*
X170394934Y-83796082D01*
X170391174Y-83820911D01*
X170388257Y-83846656D01*
X170384822Y-83900903D01*
X170384377Y-83958841D01*
X170386666Y-84020483D01*
X170395522Y-84192120D01*
X170401549Y-84364079D01*
X170404898Y-84536285D01*
X170405716Y-84708665D01*
X170404154Y-84881144D01*
X170400358Y-85053648D01*
X170394480Y-85226102D01*
X170386666Y-85398431D01*
X170374349Y-85555805D01*
X170352518Y-85707403D01*
X170321238Y-85853450D01*
X170280568Y-85994174D01*
X170230572Y-86129800D01*
X170171312Y-86260556D01*
X170102849Y-86386666D01*
X170025245Y-86508359D01*
X169938563Y-86625859D01*
X169842865Y-86739394D01*
X169738212Y-86849190D01*
X169624666Y-86955472D01*
X169502290Y-87058468D01*
X169371146Y-87158404D01*
X169231295Y-87255506D01*
X169087256Y-87347164D01*
X169132507Y-86772393D01*
X169167862Y-86205378D01*
X169193890Y-85647442D01*
X169211386Y-85097072D01*
X169221143Y-84552754D01*
X169223954Y-84012975D01*
X169211916Y-82940982D01*
X169212344Y-82895357D01*
X169213482Y-82874006D01*
X169215244Y-82853596D01*
X169217633Y-82834100D01*
X169220655Y-82815493D01*
X169224315Y-82797749D01*
X169228617Y-82780844D01*
X169233568Y-82764751D01*
X169239172Y-82749444D01*
X169245434Y-82734899D01*
X169252360Y-82721089D01*
X169259953Y-82707990D01*
X169268220Y-82695575D01*
X169277164Y-82683818D01*
X169286793Y-82672695D01*
X169297109Y-82662180D01*
X169308119Y-82652247D01*
X169319827Y-82642870D01*
X169332239Y-82634025D01*
X169345359Y-82625685D01*
X169359193Y-82617824D01*
X169373745Y-82610418D01*
X169389021Y-82603440D01*
X169421764Y-82590669D01*
X169457461Y-82579305D01*
X169496154Y-82569144D01*
X169537882Y-82559982D01*
X170043600Y-82455834D01*
X170548326Y-82345933D01*
X171557182Y-82123950D01*
X171662833Y-82103522D01*
X171758460Y-82090004D01*
X171802575Y-82085904D01*
X171844258Y-82083612D01*
X171883532Y-82083155D01*
X171920422Y-82084559D01*
G37*
G36*
X169087032Y-87350000D02*
G01*
X169082800Y-87350000D01*
X169087256Y-87347164D01*
X169087032Y-87350000D01*
G37*
G36*
X167403350Y-74171858D02*
G01*
X167433997Y-74176461D01*
X167462484Y-74184657D01*
X167488949Y-74196505D01*
X167513528Y-74212061D01*
X167536360Y-74231382D01*
X167557580Y-74254527D01*
X167577328Y-74281552D01*
X167595739Y-74312514D01*
X167612950Y-74347472D01*
X167629100Y-74386482D01*
X167644325Y-74429602D01*
X167658763Y-74476890D01*
X167672550Y-74528402D01*
X167698722Y-74644328D01*
X167723939Y-74777842D01*
X167749298Y-74929401D01*
X167756967Y-74983441D01*
X167761634Y-75033010D01*
X167763176Y-75078350D01*
X167762737Y-75099510D01*
X167761469Y-75119703D01*
X167759358Y-75138959D01*
X167756388Y-75157310D01*
X167752544Y-75174784D01*
X167747810Y-75191413D01*
X167742170Y-75207227D01*
X167735610Y-75222255D01*
X167728113Y-75236528D01*
X167719665Y-75250077D01*
X167710249Y-75262930D01*
X167699850Y-75275120D01*
X167688453Y-75286676D01*
X167676042Y-75297627D01*
X167662601Y-75308005D01*
X167648116Y-75317840D01*
X167632570Y-75327161D01*
X167615948Y-75336000D01*
X167598235Y-75344386D01*
X167579415Y-75352349D01*
X167538392Y-75367129D01*
X167492756Y-75380582D01*
X167442381Y-75392950D01*
X167323914Y-75422058D01*
X167217353Y-75452676D01*
X167122103Y-75485471D01*
X167078533Y-75502893D01*
X167037568Y-75521109D01*
X166999133Y-75540202D01*
X166963154Y-75560256D01*
X166929556Y-75581355D01*
X166898265Y-75603580D01*
X166869207Y-75627017D01*
X166842306Y-75651748D01*
X166817489Y-75677856D01*
X166794681Y-75705424D01*
X166773808Y-75734537D01*
X166754795Y-75765278D01*
X166737568Y-75797729D01*
X166722053Y-75831974D01*
X166708175Y-75868097D01*
X166695859Y-75906180D01*
X166685032Y-75946307D01*
X166675619Y-75988562D01*
X166667545Y-76033028D01*
X166660736Y-76079787D01*
X166650615Y-76180522D01*
X166644662Y-76291433D01*
X166642281Y-76413187D01*
X166642281Y-77052420D01*
X166645157Y-77173280D01*
X166652496Y-77282108D01*
X166664740Y-77379270D01*
X166672839Y-77423593D01*
X166682332Y-77465137D01*
X166693272Y-77503951D01*
X166705716Y-77540078D01*
X166719718Y-77573566D01*
X166735335Y-77604461D01*
X166752622Y-77632809D01*
X166771633Y-77658656D01*
X166792425Y-77682048D01*
X166815053Y-77703031D01*
X166839573Y-77721652D01*
X166866039Y-77737956D01*
X166894507Y-77751989D01*
X166925033Y-77763798D01*
X166957672Y-77773429D01*
X166992480Y-77780929D01*
X167029511Y-77786342D01*
X167068822Y-77789715D01*
X167110467Y-77791095D01*
X167154503Y-77790527D01*
X167200984Y-77788057D01*
X167249966Y-77783733D01*
X167355656Y-77769702D01*
X167472014Y-77748804D01*
X167681254Y-77708247D01*
X167765870Y-77694415D01*
X167838627Y-77685898D01*
X167870904Y-77683871D01*
X167900631Y-77683458D01*
X167927946Y-77684755D01*
X167952989Y-77687858D01*
X167975897Y-77692861D01*
X167996808Y-77699860D01*
X168015861Y-77708950D01*
X168033195Y-77720228D01*
X168048947Y-77733787D01*
X168063256Y-77749724D01*
X168076261Y-77768133D01*
X168088100Y-77789111D01*
X168098911Y-77812752D01*
X168108832Y-77839151D01*
X168118002Y-77868405D01*
X168126559Y-77900608D01*
X168142389Y-77974244D01*
X168157429Y-78060822D01*
X168189563Y-78275854D01*
X168197443Y-78337208D01*
X168202598Y-78394413D01*
X168204683Y-78447687D01*
X168203355Y-78497246D01*
X168201303Y-78520700D01*
X168198268Y-78543307D01*
X168194208Y-78565094D01*
X168189080Y-78586088D01*
X168182840Y-78606316D01*
X168175445Y-78625805D01*
X168166853Y-78644583D01*
X168157020Y-78662676D01*
X168145903Y-78680112D01*
X168133460Y-78696918D01*
X168119647Y-78713120D01*
X168104421Y-78728747D01*
X168087740Y-78743825D01*
X168069560Y-78758381D01*
X168049838Y-78772443D01*
X168028532Y-78786037D01*
X168005597Y-78799191D01*
X167980992Y-78811932D01*
X167954673Y-78824287D01*
X167926597Y-78836282D01*
X167865002Y-78859306D01*
X167795863Y-78881219D01*
X167656979Y-78919330D01*
X167521007Y-78951475D01*
X167388079Y-78977605D01*
X167258329Y-78997670D01*
X167131891Y-79011621D01*
X167008898Y-79019407D01*
X166889482Y-79020981D01*
X166773778Y-79016291D01*
X166661919Y-79005288D01*
X166554037Y-78987922D01*
X166450268Y-78964145D01*
X166350742Y-78933906D01*
X166255595Y-78897156D01*
X166164959Y-78853845D01*
X166078968Y-78803923D01*
X165997755Y-78747341D01*
X165921453Y-78684050D01*
X165850196Y-78614000D01*
X165784117Y-78537140D01*
X165723349Y-78453422D01*
X165668025Y-78362796D01*
X165618280Y-78265212D01*
X165574246Y-78160621D01*
X165536057Y-78048973D01*
X165503845Y-77930218D01*
X165477745Y-77804307D01*
X165457889Y-77671191D01*
X165444411Y-77530819D01*
X165437445Y-77383142D01*
X165437123Y-77228111D01*
X165443579Y-77065675D01*
X165456946Y-76895785D01*
X165456949Y-76895782D01*
X165441311Y-76698677D01*
X165437416Y-76505989D01*
X165445494Y-76317971D01*
X165465780Y-76134874D01*
X165498505Y-75956948D01*
X165543902Y-75784446D01*
X165602204Y-75617617D01*
X165673643Y-75456714D01*
X165758452Y-75301987D01*
X165856863Y-75153688D01*
X165969109Y-75012067D01*
X166095422Y-74877376D01*
X166236035Y-74749866D01*
X166391180Y-74629788D01*
X166561091Y-74517393D01*
X166745999Y-74412933D01*
X166884468Y-74341994D01*
X167007713Y-74282676D01*
X167116832Y-74235438D01*
X167166437Y-74216492D01*
X167212922Y-74200738D01*
X167256424Y-74188234D01*
X167297081Y-74179036D01*
X167335030Y-74173203D01*
X167370407Y-74170791D01*
X167403350Y-74171858D01*
G37*
G36*
X168371599Y-82813992D02*
G01*
X168369739Y-82814396D01*
X168369483Y-82813983D01*
X168371599Y-82813992D01*
G37*
G36*
X168378580Y-82828661D02*
G01*
X168386850Y-82843325D01*
X168394332Y-82857972D01*
X168401067Y-82872601D01*
X168412457Y-82901797D01*
X168421341Y-82930896D01*
X168428042Y-82959884D01*
X168432883Y-82988745D01*
X168436186Y-83017463D01*
X168438274Y-83046023D01*
X168440093Y-83102607D01*
X168440919Y-83158372D01*
X168441767Y-83185909D01*
X168443334Y-83213194D01*
X168445942Y-83240213D01*
X168449915Y-83266949D01*
X168464475Y-83362807D01*
X168469252Y-83408256D01*
X168472335Y-83452088D01*
X168473705Y-83494331D01*
X168473342Y-83535013D01*
X168471229Y-83574161D01*
X168467345Y-83611802D01*
X168461673Y-83647964D01*
X168454192Y-83682675D01*
X168444885Y-83715962D01*
X168433731Y-83747852D01*
X168420712Y-83778374D01*
X168405810Y-83807554D01*
X168389004Y-83835420D01*
X168370277Y-83861999D01*
X168349608Y-83887320D01*
X168326980Y-83911410D01*
X168302372Y-83934296D01*
X168275767Y-83956005D01*
X168247144Y-83976566D01*
X168216486Y-83996005D01*
X168183773Y-84014351D01*
X168148986Y-84031630D01*
X168112106Y-84047871D01*
X168073114Y-84063101D01*
X168031991Y-84077347D01*
X167988719Y-84090636D01*
X167895648Y-84114457D01*
X167793750Y-84134784D01*
X167590016Y-84170954D01*
X167411853Y-84205469D01*
X167257545Y-84240443D01*
X167188802Y-84258763D01*
X167125379Y-84277990D01*
X167067063Y-84298389D01*
X167013640Y-84320225D01*
X166964894Y-84343762D01*
X166920612Y-84369263D01*
X166880580Y-84396994D01*
X166844582Y-84427219D01*
X166812405Y-84460201D01*
X166783835Y-84496206D01*
X166758656Y-84535497D01*
X166736656Y-84578339D01*
X166717618Y-84624997D01*
X166701330Y-84675734D01*
X166687577Y-84730815D01*
X166676143Y-84790505D01*
X166666816Y-84855066D01*
X166659381Y-84924765D01*
X166649328Y-85080631D01*
X166644271Y-85260216D01*
X166642282Y-85699002D01*
X166643711Y-85863147D01*
X166648649Y-86008469D01*
X166658077Y-86135789D01*
X166664780Y-86192955D01*
X166672974Y-86245929D01*
X166682780Y-86294813D01*
X166694320Y-86339710D01*
X166707718Y-86380722D01*
X166723096Y-86417953D01*
X166740576Y-86451506D01*
X166760280Y-86481482D01*
X166782332Y-86507985D01*
X166806853Y-86531117D01*
X166833966Y-86550981D01*
X166863794Y-86567680D01*
X166896459Y-86581316D01*
X166932084Y-86591992D01*
X166970790Y-86599811D01*
X167012701Y-86604876D01*
X167057939Y-86607288D01*
X167106626Y-86607152D01*
X167158885Y-86604569D01*
X167214839Y-86599643D01*
X167338318Y-86583170D01*
X167478045Y-86558556D01*
X167634999Y-86526620D01*
X167888573Y-86474377D01*
X167990973Y-86456303D01*
X168078474Y-86444830D01*
X168116956Y-86441859D01*
X168152096Y-86440885D01*
X168184022Y-86442026D01*
X168212861Y-86445396D01*
X168238740Y-86451112D01*
X168261788Y-86459289D01*
X168282131Y-86470044D01*
X168299897Y-86483492D01*
X168315213Y-86499749D01*
X168328207Y-86518931D01*
X168339007Y-86541154D01*
X168347741Y-86566534D01*
X168354534Y-86595186D01*
X168359516Y-86627227D01*
X168362813Y-86662773D01*
X168364554Y-86701939D01*
X168363874Y-86791595D01*
X168358498Y-86897123D01*
X168337732Y-87159503D01*
X168335836Y-87193776D01*
X168335264Y-87228895D01*
X168335450Y-87300296D01*
X168334887Y-87335889D01*
X168333007Y-87370953D01*
X168329148Y-87405141D01*
X168322651Y-87438111D01*
X168318206Y-87454032D01*
X168312854Y-87469519D01*
X168306513Y-87484529D01*
X168299098Y-87499019D01*
X168290529Y-87512947D01*
X168280723Y-87526269D01*
X168269596Y-87538942D01*
X168257067Y-87550923D01*
X168243053Y-87562170D01*
X168227470Y-87572638D01*
X168210238Y-87582286D01*
X168191273Y-87591070D01*
X168170492Y-87598946D01*
X168147813Y-87605873D01*
X168123154Y-87611807D01*
X168096432Y-87616705D01*
X168020816Y-87629199D01*
X167945533Y-87643431D01*
X167795700Y-87675739D01*
X167497151Y-87746085D01*
X167347393Y-87778617D01*
X167272165Y-87793018D01*
X167196618Y-87805716D01*
X167120686Y-87816369D01*
X167044304Y-87824630D01*
X166967408Y-87830157D01*
X166889932Y-87832605D01*
X166813258Y-87831434D01*
X166738058Y-87827158D01*
X166664390Y-87819819D01*
X166592313Y-87809463D01*
X166521888Y-87796133D01*
X166453173Y-87779874D01*
X166386227Y-87760730D01*
X166321111Y-87738745D01*
X166257883Y-87713963D01*
X166196602Y-87686429D01*
X166137329Y-87656186D01*
X166080121Y-87623280D01*
X166025039Y-87587753D01*
X165972142Y-87549650D01*
X165921488Y-87509016D01*
X165873138Y-87465894D01*
X165827151Y-87420329D01*
X165783586Y-87372365D01*
X165742502Y-87322046D01*
X165703958Y-87269416D01*
X165668014Y-87214520D01*
X165634730Y-87157401D01*
X165604163Y-87098104D01*
X165576375Y-87036673D01*
X165551424Y-86973153D01*
X165529369Y-86907587D01*
X165510269Y-86840019D01*
X165494185Y-86770494D01*
X165481174Y-86699056D01*
X165471297Y-86625749D01*
X165464614Y-86550618D01*
X165461182Y-86473706D01*
X165451194Y-85810131D01*
X165451128Y-85146556D01*
X165453443Y-84482981D01*
X165450598Y-83819406D01*
X165451228Y-83768412D01*
X165454741Y-83720919D01*
X165457596Y-83698448D01*
X165461193Y-83676806D01*
X165465539Y-83655979D01*
X165470641Y-83635951D01*
X165476505Y-83616708D01*
X165483139Y-83598234D01*
X165490550Y-83580515D01*
X165498744Y-83563534D01*
X165507729Y-83547278D01*
X165517512Y-83531730D01*
X165528099Y-83516876D01*
X165539498Y-83502701D01*
X165551716Y-83489189D01*
X165564759Y-83476326D01*
X165578634Y-83464096D01*
X165593349Y-83452484D01*
X165608911Y-83441475D01*
X165625326Y-83431054D01*
X165642601Y-83421206D01*
X165660744Y-83411916D01*
X165679761Y-83403168D01*
X165699659Y-83394948D01*
X165742128Y-83380029D01*
X165788206Y-83367039D01*
X165837949Y-83355856D01*
X166474933Y-83224161D01*
X167109536Y-83088099D01*
X168369739Y-82814396D01*
X168378580Y-82828661D01*
G37*
G36*
X169012648Y-93042550D02*
G01*
X169078743Y-93045504D01*
X169143961Y-93051144D01*
X169208240Y-93059430D01*
X169271515Y-93070323D01*
X169333722Y-93083786D01*
X169394798Y-93099778D01*
X169454678Y-93118262D01*
X169513298Y-93139199D01*
X169570595Y-93162549D01*
X169626504Y-93188274D01*
X169680962Y-93216336D01*
X169733904Y-93246695D01*
X169785267Y-93279313D01*
X169834986Y-93314151D01*
X169882999Y-93351170D01*
X169929240Y-93390331D01*
X169973646Y-93431597D01*
X170016153Y-93474927D01*
X170056697Y-93520284D01*
X170095214Y-93567628D01*
X170131639Y-93616921D01*
X170165910Y-93668124D01*
X170197962Y-93721198D01*
X170227732Y-93776104D01*
X170255154Y-93832804D01*
X170280166Y-93891260D01*
X170302703Y-93951431D01*
X170322702Y-94013280D01*
X170340098Y-94076767D01*
X170347947Y-94109058D01*
X170354865Y-94141623D01*
X170360915Y-94174435D01*
X170366160Y-94207471D01*
X170374478Y-94274113D01*
X170380315Y-94341350D01*
X170384168Y-94408984D01*
X170386533Y-94476817D01*
X170388782Y-94612283D01*
X170393246Y-94944071D01*
X170395925Y-95275858D01*
X170395032Y-95607645D01*
X170388782Y-95939432D01*
X170388415Y-95982191D01*
X170389819Y-96021552D01*
X170393177Y-96057490D01*
X170395645Y-96074167D01*
X170398670Y-96089980D01*
X170402275Y-96104924D01*
X170406483Y-96118997D01*
X170411316Y-96132196D01*
X170416798Y-96144517D01*
X170422951Y-96155958D01*
X170429798Y-96166514D01*
X170437362Y-96176185D01*
X170445667Y-96184965D01*
X170454733Y-96192852D01*
X170464586Y-96199844D01*
X170475247Y-96205936D01*
X170486739Y-96211126D01*
X170499085Y-96215410D01*
X170512309Y-96218786D01*
X170526432Y-96221251D01*
X170541479Y-96222800D01*
X170557471Y-96223432D01*
X170574431Y-96223144D01*
X170592383Y-96221931D01*
X170611349Y-96219791D01*
X170631353Y-96216721D01*
X170652416Y-96212717D01*
X170674562Y-96207777D01*
X170697814Y-96201898D01*
X170810812Y-96172442D01*
X170924331Y-96144450D01*
X171038296Y-96117996D01*
X171152633Y-96093154D01*
X171267268Y-96069999D01*
X171382126Y-96048605D01*
X171497133Y-96029047D01*
X171612215Y-96011398D01*
X171638075Y-96008069D01*
X171663646Y-96005628D01*
X171688898Y-96004080D01*
X171713802Y-96003432D01*
X171738330Y-96003691D01*
X171762452Y-96004864D01*
X171786139Y-96006957D01*
X171809362Y-96009976D01*
X171832092Y-96013929D01*
X171854300Y-96018822D01*
X171875957Y-96024661D01*
X171897034Y-96031453D01*
X171917502Y-96039205D01*
X171937331Y-96047923D01*
X171956493Y-96057614D01*
X171974958Y-96068284D01*
X171992698Y-96079940D01*
X172009683Y-96092589D01*
X172025885Y-96106237D01*
X172041274Y-96120891D01*
X172055821Y-96136557D01*
X172069497Y-96153241D01*
X172082273Y-96170952D01*
X172094120Y-96189695D01*
X172105009Y-96209476D01*
X172114911Y-96230302D01*
X172123797Y-96252181D01*
X172131637Y-96275118D01*
X172138403Y-96299120D01*
X172144066Y-96324193D01*
X172148596Y-96350345D01*
X172151965Y-96377582D01*
X172158196Y-96432604D01*
X172165896Y-96489344D01*
X172181664Y-96605719D01*
X172187709Y-96664226D01*
X172191181Y-96722194D01*
X172191636Y-96750799D01*
X172191068Y-96779057D01*
X172189352Y-96806899D01*
X172186360Y-96834253D01*
X172181967Y-96861049D01*
X172176047Y-96887216D01*
X172168472Y-96912684D01*
X172159116Y-96937383D01*
X172147854Y-96961241D01*
X172134559Y-96984188D01*
X172119104Y-97006154D01*
X172101363Y-97027068D01*
X172081210Y-97046860D01*
X172058518Y-97065458D01*
X172033161Y-97082793D01*
X172005013Y-97098795D01*
X171973948Y-97113391D01*
X171939838Y-97126513D01*
X171902558Y-97138089D01*
X171861981Y-97148048D01*
X169267742Y-97701293D01*
X166646515Y-98252949D01*
X166692600Y-98102404D01*
X166744428Y-97958820D01*
X166802134Y-97822311D01*
X166865855Y-97692992D01*
X166935728Y-97570978D01*
X167011888Y-97456384D01*
X167094473Y-97349325D01*
X167183619Y-97249914D01*
X167230695Y-97203113D01*
X167279463Y-97158268D01*
X167329938Y-97115392D01*
X167382140Y-97074500D01*
X167436083Y-97035606D01*
X167491787Y-96998725D01*
X167549266Y-96963871D01*
X167608540Y-96931058D01*
X167669624Y-96900301D01*
X167732537Y-96871614D01*
X167797294Y-96845012D01*
X167863913Y-96820508D01*
X167932411Y-96798117D01*
X168002804Y-96777854D01*
X168149349Y-96743767D01*
X168232593Y-96727197D01*
X168316830Y-96709635D01*
X168485899Y-96673917D01*
X168572533Y-96653023D01*
X168653578Y-96627383D01*
X168692005Y-96612783D01*
X168729034Y-96596997D01*
X168764666Y-96580025D01*
X168798901Y-96561865D01*
X168831738Y-96542520D01*
X168863178Y-96521988D01*
X168893221Y-96500269D01*
X168921866Y-96477364D01*
X168949114Y-96453273D01*
X168974964Y-96427995D01*
X168999418Y-96401530D01*
X169022474Y-96373879D01*
X169044132Y-96345041D01*
X169064394Y-96315017D01*
X169083258Y-96283807D01*
X169100724Y-96251410D01*
X169116794Y-96217827D01*
X169131466Y-96183057D01*
X169144740Y-96147100D01*
X169156618Y-96109957D01*
X169167098Y-96071628D01*
X169176180Y-96032112D01*
X169190154Y-95949521D01*
X169198538Y-95862183D01*
X169201332Y-95770100D01*
X169201332Y-95082184D01*
X169199133Y-94945243D01*
X169192870Y-94822975D01*
X169181850Y-94714820D01*
X169174340Y-94665861D01*
X169165382Y-94620221D01*
X169154889Y-94577831D01*
X169142775Y-94538620D01*
X169128953Y-94502519D01*
X169113338Y-94469458D01*
X169095841Y-94439368D01*
X169076378Y-94412178D01*
X169054862Y-94387819D01*
X169031205Y-94366221D01*
X169005323Y-94347315D01*
X168977127Y-94331030D01*
X168946533Y-94317296D01*
X168913453Y-94306045D01*
X168877802Y-94297206D01*
X168839491Y-94290710D01*
X168798437Y-94286486D01*
X168754550Y-94284465D01*
X168707747Y-94284577D01*
X168657939Y-94286753D01*
X168548965Y-94297016D01*
X168426938Y-94314695D01*
X168291166Y-94339233D01*
X168261714Y-94345087D01*
X168231767Y-94351537D01*
X168168399Y-94366221D01*
X168097094Y-94383287D01*
X168013883Y-94402734D01*
X168007532Y-94400616D01*
X168023587Y-94206113D01*
X168041221Y-94031440D01*
X168061068Y-93875495D01*
X168072020Y-93804200D01*
X168083765Y-93737174D01*
X168096380Y-93674277D01*
X168109946Y-93615372D01*
X168124543Y-93560322D01*
X168140249Y-93508987D01*
X168157144Y-93461231D01*
X168175308Y-93416914D01*
X168194820Y-93375900D01*
X168215759Y-93338050D01*
X168238205Y-93303226D01*
X168262237Y-93271290D01*
X168287935Y-93242105D01*
X168315379Y-93215532D01*
X168344647Y-93191433D01*
X168375819Y-93169670D01*
X168408975Y-93150105D01*
X168444193Y-93132601D01*
X168481555Y-93117020D01*
X168521138Y-93103222D01*
X168563023Y-93091072D01*
X168607288Y-93080429D01*
X168654014Y-93071157D01*
X168703280Y-93063118D01*
X168809748Y-93050185D01*
X168878087Y-93044851D01*
X168945741Y-93042319D01*
X169012648Y-93042550D01*
G37*
G36*
X170143586Y-42034748D02*
G01*
X170148447Y-42035186D01*
X170153198Y-42035869D01*
X170157834Y-42036792D01*
X170162349Y-42037951D01*
X170166737Y-42039341D01*
X170170993Y-42040958D01*
X170175110Y-42042795D01*
X170179083Y-42044850D01*
X170182906Y-42047118D01*
X170186574Y-42049593D01*
X170190080Y-42052271D01*
X170193418Y-42055148D01*
X170196583Y-42058218D01*
X170199569Y-42061478D01*
X170202370Y-42064922D01*
X170204981Y-42068546D01*
X170207395Y-42072345D01*
X170209606Y-42076314D01*
X170211610Y-42080450D01*
X170213400Y-42084746D01*
X170214969Y-42089199D01*
X170216314Y-42093804D01*
X170217427Y-42098557D01*
X170218302Y-42103451D01*
X170218935Y-42108484D01*
X170219319Y-42113650D01*
X170219448Y-42118945D01*
X170219448Y-43596381D01*
X170219313Y-43601743D01*
X170218912Y-43607109D01*
X170218252Y-43612467D01*
X170217340Y-43617809D01*
X170216183Y-43623124D01*
X170214788Y-43628403D01*
X170213162Y-43633637D01*
X170211312Y-43638815D01*
X170209245Y-43643928D01*
X170206968Y-43648966D01*
X170204488Y-43653919D01*
X170201812Y-43658779D01*
X170198947Y-43663534D01*
X170195899Y-43668176D01*
X170192677Y-43672695D01*
X170189286Y-43677080D01*
X170185734Y-43681324D01*
X170182027Y-43685414D01*
X170178174Y-43689343D01*
X170174180Y-43693100D01*
X170170052Y-43696676D01*
X170165799Y-43700060D01*
X170161426Y-43703244D01*
X170156940Y-43706217D01*
X170152350Y-43708970D01*
X170147660Y-43711494D01*
X170142880Y-43713777D01*
X170138014Y-43715812D01*
X170133072Y-43717588D01*
X170128058Y-43719095D01*
X170122982Y-43720324D01*
X170117848Y-43721265D01*
X168807632Y-44000665D01*
X168805512Y-44000659D01*
X167495296Y-44280060D01*
X168166280Y-44714242D01*
X168837263Y-45143658D01*
X170179230Y-46003027D01*
X170183843Y-46005603D01*
X170188159Y-46008553D01*
X170192178Y-46011858D01*
X170195898Y-46015494D01*
X170199321Y-46019440D01*
X170202447Y-46023675D01*
X170205275Y-46028177D01*
X170207805Y-46032924D01*
X170210037Y-46037894D01*
X170211972Y-46043065D01*
X170213609Y-46048417D01*
X170214948Y-46053927D01*
X170215990Y-46059573D01*
X170216734Y-46065333D01*
X170217181Y-46071187D01*
X170217329Y-46077112D01*
X170217329Y-47609576D01*
X170217194Y-47615323D01*
X170216793Y-47621048D01*
X170216133Y-47626743D01*
X170215221Y-47632399D01*
X170214064Y-47638006D01*
X170212669Y-47643557D01*
X170211043Y-47649042D01*
X170209194Y-47654452D01*
X170207127Y-47659779D01*
X170204850Y-47665013D01*
X170202370Y-47670145D01*
X170199693Y-47675167D01*
X170196828Y-47680070D01*
X170193781Y-47684844D01*
X170190558Y-47689482D01*
X170187167Y-47693973D01*
X170183615Y-47698309D01*
X170179909Y-47702481D01*
X170176055Y-47706480D01*
X170172061Y-47710298D01*
X170167934Y-47713925D01*
X170163680Y-47717353D01*
X170159307Y-47720572D01*
X170154822Y-47723573D01*
X170150231Y-47726349D01*
X170145542Y-47728889D01*
X170140761Y-47731184D01*
X170135896Y-47733227D01*
X170130953Y-47735008D01*
X170125940Y-47736518D01*
X170120863Y-47737749D01*
X170115730Y-47738690D01*
X167899579Y-48210705D01*
X165683429Y-48682727D01*
X165678109Y-48683770D01*
X165672870Y-48684521D01*
X165667717Y-48684986D01*
X165662655Y-48685170D01*
X165657691Y-48685080D01*
X165652831Y-48684722D01*
X165648080Y-48684101D01*
X165643444Y-48683222D01*
X165638929Y-48682093D01*
X165634540Y-48680718D01*
X165630285Y-48679104D01*
X165626167Y-48677255D01*
X165622194Y-48675179D01*
X165618371Y-48672881D01*
X165614703Y-48670367D01*
X165611197Y-48667642D01*
X165607859Y-48664713D01*
X165604694Y-48661584D01*
X165601708Y-48658263D01*
X165598907Y-48654755D01*
X165596296Y-48651065D01*
X165593882Y-48647199D01*
X165591670Y-48643164D01*
X165589667Y-48638965D01*
X165587877Y-48634608D01*
X165586307Y-48630099D01*
X165584963Y-48625443D01*
X165583850Y-48620647D01*
X165582974Y-48615715D01*
X165582342Y-48610655D01*
X165581958Y-48605472D01*
X165581828Y-48600171D01*
X165581828Y-47120624D01*
X165581964Y-47115274D01*
X165582365Y-47109943D01*
X165583025Y-47104640D01*
X165583937Y-47099371D01*
X165585094Y-47094144D01*
X165586489Y-47088966D01*
X165588114Y-47083845D01*
X165589964Y-47078788D01*
X165592031Y-47073802D01*
X165594308Y-47068895D01*
X165596788Y-47064073D01*
X165599465Y-47059345D01*
X165602330Y-47054718D01*
X165605377Y-47050199D01*
X165608600Y-47045796D01*
X165611991Y-47041515D01*
X165615543Y-47037365D01*
X165619250Y-47033352D01*
X165623103Y-47029484D01*
X165627097Y-47025769D01*
X165631224Y-47022213D01*
X165635478Y-47018824D01*
X165639851Y-47015610D01*
X165644337Y-47012577D01*
X165648927Y-47009734D01*
X165653617Y-47007087D01*
X165658397Y-47004644D01*
X165663263Y-47002413D01*
X165668205Y-47000400D01*
X165673219Y-46998612D01*
X165678296Y-46997059D01*
X165683429Y-46995746D01*
X166993646Y-46716339D01*
X168303863Y-46436938D01*
X167633673Y-46006463D01*
X166961896Y-45577576D01*
X166290914Y-45147360D01*
X165619931Y-44713977D01*
X165615690Y-44711401D01*
X165611700Y-44708449D01*
X165607964Y-44705144D01*
X165604485Y-44701508D01*
X165601267Y-44697561D01*
X165598313Y-44693326D01*
X165595626Y-44688825D01*
X165593208Y-44684078D01*
X165591063Y-44679108D01*
X165589194Y-44673937D01*
X165587604Y-44668586D01*
X165586296Y-44663077D01*
X165585273Y-44657431D01*
X165584539Y-44651671D01*
X165584096Y-44645817D01*
X165583948Y-44639892D01*
X165583948Y-43107428D01*
X165584083Y-43102078D01*
X165584484Y-43096747D01*
X165585144Y-43091444D01*
X165586056Y-43086175D01*
X165587213Y-43080948D01*
X165588608Y-43075770D01*
X165590234Y-43070649D01*
X165592084Y-43065592D01*
X165594151Y-43060606D01*
X165596428Y-43055699D01*
X165598908Y-43050877D01*
X165601584Y-43046149D01*
X165604449Y-43041522D01*
X165607497Y-43037003D01*
X165610720Y-43032599D01*
X165614110Y-43028319D01*
X165617663Y-43024168D01*
X165621369Y-43020155D01*
X165625223Y-43016287D01*
X165629217Y-43012572D01*
X165633344Y-43009015D01*
X165637598Y-43005626D01*
X165641971Y-43002412D01*
X165646456Y-42999379D01*
X165651047Y-42996535D01*
X165655736Y-42993888D01*
X165660517Y-42991445D01*
X165665382Y-42989213D01*
X165670325Y-42987199D01*
X165675338Y-42985412D01*
X165680415Y-42983857D01*
X165685548Y-42982544D01*
X167901698Y-42510528D01*
X170117848Y-42036395D01*
X170123168Y-42035539D01*
X170128407Y-42034950D01*
X170133561Y-42034626D01*
X170138622Y-42034560D01*
X170143586Y-42034748D01*
G37*
G36*
X170136506Y-48550282D02*
G01*
X170141470Y-48550573D01*
X170146330Y-48551096D01*
X170151081Y-48551849D01*
X170155717Y-48552828D01*
X170160232Y-48554030D01*
X170164620Y-48555453D01*
X170168876Y-48557092D01*
X170172994Y-48558946D01*
X170176967Y-48561010D01*
X170180790Y-48563282D01*
X170184457Y-48565759D01*
X170187963Y-48568437D01*
X170191302Y-48571314D01*
X170194467Y-48574386D01*
X170197453Y-48577650D01*
X170200254Y-48581104D01*
X170202864Y-48584743D01*
X170205278Y-48588566D01*
X170207490Y-48592568D01*
X170209494Y-48596747D01*
X170211283Y-48601100D01*
X170212853Y-48605623D01*
X170214197Y-48610314D01*
X170215310Y-48615168D01*
X170216186Y-48620185D01*
X170216819Y-48625359D01*
X170217203Y-48630688D01*
X170217332Y-48636169D01*
X170217332Y-52717108D01*
X170215780Y-52782971D01*
X170211172Y-52848722D01*
X170203575Y-52914250D01*
X170193056Y-52979443D01*
X170179686Y-53044189D01*
X170163531Y-53108377D01*
X170144660Y-53171896D01*
X170123141Y-53234633D01*
X170099042Y-53296477D01*
X170072432Y-53357316D01*
X170043378Y-53417039D01*
X170011950Y-53475534D01*
X169978214Y-53532689D01*
X169942240Y-53588393D01*
X169904096Y-53642534D01*
X169863849Y-53695001D01*
X169822365Y-53745039D01*
X169778934Y-53793480D01*
X169733643Y-53840216D01*
X169686578Y-53885138D01*
X169637827Y-53928138D01*
X169587475Y-53969107D01*
X169535611Y-54007936D01*
X169482320Y-54044517D01*
X169427689Y-54078742D01*
X169371806Y-54110502D01*
X169314758Y-54139688D01*
X169256630Y-54166193D01*
X169197510Y-54189906D01*
X169137485Y-54210721D01*
X169076641Y-54228528D01*
X169015065Y-54243219D01*
X168458382Y-54362549D01*
X167901698Y-54480286D01*
X167893231Y-54482397D01*
X167336547Y-54600136D01*
X166779865Y-54719464D01*
X166718312Y-54730836D01*
X166657531Y-54738800D01*
X166597601Y-54743422D01*
X166538597Y-54744766D01*
X166480598Y-54742898D01*
X166423681Y-54737882D01*
X166367923Y-54729785D01*
X166313403Y-54718671D01*
X166260198Y-54704604D01*
X166208384Y-54687652D01*
X166158041Y-54667878D01*
X166109244Y-54645348D01*
X166062072Y-54620126D01*
X166016603Y-54592279D01*
X165972913Y-54561871D01*
X165931081Y-54528967D01*
X165891183Y-54493535D01*
X165853298Y-54455561D01*
X165817502Y-54415131D01*
X165783873Y-54372332D01*
X165752490Y-54327251D01*
X165723428Y-54279975D01*
X165696767Y-54230591D01*
X165672583Y-54179185D01*
X165650954Y-54125845D01*
X165631957Y-54070656D01*
X165615670Y-54013707D01*
X165602170Y-53955083D01*
X165591536Y-53894871D01*
X165583844Y-53833159D01*
X165579172Y-53770032D01*
X165577597Y-53705579D01*
X165577597Y-49624646D01*
X165577732Y-49619097D01*
X165578134Y-49613570D01*
X165578794Y-49608072D01*
X165579706Y-49602612D01*
X165580862Y-49597198D01*
X165582257Y-49591840D01*
X165583883Y-49586545D01*
X165585733Y-49581322D01*
X165587800Y-49576179D01*
X165590077Y-49571126D01*
X165592557Y-49566171D01*
X165595233Y-49561321D01*
X165598099Y-49556587D01*
X165601146Y-49551975D01*
X165604369Y-49547496D01*
X165607760Y-49543156D01*
X165611312Y-49538966D01*
X165615018Y-49534933D01*
X165618872Y-49531065D01*
X165622866Y-49527372D01*
X165626993Y-49523862D01*
X165631247Y-49520544D01*
X165635620Y-49517425D01*
X165640105Y-49514515D01*
X165644696Y-49511822D01*
X165649385Y-49509354D01*
X165654166Y-49507120D01*
X165659031Y-49505129D01*
X165663974Y-49503390D01*
X165668987Y-49501909D01*
X165674064Y-49500697D01*
X165679198Y-49499762D01*
X166113114Y-49406893D01*
X166547031Y-49315613D01*
X166552351Y-49314570D01*
X166557590Y-49313820D01*
X166562744Y-49313357D01*
X166567805Y-49313175D01*
X166572769Y-49313269D01*
X166577630Y-49313633D01*
X166582381Y-49314263D01*
X166587017Y-49315152D01*
X166591532Y-49316295D01*
X166595920Y-49317688D01*
X166600176Y-49319323D01*
X166604293Y-49321197D01*
X166608267Y-49323303D01*
X166612090Y-49325636D01*
X166615757Y-49328191D01*
X166619263Y-49330962D01*
X166622601Y-49333943D01*
X166625766Y-49337131D01*
X166628752Y-49340518D01*
X166631554Y-49344100D01*
X166634164Y-49347870D01*
X166636578Y-49351825D01*
X166638790Y-49355958D01*
X166640793Y-49360264D01*
X166642583Y-49364737D01*
X166644153Y-49369372D01*
X166645497Y-49374163D01*
X166646610Y-49379106D01*
X166647486Y-49384195D01*
X166648118Y-49389424D01*
X166648502Y-49394787D01*
X166648631Y-49400281D01*
X166648631Y-52638776D01*
X166649160Y-52659980D01*
X166650729Y-52680715D01*
X166653313Y-52700959D01*
X166656883Y-52720689D01*
X166661415Y-52739883D01*
X166666882Y-52758517D01*
X166673257Y-52776571D01*
X166680514Y-52794020D01*
X166688627Y-52810843D01*
X166697569Y-52827018D01*
X166707315Y-52842521D01*
X166717837Y-52857330D01*
X166729109Y-52871423D01*
X166741106Y-52884777D01*
X166753800Y-52897370D01*
X166767165Y-52909180D01*
X166781176Y-52920183D01*
X166795804Y-52930357D01*
X166811026Y-52939681D01*
X166826813Y-52948131D01*
X166843139Y-52955684D01*
X166859979Y-52962320D01*
X166877305Y-52968014D01*
X166895092Y-52972744D01*
X166913313Y-52976489D01*
X166931941Y-52979225D01*
X166950951Y-52980931D01*
X166970316Y-52981582D01*
X166990010Y-52981158D01*
X167010006Y-52979636D01*
X167030278Y-52976992D01*
X167050800Y-52973205D01*
X167128587Y-52954555D01*
X167206374Y-52936698D01*
X167284161Y-52919634D01*
X167361949Y-52903363D01*
X167361949Y-49669092D01*
X167362085Y-49663729D01*
X167362486Y-49658364D01*
X167363146Y-49653003D01*
X167364058Y-49647657D01*
X167365215Y-49642335D01*
X167366609Y-49637044D01*
X167368235Y-49631794D01*
X167370085Y-49626595D01*
X167372152Y-49621454D01*
X167374429Y-49616381D01*
X167376909Y-49611385D01*
X167379585Y-49606475D01*
X167382451Y-49601659D01*
X167385498Y-49596946D01*
X167388721Y-49592346D01*
X167392112Y-49587868D01*
X167395664Y-49583519D01*
X167399370Y-49579310D01*
X167403224Y-49575248D01*
X167407218Y-49571344D01*
X167411345Y-49567605D01*
X167415599Y-49564042D01*
X167419972Y-49560662D01*
X167424457Y-49557474D01*
X167429048Y-49554488D01*
X167433738Y-49551713D01*
X167438518Y-49549156D01*
X167443384Y-49546829D01*
X167448326Y-49544738D01*
X167453340Y-49542893D01*
X167458416Y-49541304D01*
X167463550Y-49539978D01*
X168331382Y-49357953D01*
X168336702Y-49356916D01*
X168341941Y-49356183D01*
X168347095Y-49355746D01*
X168352156Y-49355600D01*
X168357120Y-49355738D01*
X168361980Y-49356152D01*
X168366731Y-49356837D01*
X168371367Y-49357786D01*
X168375882Y-49358993D01*
X168380271Y-49360450D01*
X168384526Y-49362152D01*
X168388644Y-49364091D01*
X168392617Y-49366261D01*
X168396440Y-49368655D01*
X168400108Y-49371267D01*
X168403613Y-49374090D01*
X168406952Y-49377119D01*
X168410117Y-49380345D01*
X168413103Y-49383762D01*
X168415904Y-49387365D01*
X168418515Y-49391145D01*
X168420929Y-49395098D01*
X168423140Y-49399215D01*
X168425144Y-49403491D01*
X168426933Y-49407919D01*
X168428503Y-49412492D01*
X168429847Y-49417204D01*
X168430960Y-49422048D01*
X168431836Y-49427018D01*
X168432469Y-49432107D01*
X168432853Y-49437308D01*
X168432982Y-49442615D01*
X168432982Y-52676880D01*
X168588557Y-52642753D01*
X168666345Y-52625391D01*
X168744132Y-52607037D01*
X168764840Y-52602144D01*
X168785275Y-52596217D01*
X168805411Y-52589290D01*
X168825223Y-52581396D01*
X168844687Y-52572570D01*
X168863776Y-52562843D01*
X168882467Y-52552250D01*
X168900733Y-52540823D01*
X168935891Y-52515604D01*
X168969049Y-52487451D01*
X169000006Y-52456632D01*
X169028560Y-52423413D01*
X169054509Y-52388061D01*
X169077652Y-52350842D01*
X169097788Y-52312024D01*
X169114714Y-52271872D01*
X169128230Y-52230653D01*
X169133646Y-52209728D01*
X169138134Y-52188635D01*
X169141669Y-52167409D01*
X169144224Y-52146084D01*
X169145776Y-52124691D01*
X169146299Y-52103265D01*
X169146299Y-48864770D01*
X169146434Y-48859222D01*
X169146835Y-48853693D01*
X169147496Y-48848193D01*
X169148407Y-48842728D01*
X169149564Y-48837306D01*
X169150959Y-48831936D01*
X169152585Y-48826625D01*
X169154435Y-48821380D01*
X169156502Y-48816210D01*
X169158779Y-48811122D01*
X169161259Y-48806123D01*
X169163935Y-48801223D01*
X169166801Y-48796428D01*
X169169848Y-48791746D01*
X169173071Y-48787185D01*
X169176462Y-48782752D01*
X169180014Y-48778456D01*
X169183720Y-48774304D01*
X169187574Y-48770304D01*
X169191568Y-48766464D01*
X169195695Y-48762791D01*
X169199949Y-48759294D01*
X169204322Y-48755979D01*
X169208807Y-48752855D01*
X169213398Y-48749929D01*
X169218087Y-48747210D01*
X169222868Y-48744704D01*
X169227733Y-48742420D01*
X169232676Y-48740366D01*
X169237689Y-48738549D01*
X169242766Y-48736976D01*
X169247899Y-48735657D01*
X169681816Y-48645168D01*
X170115732Y-48551507D01*
X170121052Y-48550837D01*
X170126291Y-48550411D01*
X170131444Y-48550227D01*
X170136506Y-48550282D01*
G37*
G36*
X170136506Y-54644168D02*
G01*
X170141470Y-54644459D01*
X170146330Y-54644983D01*
X170151081Y-54645735D01*
X170155717Y-54646715D01*
X170160232Y-54647917D01*
X170164620Y-54649340D01*
X170168876Y-54650979D01*
X170172994Y-54652833D01*
X170176967Y-54654897D01*
X170180790Y-54657169D01*
X170184457Y-54659646D01*
X170187963Y-54662324D01*
X170191302Y-54665201D01*
X170194467Y-54668273D01*
X170197453Y-54671538D01*
X170200254Y-54674991D01*
X170202864Y-54678631D01*
X170205278Y-54682453D01*
X170207490Y-54686456D01*
X170209494Y-54690635D01*
X170211283Y-54694988D01*
X170212853Y-54699511D01*
X170214197Y-54704202D01*
X170215310Y-54709057D01*
X170216186Y-54714074D01*
X170216819Y-54719248D01*
X170217203Y-54724578D01*
X170217332Y-54730060D01*
X170217332Y-58810992D01*
X170215780Y-58876855D01*
X170211172Y-58942606D01*
X170203575Y-59008134D01*
X170193056Y-59073327D01*
X170179686Y-59138074D01*
X170163531Y-59202262D01*
X170144660Y-59265781D01*
X170123141Y-59328518D01*
X170099042Y-59390362D01*
X170072432Y-59451202D01*
X170043378Y-59510925D01*
X170011950Y-59569421D01*
X169978214Y-59626577D01*
X169942240Y-59682282D01*
X169904096Y-59736424D01*
X169863849Y-59788892D01*
X169822365Y-59838929D01*
X169778934Y-59887369D01*
X169733643Y-59934104D01*
X169686578Y-59979026D01*
X169637827Y-60022026D01*
X169587475Y-60062994D01*
X169535611Y-60101823D01*
X169482320Y-60138405D01*
X169427689Y-60172630D01*
X169371806Y-60204389D01*
X169314758Y-60233576D01*
X169256630Y-60260080D01*
X169197510Y-60283793D01*
X169137485Y-60304607D01*
X169076641Y-60322413D01*
X169015065Y-60337103D01*
X168458382Y-60456433D01*
X167901698Y-60574170D01*
X167893231Y-60576282D01*
X167336547Y-60694021D01*
X166779865Y-60813348D01*
X166718312Y-60824720D01*
X166657531Y-60832685D01*
X166597601Y-60837307D01*
X166538597Y-60838651D01*
X166480598Y-60836783D01*
X166423681Y-60831768D01*
X166367923Y-60823671D01*
X166313403Y-60812557D01*
X166260198Y-60798491D01*
X166208384Y-60781539D01*
X166158041Y-60761765D01*
X166109244Y-60739234D01*
X166062072Y-60714013D01*
X166016603Y-60686165D01*
X165972913Y-60655756D01*
X165931081Y-60622851D01*
X165891183Y-60587419D01*
X165853298Y-60549445D01*
X165817502Y-60509015D01*
X165783873Y-60466216D01*
X165752490Y-60421136D01*
X165723428Y-60373860D01*
X165696767Y-60324475D01*
X165672583Y-60273070D01*
X165650954Y-60219729D01*
X165631957Y-60164541D01*
X165615670Y-60107591D01*
X165602170Y-60048967D01*
X165591536Y-59988755D01*
X165583844Y-59927043D01*
X165579172Y-59863916D01*
X165577597Y-59799463D01*
X165577597Y-55718530D01*
X165577732Y-55712982D01*
X165578134Y-55707454D01*
X165578794Y-55701956D01*
X165579706Y-55696496D01*
X165580862Y-55691082D01*
X165582257Y-55685724D01*
X165583883Y-55680429D01*
X165585733Y-55675206D01*
X165587800Y-55670064D01*
X165590077Y-55665010D01*
X165592557Y-55660055D01*
X165595233Y-55655206D01*
X165598099Y-55650471D01*
X165601146Y-55645860D01*
X165604369Y-55641380D01*
X165607760Y-55637041D01*
X165611312Y-55632850D01*
X165615018Y-55628817D01*
X165618872Y-55624950D01*
X165622866Y-55621257D01*
X165626993Y-55617747D01*
X165631247Y-55614428D01*
X165635620Y-55611309D01*
X165640105Y-55608399D01*
X165644696Y-55605706D01*
X165649385Y-55603238D01*
X165654166Y-55601005D01*
X165659031Y-55599014D01*
X165663974Y-55597274D01*
X165668987Y-55595794D01*
X165674064Y-55594582D01*
X165679198Y-55593646D01*
X166113114Y-55500780D01*
X166547031Y-55409497D01*
X166552351Y-55408455D01*
X166557590Y-55407705D01*
X166562744Y-55407241D01*
X166567805Y-55407059D01*
X166572769Y-55407153D01*
X166577630Y-55407518D01*
X166582381Y-55408147D01*
X166587017Y-55409036D01*
X166591532Y-55410180D01*
X166595920Y-55411572D01*
X166600176Y-55413207D01*
X166604293Y-55415081D01*
X166608267Y-55417187D01*
X166612090Y-55419520D01*
X166615757Y-55422075D01*
X166619263Y-55424846D01*
X166622601Y-55427828D01*
X166625766Y-55431015D01*
X166628752Y-55434402D01*
X166631554Y-55437984D01*
X166634164Y-55441755D01*
X166636578Y-55445709D01*
X166638790Y-55449842D01*
X166640793Y-55454148D01*
X166642583Y-55458621D01*
X166644153Y-55463256D01*
X166645497Y-55468048D01*
X166646610Y-55472991D01*
X166647486Y-55478079D01*
X166648118Y-55483308D01*
X166648502Y-55488672D01*
X166648631Y-55494165D01*
X166648631Y-58732660D01*
X166649160Y-58753864D01*
X166650729Y-58774600D01*
X166653313Y-58794843D01*
X166656883Y-58814573D01*
X166661415Y-58833767D01*
X166666882Y-58852402D01*
X166673257Y-58870455D01*
X166680514Y-58887904D01*
X166688627Y-58904728D01*
X166697569Y-58920902D01*
X166707315Y-58936405D01*
X166717837Y-58951214D01*
X166729109Y-58965307D01*
X166741106Y-58978661D01*
X166753800Y-58991255D01*
X166767165Y-59003064D01*
X166781176Y-59014067D01*
X166795804Y-59024242D01*
X166811026Y-59033565D01*
X166826813Y-59042015D01*
X166843139Y-59049569D01*
X166859979Y-59056204D01*
X166877305Y-59061898D01*
X166895092Y-59066629D01*
X166913313Y-59070373D01*
X166931941Y-59073110D01*
X166950951Y-59074815D01*
X166970316Y-59075467D01*
X166990010Y-59075042D01*
X167010006Y-59073520D01*
X167030278Y-59070877D01*
X167050800Y-59067090D01*
X167128587Y-59048439D01*
X167206374Y-59030582D01*
X167284161Y-59013519D01*
X167361949Y-58997247D01*
X167361949Y-55762976D01*
X167362085Y-55757614D01*
X167362486Y-55752248D01*
X167363146Y-55746888D01*
X167364058Y-55741542D01*
X167365215Y-55736219D01*
X167366609Y-55730928D01*
X167368235Y-55725679D01*
X167370085Y-55720479D01*
X167372152Y-55715338D01*
X167374429Y-55710266D01*
X167376909Y-55705270D01*
X167379585Y-55700359D01*
X167382451Y-55695543D01*
X167385498Y-55690831D01*
X167388721Y-55686231D01*
X167392112Y-55681752D01*
X167395664Y-55677403D01*
X167399370Y-55673194D01*
X167403224Y-55669133D01*
X167407218Y-55665228D01*
X167411345Y-55661490D01*
X167415599Y-55657926D01*
X167419972Y-55654546D01*
X167424457Y-55651358D01*
X167429048Y-55648372D01*
X167433738Y-55645597D01*
X167438518Y-55643041D01*
X167443384Y-55640713D01*
X167448326Y-55638622D01*
X167453340Y-55636778D01*
X167458416Y-55635188D01*
X167463550Y-55633862D01*
X168331382Y-55451837D01*
X168336702Y-55450800D01*
X168341941Y-55450067D01*
X168347095Y-55449630D01*
X168352156Y-55449484D01*
X168357120Y-55449622D01*
X168361980Y-55450036D01*
X168366731Y-55450722D01*
X168371367Y-55451671D01*
X168375882Y-55452877D01*
X168380271Y-55454334D01*
X168384526Y-55456036D01*
X168388644Y-55457975D01*
X168392617Y-55460145D01*
X168396440Y-55462539D01*
X168400108Y-55465151D01*
X168403613Y-55467975D01*
X168406952Y-55471003D01*
X168410117Y-55474229D01*
X168413103Y-55477646D01*
X168415904Y-55481249D01*
X168418515Y-55485030D01*
X168420929Y-55488982D01*
X168423140Y-55493099D01*
X168425144Y-55497375D01*
X168426933Y-55501803D01*
X168428503Y-55506377D01*
X168429847Y-55511089D01*
X168430960Y-55515933D01*
X168431836Y-55520902D01*
X168432469Y-55525991D01*
X168432853Y-55531192D01*
X168432982Y-55536499D01*
X168432982Y-58770764D01*
X168588557Y-58736637D01*
X168666345Y-58719275D01*
X168744132Y-58700922D01*
X168764840Y-58696028D01*
X168785275Y-58690101D01*
X168805411Y-58683174D01*
X168825223Y-58675281D01*
X168844687Y-58666454D01*
X168863776Y-58656727D01*
X168882467Y-58646134D01*
X168900733Y-58634708D01*
X168935891Y-58609488D01*
X168969049Y-58581335D01*
X169000006Y-58550516D01*
X169028560Y-58517297D01*
X169054509Y-58481945D01*
X169077652Y-58444726D01*
X169097788Y-58405908D01*
X169114714Y-58365756D01*
X169128230Y-58324538D01*
X169133646Y-58303612D01*
X169138134Y-58282519D01*
X169141669Y-58261294D01*
X169144224Y-58239968D01*
X169145776Y-58218575D01*
X169146299Y-58197150D01*
X169146299Y-54958655D01*
X169146434Y-54953106D01*
X169146835Y-54947578D01*
X169147496Y-54942077D01*
X169148407Y-54936612D01*
X169149564Y-54931191D01*
X169150959Y-54925820D01*
X169152585Y-54920509D01*
X169154435Y-54915264D01*
X169156502Y-54910094D01*
X169158779Y-54905006D01*
X169161259Y-54900008D01*
X169163935Y-54895107D01*
X169166801Y-54890312D01*
X169169848Y-54885630D01*
X169173071Y-54881069D01*
X169176462Y-54876636D01*
X169180014Y-54872340D01*
X169183720Y-54868189D01*
X169187574Y-54864189D01*
X169191568Y-54860348D01*
X169195695Y-54856676D01*
X169199949Y-54853178D01*
X169204322Y-54849863D01*
X169208807Y-54846739D01*
X169213398Y-54843814D01*
X169218087Y-54841094D01*
X169222868Y-54838589D01*
X169227733Y-54836305D01*
X169232676Y-54834250D01*
X169237689Y-54832433D01*
X169242766Y-54830861D01*
X169247899Y-54829541D01*
X169681816Y-54739052D01*
X170115732Y-54645392D01*
X170121052Y-54644722D01*
X170126291Y-54644296D01*
X170131444Y-54644113D01*
X170136506Y-54644168D01*
G37*
G36*
X169318564Y-60844398D02*
G01*
X169375481Y-60849402D01*
X169431239Y-60857517D01*
X169485759Y-60868679D01*
X169538964Y-60882820D01*
X169590778Y-60899875D01*
X169641122Y-60919777D01*
X169689918Y-60942460D01*
X169737090Y-60967858D01*
X169782559Y-60995903D01*
X169826249Y-61026531D01*
X169868082Y-61059675D01*
X169907980Y-61095268D01*
X169945865Y-61133244D01*
X169981661Y-61173537D01*
X170015289Y-61216081D01*
X170046673Y-61260809D01*
X170075734Y-61307656D01*
X170102396Y-61356554D01*
X170126580Y-61407437D01*
X170148209Y-61460240D01*
X170167206Y-61514896D01*
X170183493Y-61571339D01*
X170196992Y-61629502D01*
X170207627Y-61689319D01*
X170215319Y-61750724D01*
X170219991Y-61813651D01*
X170221565Y-61878033D01*
X170221565Y-66024585D01*
X170221430Y-66030518D01*
X170221029Y-66036407D01*
X170220369Y-66042242D01*
X170219457Y-66048017D01*
X170218300Y-66053724D01*
X170216905Y-66059355D01*
X170215279Y-66064902D01*
X170213429Y-66070358D01*
X170211362Y-66075714D01*
X170209085Y-66080964D01*
X170206605Y-66086099D01*
X170203929Y-66091111D01*
X170201064Y-66095993D01*
X170198016Y-66100737D01*
X170194794Y-66105335D01*
X170191403Y-66109780D01*
X170187851Y-66114064D01*
X170184144Y-66118178D01*
X170180291Y-66122116D01*
X170176297Y-66125869D01*
X170172170Y-66129431D01*
X170167916Y-66132792D01*
X170163543Y-66135945D01*
X170159058Y-66138883D01*
X170154467Y-66141598D01*
X170149778Y-66144081D01*
X170144997Y-66146326D01*
X170140132Y-66148325D01*
X170135189Y-66150069D01*
X170130176Y-66151551D01*
X170125099Y-66152764D01*
X170119965Y-66153699D01*
X167903815Y-66625714D01*
X165687665Y-67095618D01*
X165682345Y-67096660D01*
X165677106Y-67097411D01*
X165671952Y-67097875D01*
X165666891Y-67098057D01*
X165661927Y-67097963D01*
X165657067Y-67097599D01*
X165652316Y-67096970D01*
X165647680Y-67096081D01*
X165643164Y-67094938D01*
X165638776Y-67093545D01*
X165634520Y-67091910D01*
X165630403Y-67090036D01*
X165626430Y-67087930D01*
X165622606Y-67085597D01*
X165618939Y-67083042D01*
X165615433Y-67080271D01*
X165612095Y-67077289D01*
X165608930Y-67074102D01*
X165605944Y-67070714D01*
X165603142Y-67067132D01*
X165600532Y-67063361D01*
X165598118Y-67059407D01*
X165595906Y-67055273D01*
X165593903Y-67050968D01*
X165592113Y-67046494D01*
X165590543Y-67041859D01*
X165589199Y-67037067D01*
X165588086Y-67032124D01*
X165587210Y-67027036D01*
X165586577Y-67021807D01*
X165586194Y-67016443D01*
X165586064Y-67010950D01*
X165586064Y-65533520D01*
X165586200Y-65528158D01*
X165586601Y-65522791D01*
X165587261Y-65517430D01*
X165588173Y-65512084D01*
X165589330Y-65506761D01*
X165590724Y-65501470D01*
X165592350Y-65496220D01*
X165594200Y-65491020D01*
X165596267Y-65485879D01*
X165598544Y-65480806D01*
X165601024Y-65475810D01*
X165603700Y-65470899D01*
X165606566Y-65466083D01*
X165609613Y-65461370D01*
X165612836Y-65456770D01*
X165616227Y-65452291D01*
X165619779Y-65447942D01*
X165623485Y-65443733D01*
X165627339Y-65439671D01*
X165631333Y-65435767D01*
X165635460Y-65432028D01*
X165639714Y-65428464D01*
X165644087Y-65425084D01*
X165648572Y-65421897D01*
X165653163Y-65418911D01*
X165657852Y-65416135D01*
X165662633Y-65413579D01*
X165667498Y-65411251D01*
X165672441Y-65409160D01*
X165677455Y-65407316D01*
X165682531Y-65405726D01*
X165687665Y-65404401D01*
X167419100Y-65038220D01*
X167419098Y-65040338D01*
X169150532Y-64669922D01*
X169150532Y-62949072D01*
X169150009Y-62927483D01*
X169148458Y-62906387D01*
X169145903Y-62885805D01*
X169142371Y-62865760D01*
X169137887Y-62846273D01*
X169132477Y-62827366D01*
X169126166Y-62809061D01*
X169118980Y-62791379D01*
X169110945Y-62774341D01*
X169102085Y-62757971D01*
X169092427Y-62742288D01*
X169081997Y-62727316D01*
X169070819Y-62713075D01*
X169058919Y-62699588D01*
X169046323Y-62686876D01*
X169033057Y-62674961D01*
X169019146Y-62663864D01*
X169004615Y-62653608D01*
X168989491Y-62644214D01*
X168973799Y-62635703D01*
X168957564Y-62628098D01*
X168940812Y-62621420D01*
X168923568Y-62615690D01*
X168905859Y-62610931D01*
X168887709Y-62607164D01*
X168869145Y-62604411D01*
X168850191Y-62602694D01*
X168830874Y-62602034D01*
X168811219Y-62602453D01*
X168791252Y-62603972D01*
X168770998Y-62606614D01*
X168750482Y-62610400D01*
X168669520Y-62629054D01*
X168588557Y-62646913D01*
X168507595Y-62663978D01*
X168426632Y-62680249D01*
X168408033Y-62684663D01*
X168389557Y-62689960D01*
X168371231Y-62696132D01*
X168353078Y-62703169D01*
X168335123Y-62711062D01*
X168317392Y-62719801D01*
X168299909Y-62729378D01*
X168282699Y-62739782D01*
X168265786Y-62751005D01*
X168249196Y-62763036D01*
X168232953Y-62775868D01*
X168217082Y-62789490D01*
X168201608Y-62803893D01*
X168186556Y-62819068D01*
X168171950Y-62835006D01*
X168157816Y-62851697D01*
X168142738Y-62869896D01*
X168128476Y-62888737D01*
X168115051Y-62908166D01*
X168102485Y-62928132D01*
X168090799Y-62948581D01*
X168080016Y-62969461D01*
X168070156Y-62990719D01*
X168061243Y-63012303D01*
X168053296Y-63034160D01*
X168046339Y-63056236D01*
X168040393Y-63078480D01*
X168035479Y-63100839D01*
X168031619Y-63123260D01*
X168028836Y-63145690D01*
X168027149Y-63168077D01*
X168026582Y-63190369D01*
X168026582Y-64409564D01*
X168026336Y-64417078D01*
X168025607Y-64424530D01*
X168024406Y-64431907D01*
X168022746Y-64439198D01*
X168020640Y-64446389D01*
X168018099Y-64453469D01*
X168015137Y-64460425D01*
X168011766Y-64467245D01*
X168007998Y-64473915D01*
X168003845Y-64480425D01*
X167999320Y-64486760D01*
X167994436Y-64492910D01*
X167989204Y-64498861D01*
X167983638Y-64504601D01*
X167977748Y-64510118D01*
X167971549Y-64515399D01*
X167965152Y-64519936D01*
X167958672Y-64524018D01*
X167952123Y-64527634D01*
X167945521Y-64530777D01*
X167938882Y-64533435D01*
X167932222Y-64535601D01*
X167925555Y-64537265D01*
X167918898Y-64538417D01*
X167912265Y-64539048D01*
X167905673Y-64539149D01*
X167899136Y-64538711D01*
X167895894Y-64538286D01*
X167892671Y-64537724D01*
X167889470Y-64537021D01*
X167886293Y-64536178D01*
X167883141Y-64535193D01*
X167880016Y-64534066D01*
X167876922Y-64532793D01*
X167873858Y-64531376D01*
X167870828Y-64529812D01*
X167867833Y-64528101D01*
X167307181Y-64236796D01*
X166748116Y-63943903D01*
X166189316Y-63651799D01*
X165630516Y-63353351D01*
X165627974Y-63352489D01*
X165625506Y-63351494D01*
X165623114Y-63350368D01*
X165620797Y-63349116D01*
X165618556Y-63347739D01*
X165616392Y-63346242D01*
X165612293Y-63342897D01*
X165608505Y-63339105D01*
X165605030Y-63334892D01*
X165601871Y-63330282D01*
X165599031Y-63325301D01*
X165596514Y-63319971D01*
X165594323Y-63314320D01*
X165592460Y-63308371D01*
X165590929Y-63302149D01*
X165589732Y-63295680D01*
X165588874Y-63288987D01*
X165588357Y-63282095D01*
X165588184Y-63275030D01*
X165588184Y-61704462D01*
X165588430Y-61696948D01*
X165589159Y-61689496D01*
X165590360Y-61682119D01*
X165592020Y-61674829D01*
X165594126Y-61667638D01*
X165596667Y-61660558D01*
X165599629Y-61653603D01*
X165603000Y-61646784D01*
X165606768Y-61640114D01*
X165610921Y-61633605D01*
X165615446Y-61627270D01*
X165620330Y-61621121D01*
X165625562Y-61615170D01*
X165631129Y-61609430D01*
X165637018Y-61603914D01*
X165643218Y-61598633D01*
X165649987Y-61594465D01*
X165656794Y-61590701D01*
X165663625Y-61587346D01*
X165670469Y-61584407D01*
X165677313Y-61581890D01*
X165684145Y-61579801D01*
X165690951Y-61578146D01*
X165697721Y-61576932D01*
X165704441Y-61576164D01*
X165711099Y-61575849D01*
X165717683Y-61575993D01*
X165724180Y-61576602D01*
X165730577Y-61577682D01*
X165736863Y-61579240D01*
X165743025Y-61581282D01*
X165749051Y-61583813D01*
X167000000Y-62239978D01*
X167030096Y-62131974D01*
X167067729Y-62026518D01*
X167112500Y-61924026D01*
X167164008Y-61824914D01*
X167221854Y-61729597D01*
X167285638Y-61638491D01*
X167354959Y-61552010D01*
X167429418Y-61470571D01*
X167508615Y-61394589D01*
X167592149Y-61324480D01*
X167679622Y-61260658D01*
X167770631Y-61203541D01*
X167864779Y-61153542D01*
X167961665Y-61111078D01*
X168011009Y-61092801D01*
X168060888Y-61076564D01*
X168111251Y-61062418D01*
X168162049Y-61050415D01*
X168590674Y-60960985D01*
X168804986Y-60915279D01*
X169019299Y-60868384D01*
X169080851Y-60856832D01*
X169141631Y-60848724D01*
X169201562Y-60843993D01*
X169260565Y-60842573D01*
X169318564Y-60844398D01*
G37*
G36*
X170143586Y-66958642D02*
G01*
X170148447Y-66959136D01*
X170153198Y-66959883D01*
X170157834Y-66960877D01*
X170162349Y-66962114D01*
X170166737Y-66963586D01*
X170170993Y-66965290D01*
X170175110Y-66967219D01*
X170179083Y-66969368D01*
X170182906Y-66971732D01*
X170186574Y-66974306D01*
X170190080Y-66977083D01*
X170193418Y-66980058D01*
X170196583Y-66983227D01*
X170199569Y-66986583D01*
X170202370Y-66990122D01*
X170204981Y-66993837D01*
X170207395Y-66997723D01*
X170209606Y-67001776D01*
X170211610Y-67005989D01*
X170213400Y-67010357D01*
X170214969Y-67014874D01*
X170216314Y-67019536D01*
X170217427Y-67024337D01*
X170218302Y-67029271D01*
X170218935Y-67034332D01*
X170219319Y-67039517D01*
X170219448Y-67044818D01*
X170219448Y-71271799D01*
X170217874Y-71337194D01*
X170213202Y-71402351D01*
X170205510Y-71467178D01*
X170194875Y-71531588D01*
X170181376Y-71595488D01*
X170165089Y-71658790D01*
X170146092Y-71721404D01*
X170124463Y-71783240D01*
X170100279Y-71844207D01*
X170073618Y-71904216D01*
X170044556Y-71963178D01*
X170013173Y-72021001D01*
X169979544Y-72077597D01*
X169943749Y-72132874D01*
X169905863Y-72186745D01*
X169865965Y-72239117D01*
X169859613Y-72241235D01*
X169817781Y-72292367D01*
X169774091Y-72341723D01*
X169728621Y-72389212D01*
X169681449Y-72434744D01*
X169632653Y-72478231D01*
X169582309Y-72519580D01*
X169530496Y-72558704D01*
X169477290Y-72595512D01*
X169422770Y-72629913D01*
X169367012Y-72661818D01*
X169310095Y-72691138D01*
X169252096Y-72717782D01*
X169193093Y-72741660D01*
X169133162Y-72762682D01*
X169072382Y-72780759D01*
X169010829Y-72795801D01*
X167897463Y-73032867D01*
X167340779Y-73152192D01*
X166784096Y-73269931D01*
X166722543Y-73281627D01*
X166661763Y-73289783D01*
X166601832Y-73294478D01*
X166542828Y-73295794D01*
X166484829Y-73293811D01*
X166427912Y-73288609D01*
X166372154Y-73280269D01*
X166317634Y-73268873D01*
X166264429Y-73254500D01*
X166212615Y-73237230D01*
X166162272Y-73217146D01*
X166113475Y-73194327D01*
X166066304Y-73168854D01*
X166020834Y-73140807D01*
X165977144Y-73110268D01*
X165935312Y-73077316D01*
X165895414Y-73041955D01*
X165857529Y-73004179D01*
X165821733Y-72964053D01*
X165788105Y-72921642D01*
X165756721Y-72877010D01*
X165727660Y-72830224D01*
X165700998Y-72781348D01*
X165676814Y-72730447D01*
X165655185Y-72677587D01*
X165636188Y-72622832D01*
X165619901Y-72566248D01*
X165606402Y-72507900D01*
X165595767Y-72447852D01*
X165588075Y-72386171D01*
X165583403Y-72322920D01*
X165581828Y-72258166D01*
X165581828Y-68035416D01*
X165581964Y-68029855D01*
X165582365Y-68024292D01*
X165583025Y-68018737D01*
X165583937Y-68013199D01*
X165585094Y-68007690D01*
X165586489Y-68002218D01*
X165588114Y-67996794D01*
X165589964Y-67991429D01*
X165592031Y-67986132D01*
X165594308Y-67980913D01*
X165596788Y-67975782D01*
X165599465Y-67970750D01*
X165602330Y-67965826D01*
X165605377Y-67961021D01*
X165608600Y-67956345D01*
X165611991Y-67951807D01*
X165615543Y-67947419D01*
X165619250Y-67943189D01*
X165623103Y-67939128D01*
X165627097Y-67935246D01*
X165631224Y-67931553D01*
X165635478Y-67928060D01*
X165639851Y-67924775D01*
X165644337Y-67921711D01*
X165648927Y-67918875D01*
X165653617Y-67916279D01*
X165658397Y-67913933D01*
X165663263Y-67911846D01*
X165668205Y-67910030D01*
X165673219Y-67908493D01*
X165678296Y-67907246D01*
X165683429Y-67906299D01*
X167008463Y-67624783D01*
X168333497Y-67341150D01*
X168338817Y-67340492D01*
X168344056Y-67340101D01*
X168349209Y-67339975D01*
X168354271Y-67340107D01*
X168359235Y-67340494D01*
X168364095Y-67341130D01*
X168368846Y-67342012D01*
X168373482Y-67343133D01*
X168377997Y-67344491D01*
X168382386Y-67346079D01*
X168386641Y-67347893D01*
X168390759Y-67349930D01*
X168394732Y-67352183D01*
X168398555Y-67354649D01*
X168402222Y-67357322D01*
X168405728Y-67360199D01*
X168409067Y-67363274D01*
X168412232Y-67366543D01*
X168415218Y-67370001D01*
X168418019Y-67373643D01*
X168420629Y-67377466D01*
X168423043Y-67381463D01*
X168425255Y-67385631D01*
X168427259Y-67389965D01*
X168429048Y-67394460D01*
X168430618Y-67399112D01*
X168431962Y-67403916D01*
X168433075Y-67408867D01*
X168433951Y-67413960D01*
X168434584Y-67419192D01*
X168434968Y-67424557D01*
X168435097Y-67430051D01*
X168435097Y-70370099D01*
X168434962Y-70376020D01*
X168434560Y-70381874D01*
X168433900Y-70387655D01*
X168432988Y-70393358D01*
X168431832Y-70398977D01*
X168430437Y-70404507D01*
X168428811Y-70409942D01*
X168426961Y-70415277D01*
X168424894Y-70420507D01*
X168422617Y-70425626D01*
X168420137Y-70430629D01*
X168417461Y-70435510D01*
X168414595Y-70440264D01*
X168411548Y-70444885D01*
X168408325Y-70449368D01*
X168404934Y-70453708D01*
X168401382Y-70457899D01*
X168397676Y-70461936D01*
X168393822Y-70465813D01*
X168389828Y-70469525D01*
X168385701Y-70473067D01*
X168381447Y-70476432D01*
X168377074Y-70479617D01*
X168372589Y-70482614D01*
X168367998Y-70485419D01*
X168363309Y-70488026D01*
X168358528Y-70490431D01*
X168353663Y-70492626D01*
X168348720Y-70494608D01*
X168343707Y-70496371D01*
X168338630Y-70497908D01*
X168333497Y-70499216D01*
X167465663Y-70681250D01*
X167460344Y-70682305D01*
X167455104Y-70683090D01*
X167449951Y-70683608D01*
X167444890Y-70683863D01*
X167439926Y-70683858D01*
X167435066Y-70683595D01*
X167430315Y-70683078D01*
X167425679Y-70682309D01*
X167421164Y-70681293D01*
X167416776Y-70680032D01*
X167412520Y-70678528D01*
X167408402Y-70676787D01*
X167404429Y-70674809D01*
X167400606Y-70672599D01*
X167396939Y-70670159D01*
X167393433Y-70667493D01*
X167390095Y-70664604D01*
X167386929Y-70661495D01*
X167383943Y-70658169D01*
X167381142Y-70654628D01*
X167378532Y-70650877D01*
X167376118Y-70646918D01*
X167373906Y-70642755D01*
X167371902Y-70638390D01*
X167370113Y-70633826D01*
X167368543Y-70629067D01*
X167367199Y-70624116D01*
X167366086Y-70618976D01*
X167365210Y-70613649D01*
X167364577Y-70608140D01*
X167364193Y-70602451D01*
X167364064Y-70596585D01*
X167364064Y-69237686D01*
X167007406Y-69312034D01*
X166650748Y-69387970D01*
X166650748Y-71185022D01*
X166651277Y-71206598D01*
X166652846Y-71227659D01*
X166655429Y-71248184D01*
X166658999Y-71268154D01*
X166663531Y-71287549D01*
X166668998Y-71306348D01*
X166675373Y-71324533D01*
X166682630Y-71342084D01*
X166690743Y-71358980D01*
X166699685Y-71375203D01*
X166709431Y-71390732D01*
X166719953Y-71405547D01*
X166731225Y-71419629D01*
X166743222Y-71432957D01*
X166755916Y-71445513D01*
X166769281Y-71457277D01*
X166783291Y-71468228D01*
X166797920Y-71478347D01*
X166813141Y-71487614D01*
X166828928Y-71496009D01*
X166845254Y-71503513D01*
X166862094Y-71510106D01*
X166879420Y-71515768D01*
X166897207Y-71520479D01*
X166915428Y-71524220D01*
X166934056Y-71526970D01*
X166953066Y-71528710D01*
X166972431Y-71529421D01*
X166992125Y-71529082D01*
X167012121Y-71527674D01*
X167032393Y-71525176D01*
X167052915Y-71521570D01*
X167899582Y-71341653D01*
X168746249Y-71161734D01*
X168766956Y-71156654D01*
X168787391Y-71150564D01*
X168807527Y-71143495D01*
X168827339Y-71135479D01*
X168846803Y-71126546D01*
X168865893Y-71116728D01*
X168884583Y-71106057D01*
X168902849Y-71094564D01*
X168938007Y-71069237D01*
X168971165Y-71040998D01*
X169002122Y-71010100D01*
X169030676Y-70976792D01*
X169056625Y-70941326D01*
X169079769Y-70903953D01*
X169099904Y-70864924D01*
X169116831Y-70824491D01*
X169130347Y-70782904D01*
X169135763Y-70761757D01*
X169140251Y-70740415D01*
X169143785Y-70718911D01*
X169146341Y-70697275D01*
X169147893Y-70675540D01*
X169148415Y-70653735D01*
X169148415Y-67275534D01*
X169148551Y-67269973D01*
X169148952Y-67264410D01*
X169149612Y-67258855D01*
X169150524Y-67253318D01*
X169151681Y-67247808D01*
X169153076Y-67242336D01*
X169154702Y-67236913D01*
X169156551Y-67231547D01*
X169158618Y-67226250D01*
X169160895Y-67221031D01*
X169163375Y-67215901D01*
X169166052Y-67210868D01*
X169168917Y-67205945D01*
X169171964Y-67201140D01*
X169175187Y-67196463D01*
X169178578Y-67191926D01*
X169182130Y-67187537D01*
X169185836Y-67183307D01*
X169189690Y-67179246D01*
X169193684Y-67175364D01*
X169197811Y-67171671D01*
X169202065Y-67168178D01*
X169206438Y-67164894D01*
X169210923Y-67161829D01*
X169215514Y-67158994D01*
X169220203Y-67156398D01*
X169224984Y-67154051D01*
X169229849Y-67151965D01*
X169234792Y-67150148D01*
X169239805Y-67148611D01*
X169244882Y-67147364D01*
X169250015Y-67146417D01*
X170117848Y-66960150D01*
X170123168Y-66959300D01*
X170128407Y-66958729D01*
X170133561Y-66958433D01*
X170138622Y-66958405D01*
X170143586Y-66958642D01*
G37*
D12*
X144988094Y-93334819D02*
X144416666Y-93334819D01*
X144702380Y-94334819D02*
X144702380Y-93334819D01*
X144083332Y-94334819D02*
X144083332Y-93334819D01*
X144083332Y-93334819D02*
X143702380Y-93334819D01*
X143702380Y-93334819D02*
X143607142Y-93382438D01*
X143607142Y-93382438D02*
X143559523Y-93430057D01*
X143559523Y-93430057D02*
X143511904Y-93525295D01*
X143511904Y-93525295D02*
X143511904Y-93668152D01*
X143511904Y-93668152D02*
X143559523Y-93763390D01*
X143559523Y-93763390D02*
X143607142Y-93811009D01*
X143607142Y-93811009D02*
X143702380Y-93858628D01*
X143702380Y-93858628D02*
X144083332Y-93858628D01*
X142559523Y-94334819D02*
X143130951Y-94334819D01*
X142845237Y-94334819D02*
X142845237Y-93334819D01*
X142845237Y-93334819D02*
X142940475Y-93477676D01*
X142940475Y-93477676D02*
X143035713Y-93572914D01*
X143035713Y-93572914D02*
X143130951Y-93620533D01*
X142178570Y-93430057D02*
X142130951Y-93382438D01*
X142130951Y-93382438D02*
X142035713Y-93334819D01*
X142035713Y-93334819D02*
X141797618Y-93334819D01*
X141797618Y-93334819D02*
X141702380Y-93382438D01*
X141702380Y-93382438D02*
X141654761Y-93430057D01*
X141654761Y-93430057D02*
X141607142Y-93525295D01*
X141607142Y-93525295D02*
X141607142Y-93620533D01*
X141607142Y-93620533D02*
X141654761Y-93763390D01*
X141654761Y-93763390D02*
X142226189Y-94334819D01*
X142226189Y-94334819D02*
X141607142Y-94334819D01*
X126861904Y-82774819D02*
X126290476Y-82774819D01*
X126576190Y-83774819D02*
X126576190Y-82774819D01*
X125957142Y-83774819D02*
X125957142Y-82774819D01*
X125957142Y-82774819D02*
X125576190Y-82774819D01*
X125576190Y-82774819D02*
X125480952Y-82822438D01*
X125480952Y-82822438D02*
X125433333Y-82870057D01*
X125433333Y-82870057D02*
X125385714Y-82965295D01*
X125385714Y-82965295D02*
X125385714Y-83108152D01*
X125385714Y-83108152D02*
X125433333Y-83203390D01*
X125433333Y-83203390D02*
X125480952Y-83251009D01*
X125480952Y-83251009D02*
X125576190Y-83298628D01*
X125576190Y-83298628D02*
X125957142Y-83298628D01*
X125052380Y-82774819D02*
X124433333Y-82774819D01*
X124433333Y-82774819D02*
X124766666Y-83155771D01*
X124766666Y-83155771D02*
X124623809Y-83155771D01*
X124623809Y-83155771D02*
X124528571Y-83203390D01*
X124528571Y-83203390D02*
X124480952Y-83251009D01*
X124480952Y-83251009D02*
X124433333Y-83346247D01*
X124433333Y-83346247D02*
X124433333Y-83584342D01*
X124433333Y-83584342D02*
X124480952Y-83679580D01*
X124480952Y-83679580D02*
X124528571Y-83727200D01*
X124528571Y-83727200D02*
X124623809Y-83774819D01*
X124623809Y-83774819D02*
X124909523Y-83774819D01*
X124909523Y-83774819D02*
X125004761Y-83727200D01*
X125004761Y-83727200D02*
X125052380Y-83679580D01*
X105792857Y-80609580D02*
X105840476Y-80657200D01*
X105840476Y-80657200D02*
X105983333Y-80704819D01*
X105983333Y-80704819D02*
X106078571Y-80704819D01*
X106078571Y-80704819D02*
X106221428Y-80657200D01*
X106221428Y-80657200D02*
X106316666Y-80561961D01*
X106316666Y-80561961D02*
X106364285Y-80466723D01*
X106364285Y-80466723D02*
X106411904Y-80276247D01*
X106411904Y-80276247D02*
X106411904Y-80133390D01*
X106411904Y-80133390D02*
X106364285Y-79942914D01*
X106364285Y-79942914D02*
X106316666Y-79847676D01*
X106316666Y-79847676D02*
X106221428Y-79752438D01*
X106221428Y-79752438D02*
X106078571Y-79704819D01*
X106078571Y-79704819D02*
X105983333Y-79704819D01*
X105983333Y-79704819D02*
X105840476Y-79752438D01*
X105840476Y-79752438D02*
X105792857Y-79800057D01*
X104840476Y-80704819D02*
X105411904Y-80704819D01*
X105126190Y-80704819D02*
X105126190Y-79704819D01*
X105126190Y-79704819D02*
X105221428Y-79847676D01*
X105221428Y-79847676D02*
X105316666Y-79942914D01*
X105316666Y-79942914D02*
X105411904Y-79990533D01*
X104364285Y-80704819D02*
X104173809Y-80704819D01*
X104173809Y-80704819D02*
X104078571Y-80657200D01*
X104078571Y-80657200D02*
X104030952Y-80609580D01*
X104030952Y-80609580D02*
X103935714Y-80466723D01*
X103935714Y-80466723D02*
X103888095Y-80276247D01*
X103888095Y-80276247D02*
X103888095Y-79895295D01*
X103888095Y-79895295D02*
X103935714Y-79800057D01*
X103935714Y-79800057D02*
X103983333Y-79752438D01*
X103983333Y-79752438D02*
X104078571Y-79704819D01*
X104078571Y-79704819D02*
X104269047Y-79704819D01*
X104269047Y-79704819D02*
X104364285Y-79752438D01*
X104364285Y-79752438D02*
X104411904Y-79800057D01*
X104411904Y-79800057D02*
X104459523Y-79895295D01*
X104459523Y-79895295D02*
X104459523Y-80133390D01*
X104459523Y-80133390D02*
X104411904Y-80228628D01*
X104411904Y-80228628D02*
X104364285Y-80276247D01*
X104364285Y-80276247D02*
X104269047Y-80323866D01*
X104269047Y-80323866D02*
X104078571Y-80323866D01*
X104078571Y-80323866D02*
X103983333Y-80276247D01*
X103983333Y-80276247D02*
X103935714Y-80228628D01*
X103935714Y-80228628D02*
X103888095Y-80133390D01*
X161511904Y-20154819D02*
X161511904Y-20964342D01*
X161511904Y-20964342D02*
X161464285Y-21059580D01*
X161464285Y-21059580D02*
X161416666Y-21107200D01*
X161416666Y-21107200D02*
X161321428Y-21154819D01*
X161321428Y-21154819D02*
X161130952Y-21154819D01*
X161130952Y-21154819D02*
X161035714Y-21107200D01*
X161035714Y-21107200D02*
X160988095Y-21059580D01*
X160988095Y-21059580D02*
X160940476Y-20964342D01*
X160940476Y-20964342D02*
X160940476Y-20154819D01*
X159940476Y-21154819D02*
X160511904Y-21154819D01*
X160226190Y-21154819D02*
X160226190Y-20154819D01*
X160226190Y-20154819D02*
X160321428Y-20297676D01*
X160321428Y-20297676D02*
X160416666Y-20392914D01*
X160416666Y-20392914D02*
X160511904Y-20440533D01*
D13*
X170659080Y-24326667D02*
X170659080Y-23903333D01*
X171324318Y-23903333D02*
X170054318Y-23903333D01*
X170054318Y-23903333D02*
X170054318Y-24508095D01*
X171324318Y-25657143D02*
X171324318Y-24931428D01*
X171324318Y-25294285D02*
X170054318Y-25294285D01*
X170054318Y-25294285D02*
X170235746Y-25173333D01*
X170235746Y-25173333D02*
X170356699Y-25052381D01*
X170356699Y-25052381D02*
X170417175Y-24931428D01*
D12*
X194179819Y-33416666D02*
X194894104Y-33416666D01*
X194894104Y-33416666D02*
X195036961Y-33369047D01*
X195036961Y-33369047D02*
X195132200Y-33273809D01*
X195132200Y-33273809D02*
X195179819Y-33130952D01*
X195179819Y-33130952D02*
X195179819Y-33035714D01*
X195179819Y-34416666D02*
X195179819Y-33845238D01*
X195179819Y-34130952D02*
X194179819Y-34130952D01*
X194179819Y-34130952D02*
X194322676Y-34035714D01*
X194322676Y-34035714D02*
X194417914Y-33940476D01*
X194417914Y-33940476D02*
X194465533Y-33845238D01*
X140538094Y-93284819D02*
X139966666Y-93284819D01*
X140252380Y-94284819D02*
X140252380Y-93284819D01*
X139633332Y-94284819D02*
X139633332Y-93284819D01*
X139633332Y-93284819D02*
X139252380Y-93284819D01*
X139252380Y-93284819D02*
X139157142Y-93332438D01*
X139157142Y-93332438D02*
X139109523Y-93380057D01*
X139109523Y-93380057D02*
X139061904Y-93475295D01*
X139061904Y-93475295D02*
X139061904Y-93618152D01*
X139061904Y-93618152D02*
X139109523Y-93713390D01*
X139109523Y-93713390D02*
X139157142Y-93761009D01*
X139157142Y-93761009D02*
X139252380Y-93808628D01*
X139252380Y-93808628D02*
X139633332Y-93808628D01*
X138109523Y-94284819D02*
X138680951Y-94284819D01*
X138395237Y-94284819D02*
X138395237Y-93284819D01*
X138395237Y-93284819D02*
X138490475Y-93427676D01*
X138490475Y-93427676D02*
X138585713Y-93522914D01*
X138585713Y-93522914D02*
X138680951Y-93570533D01*
X137776189Y-93284819D02*
X137157142Y-93284819D01*
X137157142Y-93284819D02*
X137490475Y-93665771D01*
X137490475Y-93665771D02*
X137347618Y-93665771D01*
X137347618Y-93665771D02*
X137252380Y-93713390D01*
X137252380Y-93713390D02*
X137204761Y-93761009D01*
X137204761Y-93761009D02*
X137157142Y-93856247D01*
X137157142Y-93856247D02*
X137157142Y-94094342D01*
X137157142Y-94094342D02*
X137204761Y-94189580D01*
X137204761Y-94189580D02*
X137252380Y-94237200D01*
X137252380Y-94237200D02*
X137347618Y-94284819D01*
X137347618Y-94284819D02*
X137633332Y-94284819D01*
X137633332Y-94284819D02*
X137728570Y-94237200D01*
X137728570Y-94237200D02*
X137776189Y-94189580D01*
X117336904Y-53349819D02*
X116765476Y-53349819D01*
X117051190Y-54349819D02*
X117051190Y-53349819D01*
X116432142Y-54349819D02*
X116432142Y-53349819D01*
X116432142Y-53349819D02*
X116051190Y-53349819D01*
X116051190Y-53349819D02*
X115955952Y-53397438D01*
X115955952Y-53397438D02*
X115908333Y-53445057D01*
X115908333Y-53445057D02*
X115860714Y-53540295D01*
X115860714Y-53540295D02*
X115860714Y-53683152D01*
X115860714Y-53683152D02*
X115908333Y-53778390D01*
X115908333Y-53778390D02*
X115955952Y-53826009D01*
X115955952Y-53826009D02*
X116051190Y-53873628D01*
X116051190Y-53873628D02*
X116432142Y-53873628D01*
X115289285Y-53778390D02*
X115384523Y-53730771D01*
X115384523Y-53730771D02*
X115432142Y-53683152D01*
X115432142Y-53683152D02*
X115479761Y-53587914D01*
X115479761Y-53587914D02*
X115479761Y-53540295D01*
X115479761Y-53540295D02*
X115432142Y-53445057D01*
X115432142Y-53445057D02*
X115384523Y-53397438D01*
X115384523Y-53397438D02*
X115289285Y-53349819D01*
X115289285Y-53349819D02*
X115098809Y-53349819D01*
X115098809Y-53349819D02*
X115003571Y-53397438D01*
X115003571Y-53397438D02*
X114955952Y-53445057D01*
X114955952Y-53445057D02*
X114908333Y-53540295D01*
X114908333Y-53540295D02*
X114908333Y-53587914D01*
X114908333Y-53587914D02*
X114955952Y-53683152D01*
X114955952Y-53683152D02*
X115003571Y-53730771D01*
X115003571Y-53730771D02*
X115098809Y-53778390D01*
X115098809Y-53778390D02*
X115289285Y-53778390D01*
X115289285Y-53778390D02*
X115384523Y-53826009D01*
X115384523Y-53826009D02*
X115432142Y-53873628D01*
X115432142Y-53873628D02*
X115479761Y-53968866D01*
X115479761Y-53968866D02*
X115479761Y-54159342D01*
X115479761Y-54159342D02*
X115432142Y-54254580D01*
X115432142Y-54254580D02*
X115384523Y-54302200D01*
X115384523Y-54302200D02*
X115289285Y-54349819D01*
X115289285Y-54349819D02*
X115098809Y-54349819D01*
X115098809Y-54349819D02*
X115003571Y-54302200D01*
X115003571Y-54302200D02*
X114955952Y-54254580D01*
X114955952Y-54254580D02*
X114908333Y-54159342D01*
X114908333Y-54159342D02*
X114908333Y-53968866D01*
X114908333Y-53968866D02*
X114955952Y-53873628D01*
X114955952Y-53873628D02*
X115003571Y-53826009D01*
X115003571Y-53826009D02*
X115098809Y-53778390D01*
D13*
X90806190Y-85961461D02*
X90201428Y-85961461D01*
X90927142Y-86324318D02*
X90503809Y-85054318D01*
X90503809Y-85054318D02*
X90080475Y-86324318D01*
X89657143Y-86324318D02*
X89657143Y-85054318D01*
X89657143Y-85054318D02*
X88931428Y-86324318D01*
X88931428Y-86324318D02*
X88931428Y-85054318D01*
X88508095Y-85054318D02*
X87782381Y-85054318D01*
X88145238Y-86324318D02*
X88145238Y-85054318D01*
X86693809Y-86324318D02*
X87419524Y-86324318D01*
X87056667Y-86324318D02*
X87056667Y-85054318D01*
X87056667Y-85054318D02*
X87177619Y-85235746D01*
X87177619Y-85235746D02*
X87298571Y-85356699D01*
X87298571Y-85356699D02*
X87419524Y-85417175D01*
D12*
X112479523Y-94829819D02*
X112479523Y-95544104D01*
X112479523Y-95544104D02*
X112527142Y-95686961D01*
X112527142Y-95686961D02*
X112622380Y-95782200D01*
X112622380Y-95782200D02*
X112765237Y-95829819D01*
X112765237Y-95829819D02*
X112860475Y-95829819D01*
X111479523Y-95829819D02*
X112050951Y-95829819D01*
X111765237Y-95829819D02*
X111765237Y-94829819D01*
X111765237Y-94829819D02*
X111860475Y-94972676D01*
X111860475Y-94972676D02*
X111955713Y-95067914D01*
X111955713Y-95067914D02*
X112050951Y-95115533D01*
X111146189Y-94829819D02*
X110527142Y-94829819D01*
X110527142Y-94829819D02*
X110860475Y-95210771D01*
X110860475Y-95210771D02*
X110717618Y-95210771D01*
X110717618Y-95210771D02*
X110622380Y-95258390D01*
X110622380Y-95258390D02*
X110574761Y-95306009D01*
X110574761Y-95306009D02*
X110527142Y-95401247D01*
X110527142Y-95401247D02*
X110527142Y-95639342D01*
X110527142Y-95639342D02*
X110574761Y-95734580D01*
X110574761Y-95734580D02*
X110622380Y-95782200D01*
X110622380Y-95782200D02*
X110717618Y-95829819D01*
X110717618Y-95829819D02*
X111003332Y-95829819D01*
X111003332Y-95829819D02*
X111098570Y-95782200D01*
X111098570Y-95782200D02*
X111146189Y-95734580D01*
D13*
X144811666Y-26124318D02*
X145416428Y-26124318D01*
X145416428Y-26124318D02*
X145416428Y-24854318D01*
X143723094Y-26124318D02*
X144448809Y-26124318D01*
X144085952Y-26124318D02*
X144085952Y-24854318D01*
X144085952Y-24854318D02*
X144206904Y-25035746D01*
X144206904Y-25035746D02*
X144327856Y-25156699D01*
X144327856Y-25156699D02*
X144448809Y-25217175D01*
D12*
X102361904Y-85174819D02*
X101790476Y-85174819D01*
X102076190Y-86174819D02*
X102076190Y-85174819D01*
X101457142Y-86174819D02*
X101457142Y-85174819D01*
X101457142Y-85174819D02*
X101076190Y-85174819D01*
X101076190Y-85174819D02*
X100980952Y-85222438D01*
X100980952Y-85222438D02*
X100933333Y-85270057D01*
X100933333Y-85270057D02*
X100885714Y-85365295D01*
X100885714Y-85365295D02*
X100885714Y-85508152D01*
X100885714Y-85508152D02*
X100933333Y-85603390D01*
X100933333Y-85603390D02*
X100980952Y-85651009D01*
X100980952Y-85651009D02*
X101076190Y-85698628D01*
X101076190Y-85698628D02*
X101457142Y-85698628D01*
X100552380Y-85174819D02*
X99933333Y-85174819D01*
X99933333Y-85174819D02*
X100266666Y-85555771D01*
X100266666Y-85555771D02*
X100123809Y-85555771D01*
X100123809Y-85555771D02*
X100028571Y-85603390D01*
X100028571Y-85603390D02*
X99980952Y-85651009D01*
X99980952Y-85651009D02*
X99933333Y-85746247D01*
X99933333Y-85746247D02*
X99933333Y-85984342D01*
X99933333Y-85984342D02*
X99980952Y-86079580D01*
X99980952Y-86079580D02*
X100028571Y-86127200D01*
X100028571Y-86127200D02*
X100123809Y-86174819D01*
X100123809Y-86174819D02*
X100409523Y-86174819D01*
X100409523Y-86174819D02*
X100504761Y-86127200D01*
X100504761Y-86127200D02*
X100552380Y-86079580D01*
X114338094Y-116024819D02*
X113766666Y-116024819D01*
X114052380Y-117024819D02*
X114052380Y-116024819D01*
X113433332Y-117024819D02*
X113433332Y-116024819D01*
X113433332Y-116024819D02*
X113052380Y-116024819D01*
X113052380Y-116024819D02*
X112957142Y-116072438D01*
X112957142Y-116072438D02*
X112909523Y-116120057D01*
X112909523Y-116120057D02*
X112861904Y-116215295D01*
X112861904Y-116215295D02*
X112861904Y-116358152D01*
X112861904Y-116358152D02*
X112909523Y-116453390D01*
X112909523Y-116453390D02*
X112957142Y-116501009D01*
X112957142Y-116501009D02*
X113052380Y-116548628D01*
X113052380Y-116548628D02*
X113433332Y-116548628D01*
X111909523Y-117024819D02*
X112480951Y-117024819D01*
X112195237Y-117024819D02*
X112195237Y-116024819D01*
X112195237Y-116024819D02*
X112290475Y-116167676D01*
X112290475Y-116167676D02*
X112385713Y-116262914D01*
X112385713Y-116262914D02*
X112480951Y-116310533D01*
X111290475Y-116024819D02*
X111195237Y-116024819D01*
X111195237Y-116024819D02*
X111099999Y-116072438D01*
X111099999Y-116072438D02*
X111052380Y-116120057D01*
X111052380Y-116120057D02*
X111004761Y-116215295D01*
X111004761Y-116215295D02*
X110957142Y-116405771D01*
X110957142Y-116405771D02*
X110957142Y-116643866D01*
X110957142Y-116643866D02*
X111004761Y-116834342D01*
X111004761Y-116834342D02*
X111052380Y-116929580D01*
X111052380Y-116929580D02*
X111099999Y-116977200D01*
X111099999Y-116977200D02*
X111195237Y-117024819D01*
X111195237Y-117024819D02*
X111290475Y-117024819D01*
X111290475Y-117024819D02*
X111385713Y-116977200D01*
X111385713Y-116977200D02*
X111433332Y-116929580D01*
X111433332Y-116929580D02*
X111480951Y-116834342D01*
X111480951Y-116834342D02*
X111528570Y-116643866D01*
X111528570Y-116643866D02*
X111528570Y-116405771D01*
X111528570Y-116405771D02*
X111480951Y-116215295D01*
X111480951Y-116215295D02*
X111433332Y-116120057D01*
X111433332Y-116120057D02*
X111385713Y-116072438D01*
X111385713Y-116072438D02*
X111290475Y-116024819D01*
X120661904Y-25704819D02*
X120661904Y-26514342D01*
X120661904Y-26514342D02*
X120614285Y-26609580D01*
X120614285Y-26609580D02*
X120566666Y-26657200D01*
X120566666Y-26657200D02*
X120471428Y-26704819D01*
X120471428Y-26704819D02*
X120280952Y-26704819D01*
X120280952Y-26704819D02*
X120185714Y-26657200D01*
X120185714Y-26657200D02*
X120138095Y-26609580D01*
X120138095Y-26609580D02*
X120090476Y-26514342D01*
X120090476Y-26514342D02*
X120090476Y-25704819D01*
X119185714Y-26038152D02*
X119185714Y-26704819D01*
X119423809Y-25657200D02*
X119661904Y-26371485D01*
X119661904Y-26371485D02*
X119042857Y-26371485D01*
X100209580Y-81857142D02*
X100257200Y-81809523D01*
X100257200Y-81809523D02*
X100304819Y-81666666D01*
X100304819Y-81666666D02*
X100304819Y-81571428D01*
X100304819Y-81571428D02*
X100257200Y-81428571D01*
X100257200Y-81428571D02*
X100161961Y-81333333D01*
X100161961Y-81333333D02*
X100066723Y-81285714D01*
X100066723Y-81285714D02*
X99876247Y-81238095D01*
X99876247Y-81238095D02*
X99733390Y-81238095D01*
X99733390Y-81238095D02*
X99542914Y-81285714D01*
X99542914Y-81285714D02*
X99447676Y-81333333D01*
X99447676Y-81333333D02*
X99352438Y-81428571D01*
X99352438Y-81428571D02*
X99304819Y-81571428D01*
X99304819Y-81571428D02*
X99304819Y-81666666D01*
X99304819Y-81666666D02*
X99352438Y-81809523D01*
X99352438Y-81809523D02*
X99400057Y-81857142D01*
X99400057Y-82238095D02*
X99352438Y-82285714D01*
X99352438Y-82285714D02*
X99304819Y-82380952D01*
X99304819Y-82380952D02*
X99304819Y-82619047D01*
X99304819Y-82619047D02*
X99352438Y-82714285D01*
X99352438Y-82714285D02*
X99400057Y-82761904D01*
X99400057Y-82761904D02*
X99495295Y-82809523D01*
X99495295Y-82809523D02*
X99590533Y-82809523D01*
X99590533Y-82809523D02*
X99733390Y-82761904D01*
X99733390Y-82761904D02*
X100304819Y-82190476D01*
X100304819Y-82190476D02*
X100304819Y-82809523D01*
X99400057Y-83190476D02*
X99352438Y-83238095D01*
X99352438Y-83238095D02*
X99304819Y-83333333D01*
X99304819Y-83333333D02*
X99304819Y-83571428D01*
X99304819Y-83571428D02*
X99352438Y-83666666D01*
X99352438Y-83666666D02*
X99400057Y-83714285D01*
X99400057Y-83714285D02*
X99495295Y-83761904D01*
X99495295Y-83761904D02*
X99590533Y-83761904D01*
X99590533Y-83761904D02*
X99733390Y-83714285D01*
X99733390Y-83714285D02*
X100304819Y-83142857D01*
X100304819Y-83142857D02*
X100304819Y-83761904D01*
D14*
%TO.C,TP12*%
X141470000Y-95270000D02*
X141470000Y-96600000D01*
X141470000Y-97810000D02*
X141470000Y-97930000D01*
X142800000Y-95270000D02*
X141470000Y-95270000D01*
X144130000Y-97810000D02*
X144130000Y-97930000D01*
X144130000Y-97930000D02*
X141470000Y-97930000D01*
%TO.C,TP3*%
X124270000Y-79220000D02*
X126930000Y-79220000D01*
X124270000Y-79340000D02*
X124270000Y-79220000D01*
X125600000Y-81880000D02*
X126930000Y-81880000D01*
X126930000Y-79340000D02*
X126930000Y-79220000D01*
X126930000Y-81880000D02*
X126930000Y-80550000D01*
%TO.C,C19*%
X105861252Y-81190000D02*
X104438748Y-81190000D01*
X105861252Y-83010000D02*
X104438748Y-83010000D01*
D12*
%TO.C,U1*%
X162825000Y-21425000D02*
X158675000Y-21425000D01*
X162825000Y-26575000D02*
X158675000Y-26575000D01*
D14*
X163250000Y-21425000D02*
X163010000Y-21095000D01*
X163490000Y-21095000D01*
X163250000Y-21425000D01*
G36*
X163250000Y-21425000D02*
G01*
X163010000Y-21095000D01*
X163490000Y-21095000D01*
X163250000Y-21425000D01*
G37*
D15*
%TO.C,F1*%
X173825000Y-24750000D02*
X167675000Y-24750000D01*
D14*
%TO.C,J1*%
X177515000Y-33450000D02*
X176235000Y-33450000D01*
X177515000Y-34050000D02*
X176235000Y-34050000D01*
X179325000Y-36350000D02*
X179925000Y-36350000D01*
X179625000Y-35750000D02*
X179325000Y-36350000D01*
X179925000Y-36350000D02*
X179625000Y-35750000D01*
X180615000Y-30940000D02*
X193635000Y-30940000D01*
X180615000Y-31750000D02*
X180615000Y-30940000D01*
X180615000Y-35750000D02*
X180615000Y-36560000D01*
X180615000Y-36560000D02*
X193635000Y-36560000D01*
X193635000Y-30940000D02*
X193635000Y-33750000D01*
X193635000Y-36560000D02*
X193635000Y-33750000D01*
%TO.C,TP13*%
X137470000Y-95270000D02*
X137470000Y-96600000D01*
X137470000Y-97810000D02*
X137470000Y-97930000D01*
X138800000Y-95270000D02*
X137470000Y-95270000D01*
X140130000Y-97810000D02*
X140130000Y-97930000D01*
X140130000Y-97930000D02*
X137470000Y-97930000D01*
%TO.C,TP8*%
X114745000Y-49795000D02*
X117405000Y-49795000D01*
X114745000Y-49915000D02*
X114745000Y-49795000D01*
X116075000Y-52455000D02*
X117405000Y-52455000D01*
X117405000Y-49915000D02*
X117405000Y-49795000D01*
X117405000Y-52455000D02*
X117405000Y-51125000D01*
%TO.C,E_1*%
X160668750Y-97471250D02*
X163328750Y-97471250D01*
X160668750Y-97591250D02*
X160668750Y-97471250D01*
X161998750Y-100131250D02*
X163328750Y-100131250D01*
X163328750Y-97591250D02*
X163328750Y-97471250D01*
X163328750Y-100131250D02*
X163328750Y-98801250D01*
D10*
%TO.C,ANT1*%
X96462500Y-86750000D02*
X95037500Y-86750000D01*
D14*
%TO.C,E_2*%
X160668750Y-102471250D02*
X163328750Y-102471250D01*
X160668750Y-102591250D02*
X160668750Y-102471250D01*
X161998750Y-105131250D02*
X163328750Y-105131250D01*
X163328750Y-102591250D02*
X163328750Y-102471250D01*
X163328750Y-105131250D02*
X163328750Y-103801250D01*
%TO.C,J13*%
X109570000Y-81235000D02*
X114770000Y-81235000D01*
X109570000Y-94055000D02*
X109570000Y-81235000D01*
X109570000Y-94055000D02*
X112170000Y-94055000D01*
X112170000Y-91455000D02*
X114770000Y-91455000D01*
X112170000Y-94055000D02*
X112170000Y-91455000D01*
X113440000Y-94055000D02*
X114770000Y-94055000D01*
X114770000Y-91455000D02*
X114770000Y-81235000D01*
X114770000Y-94055000D02*
X114770000Y-92725000D01*
D15*
%TO.C,L1*%
X153175000Y-16975000D02*
X136025000Y-16975000D01*
X153175000Y-34125000D02*
X136025000Y-34125000D01*
D14*
%TO.C,K_2*%
X147268750Y-102421250D02*
X147268750Y-103751250D01*
X147268750Y-104961250D02*
X147268750Y-105081250D01*
X148598750Y-102421250D02*
X147268750Y-102421250D01*
X149928750Y-104961250D02*
X149928750Y-105081250D01*
X149928750Y-105081250D02*
X147268750Y-105081250D01*
%TO.C,K_1*%
X147268750Y-97471250D02*
X149928750Y-97471250D01*
X147268750Y-97591250D02*
X147268750Y-97471250D01*
X148598750Y-100131250D02*
X149928750Y-100131250D01*
X149928750Y-97591250D02*
X149928750Y-97471250D01*
X149928750Y-100131250D02*
X149928750Y-98801250D01*
%TO.C,TP3*%
X99770000Y-81620000D02*
X102430000Y-81620000D01*
X99770000Y-81740000D02*
X99770000Y-81620000D01*
X101100000Y-84280000D02*
X102430000Y-84280000D01*
X102430000Y-81740000D02*
X102430000Y-81620000D01*
X102430000Y-84280000D02*
X102430000Y-82950000D01*
%TO.C,TP10*%
X111270000Y-112470000D02*
X113930000Y-112470000D01*
X111270000Y-112590000D02*
X111270000Y-112470000D01*
X112600000Y-115130000D02*
X113930000Y-115130000D01*
X113930000Y-112590000D02*
X113930000Y-112470000D01*
X113930000Y-115130000D02*
X113930000Y-113800000D01*
%TO.C,U4*%
X118050000Y-18340000D02*
X121810000Y-18340000D01*
X118050000Y-25160000D02*
X121810000Y-25160000D01*
X121810000Y-18340000D02*
X121810000Y-19600000D01*
X121810000Y-25160000D02*
X121810000Y-23900000D01*
X117010000Y-25390000D02*
X116530000Y-25390000D01*
X116770000Y-25060000D01*
X117010000Y-25390000D01*
G36*
X117010000Y-25390000D02*
G01*
X116530000Y-25390000D01*
X116770000Y-25060000D01*
X117010000Y-25390000D01*
G37*
%TO.C,C22*%
X97090000Y-83211252D02*
X97090000Y-81788748D01*
X98910000Y-83211252D02*
X98910000Y-81788748D01*
%TO.C,J7*%
X178790000Y-46200000D02*
X177510000Y-46200000D01*
X178790000Y-46800000D02*
X177510000Y-46800000D01*
X178790000Y-50400000D02*
X177510000Y-50400000D01*
X178790000Y-51000000D02*
X177510000Y-51000000D01*
X178790000Y-54600000D02*
X177510000Y-54600000D01*
X178790000Y-55200000D02*
X177510000Y-55200000D01*
X178790000Y-58800000D02*
X177510000Y-58800000D01*
X178790000Y-59400000D02*
X177510000Y-59400000D01*
X178790000Y-63000000D02*
X177510000Y-63000000D01*
X178790000Y-63600000D02*
X177510000Y-63600000D01*
X180600000Y-65900000D02*
X181200000Y-65900000D01*
X180900000Y-65300000D02*
X180600000Y-65900000D01*
X181200000Y-65900000D02*
X180900000Y-65300000D01*
X181890000Y-38690000D02*
X181890000Y-44500000D01*
X181890000Y-71110000D02*
X181890000Y-65300000D01*
X181900000Y-49090000D02*
X181900000Y-48110000D01*
X181900000Y-53290000D02*
X181900000Y-52310000D01*
X181900000Y-57490000D02*
X181900000Y-56510000D01*
X181900000Y-61690000D02*
X181900000Y-60710000D01*
X188310000Y-38690000D02*
X181890000Y-38690000D01*
X188310000Y-43690000D02*
X188310000Y-38690000D01*
X188310000Y-66110000D02*
X188310000Y-71110000D01*
X188310000Y-71110000D02*
X181890000Y-71110000D01*
X194910000Y-43690000D02*
X188310000Y-43690000D01*
X194910000Y-54900000D02*
X194910000Y-43690000D01*
X194910000Y-54900000D02*
X194910000Y-66110000D01*
X194910000Y-66110000D02*
X188310000Y-66110000D01*
%TD*%
M02*
