%TF.GenerationSoftware,KiCad,Pcbnew,9.0.0*%
%TF.CreationDate,2025-03-25T01:25:05+01:00*%
%TF.ProjectId,FCCU-v2-schematic-pcb,46434355-2d76-4322-9d73-6368656d6174,rev?*%
%TF.SameCoordinates,Original*%
%TF.FileFunction,Soldermask,Top*%
%TF.FilePolarity,Negative*%
%FSLAX46Y46*%
G04 Gerber Fmt 4.6, Leading zero omitted, Abs format (unit mm)*
G04 Created by KiCad (PCBNEW 9.0.0) date 2025-03-25 01:25:05*
%MOMM*%
%LPD*%
G01*
G04 APERTURE LIST*
G04 Aperture macros list*
%AMRoundRect*
0 Rectangle with rounded corners*
0 $1 Rounding radius*
0 $2 $3 $4 $5 $6 $7 $8 $9 X,Y pos of 4 corners*
0 Add a 4 corners polygon primitive as box body*
4,1,4,$2,$3,$4,$5,$6,$7,$8,$9,$2,$3,0*
0 Add four circle primitives for the rounded corners*
1,1,$1+$1,$2,$3*
1,1,$1+$1,$4,$5*
1,1,$1+$1,$6,$7*
1,1,$1+$1,$8,$9*
0 Add four rect primitives between the rounded corners*
20,1,$1+$1,$2,$3,$4,$5,0*
20,1,$1+$1,$4,$5,$6,$7,0*
20,1,$1+$1,$6,$7,$8,$9,0*
20,1,$1+$1,$8,$9,$2,$3,0*%
G04 Aperture macros list end*
%ADD10R,1.150000X0.800000*%
%ADD11RoundRect,0.250000X-0.625000X0.312500X-0.625000X-0.312500X0.625000X-0.312500X0.625000X0.312500X0*%
%ADD12R,1.700000X1.700000*%
%ADD13RoundRect,0.250000X0.312500X0.625000X-0.312500X0.625000X-0.312500X-0.625000X0.312500X-0.625000X0*%
%ADD14R,0.600000X1.200000*%
%ADD15RoundRect,0.050000X-0.285000X-0.100000X0.285000X-0.100000X0.285000X0.100000X-0.285000X0.100000X0*%
%ADD16RoundRect,0.250000X0.650000X-0.325000X0.650000X0.325000X-0.650000X0.325000X-0.650000X-0.325000X0*%
%ADD17RoundRect,0.250000X-0.312500X-0.625000X0.312500X-0.625000X0.312500X0.625000X-0.312500X0.625000X0*%
%ADD18RoundRect,0.250000X0.412500X1.100000X-0.412500X1.100000X-0.412500X-1.100000X0.412500X-1.100000X0*%
%ADD19RoundRect,0.250000X0.625000X-0.312500X0.625000X0.312500X-0.625000X0.312500X-0.625000X-0.312500X0*%
%ADD20C,3.000000*%
%ADD21RoundRect,0.250001X1.599999X-1.099999X1.599999X1.099999X-1.599999X1.099999X-1.599999X-1.099999X0*%
%ADD22O,3.700000X2.700000*%
%ADD23C,5.600000*%
%ADD24R,1.200000X1.200000*%
%ADD25R,1.500000X1.600000*%
%ADD26RoundRect,0.250000X0.325000X0.650000X-0.325000X0.650000X-0.325000X-0.650000X0.325000X-0.650000X0*%
%ADD27RoundRect,0.250000X-0.325000X-0.650000X0.325000X-0.650000X0.325000X0.650000X-0.325000X0.650000X0*%
%ADD28RoundRect,0.050000X-0.387500X-0.050000X0.387500X-0.050000X0.387500X0.050000X-0.387500X0.050000X0*%
%ADD29RoundRect,0.050000X-0.050000X-0.387500X0.050000X-0.387500X0.050000X0.387500X-0.050000X0.387500X0*%
%ADD30R,5.600000X5.600000*%
%ADD31RoundRect,0.250000X-1.000000X1.950000X-1.000000X-1.950000X1.000000X-1.950000X1.000000X1.950000X0*%
%ADD32RoundRect,0.250000X-0.650000X0.325000X-0.650000X-0.325000X0.650000X-0.325000X0.650000X0.325000X0*%
%ADD33R,3.500000X3.500000*%
%ADD34C,3.500000*%
%ADD35RoundRect,0.250000X-1.500000X-0.550000X1.500000X-0.550000X1.500000X0.550000X-1.500000X0.550000X0*%
%ADD36R,0.750000X1.000000*%
%ADD37R,0.750000X0.560000*%
%ADD38R,2.080000X2.880000*%
%ADD39R,2.575000X1.400000*%
%ADD40R,3.000000X3.000000*%
%ADD41RoundRect,0.250000X0.625000X-0.375000X0.625000X0.375000X-0.625000X0.375000X-0.625000X-0.375000X0*%
%ADD42RoundRect,0.250000X0.362500X1.425000X-0.362500X1.425000X-0.362500X-1.425000X0.362500X-1.425000X0*%
%ADD43RoundRect,0.250000X1.000000X-1.950000X1.000000X1.950000X-1.000000X1.950000X-1.000000X-1.950000X0*%
%ADD44R,0.450000X1.475000*%
%ADD45R,1.600000X1.400000*%
%ADD46RoundRect,0.250000X-1.950000X-1.000000X1.950000X-1.000000X1.950000X1.000000X-1.950000X1.000000X0*%
%ADD47R,0.800000X1.150000*%
%ADD48R,2.173999X3.200400*%
%ADD49RoundRect,0.150000X-0.825000X-0.150000X0.825000X-0.150000X0.825000X0.150000X-0.825000X0.150000X0*%
%ADD50R,0.300000X1.400000*%
%ADD51O,1.700000X1.700000*%
%ADD52R,0.430000X0.350000*%
%ADD53R,1.100000X1.250000*%
%ADD54R,0.660000X0.350000*%
%ADD55RoundRect,0.250000X0.375000X0.625000X-0.375000X0.625000X-0.375000X-0.625000X0.375000X-0.625000X0*%
%ADD56R,3.550000X2.460000*%
%ADD57C,2.280000*%
%ADD58C,2.850000*%
%ADD59R,0.300000X1.100000*%
%ADD60RoundRect,0.250000X-1.425000X0.362500X-1.425000X-0.362500X1.425000X-0.362500X1.425000X0.362500X0*%
%ADD61RoundRect,0.112500X-0.237500X0.112500X-0.237500X-0.112500X0.237500X-0.112500X0.237500X0.112500X0*%
%ADD62R,1.450000X0.700000*%
%ADD63R,1.000000X0.750000*%
%ADD64R,0.560000X0.750000*%
%ADD65R,2.880000X2.080000*%
%ADD66R,1.400000X2.575000*%
%ADD67R,1.200000X0.950000*%
%ADD68R,3.200000X1.100000*%
%ADD69RoundRect,0.093750X0.093750X-0.156250X0.093750X0.156250X-0.093750X0.156250X-0.093750X-0.156250X0*%
%ADD70RoundRect,0.075000X0.075000X-0.250000X0.075000X0.250000X-0.075000X0.250000X-0.075000X-0.250000X0*%
%ADD71R,1.600000X1.500000*%
%ADD72RoundRect,0.375000X0.625000X0.375000X-0.625000X0.375000X-0.625000X-0.375000X0.625000X-0.375000X0*%
%ADD73RoundRect,0.500000X0.500000X1.400000X-0.500000X1.400000X-0.500000X-1.400000X0.500000X-1.400000X0*%
%ADD74C,3.200000*%
%ADD75RoundRect,0.250001X-1.599999X1.099999X-1.599999X-1.099999X1.599999X-1.099999X1.599999X1.099999X0*%
%ADD76RoundRect,0.324076X1.925924X-1.425924X1.925924X1.425924X-1.925924X1.425924X-1.925924X-1.425924X0*%
%ADD77O,3.850000X4.500000*%
%ADD78C,0.800000*%
%ADD79C,1.200000*%
%ADD80C,1.600000*%
%ADD81C,2.000000*%
%ADD82C,0.600000*%
G04 APERTURE END LIST*
D10*
%TO.C,Z5*%
X124750000Y-95250000D03*
X128250000Y-95250000D03*
%TD*%
D11*
%TO.C,R1*%
X145000000Y-104362500D03*
X145000000Y-101437500D03*
%TD*%
D12*
%TO.C,C_2*%
X161998750Y-101301250D03*
%TD*%
D13*
%TO.C,R32*%
X132812500Y-67900000D03*
X129887500Y-67900000D03*
%TD*%
D14*
%TO.C,Y2*%
X130450000Y-92600000D03*
X130450000Y-98900000D03*
X131350000Y-98900000D03*
X131350000Y-92600000D03*
%TD*%
D15*
%TO.C,U2*%
X119060000Y-18850000D03*
X119060000Y-19350000D03*
X119060000Y-19850000D03*
X119060000Y-20350000D03*
X120540000Y-20350000D03*
X120540000Y-19850000D03*
X120540000Y-19350000D03*
X120540000Y-18850000D03*
%TD*%
D16*
%TO.C,C18*%
X109800000Y-108875000D03*
X109800000Y-105925000D03*
%TD*%
D13*
%TO.C,R47*%
X170262500Y-45000000D03*
X167337500Y-45000000D03*
%TD*%
D17*
%TO.C,R46*%
X167337500Y-42200000D03*
X170262500Y-42200000D03*
%TD*%
D18*
%TO.C,C8*%
X116562500Y-18000000D03*
X113437500Y-18000000D03*
%TD*%
D17*
%TO.C,R53*%
X151373750Y-95476250D03*
X154298750Y-95476250D03*
%TD*%
D19*
%TO.C,R48*%
X157200000Y-53862500D03*
X157200000Y-50937500D03*
%TD*%
%TO.C,R3*%
X142300000Y-104962500D03*
X142300000Y-102037500D03*
%TD*%
D20*
%TO.C,J8*%
X93775000Y-51400000D03*
X93775000Y-43000000D03*
D21*
X101075000Y-51400000D03*
D22*
X101075000Y-47200000D03*
X101075000Y-43000000D03*
X106575000Y-51400000D03*
X106575000Y-47200000D03*
X106575000Y-43000000D03*
%TD*%
D23*
%TO.C,REF\u002A\u002A*%
X103300000Y-88850000D03*
%TD*%
D13*
%TO.C,R26*%
X119012500Y-88000000D03*
X116087500Y-88000000D03*
%TD*%
D19*
%TO.C,R73*%
X147875000Y-48837500D03*
X147875000Y-45912500D03*
%TD*%
D11*
%TO.C,R25*%
X116825000Y-56012500D03*
X116825000Y-58937500D03*
%TD*%
D24*
%TO.C,RV2*%
X154700000Y-31000000D03*
D25*
X157950000Y-30000000D03*
D24*
X154700000Y-29000000D03*
%TD*%
D17*
%TO.C,R63*%
X156336250Y-95476250D03*
X159261250Y-95476250D03*
%TD*%
D11*
%TO.C,R18*%
X109800000Y-111537500D03*
X109800000Y-114462500D03*
%TD*%
D17*
%TO.C,R57*%
X172537500Y-105800000D03*
X175462500Y-105800000D03*
%TD*%
D11*
%TO.C,R56*%
X169000000Y-58337500D03*
X169000000Y-61262500D03*
%TD*%
D10*
%TO.C,Z6*%
X139050000Y-74800000D03*
X142550000Y-74800000D03*
%TD*%
D16*
%TO.C,C43*%
X166000000Y-53475000D03*
X166000000Y-50525000D03*
%TD*%
D26*
%TO.C,C51*%
X108425000Y-58050000D03*
X105475000Y-58050000D03*
%TD*%
D11*
%TO.C,R44*%
X160600000Y-36937500D03*
X160600000Y-39862500D03*
%TD*%
D26*
%TO.C,C29*%
X119525000Y-64600000D03*
X116575000Y-64600000D03*
%TD*%
D27*
%TO.C,C37*%
X137875000Y-90500000D03*
X140825000Y-90500000D03*
%TD*%
D26*
%TO.C,C7*%
X146075000Y-17600000D03*
X143125000Y-17600000D03*
%TD*%
D28*
%TO.C,U6*%
X127662500Y-81325000D03*
X127662500Y-81725000D03*
X127662500Y-82125000D03*
X127662500Y-82525000D03*
X127662500Y-82925000D03*
X127662500Y-83325000D03*
X127662500Y-83725000D03*
X127662500Y-84125000D03*
X127662500Y-84525000D03*
X127662500Y-84925000D03*
X127662500Y-85325000D03*
X127662500Y-85725000D03*
X127662500Y-86125000D03*
X127662500Y-86525000D03*
D29*
X128500000Y-87362500D03*
X128900000Y-87362500D03*
X129300000Y-87362500D03*
X129700000Y-87362500D03*
X130100000Y-87362500D03*
X130500000Y-87362500D03*
X130900000Y-87362500D03*
X131300000Y-87362500D03*
X131700000Y-87362500D03*
X132100000Y-87362500D03*
X132500000Y-87362500D03*
X132900000Y-87362500D03*
X133300000Y-87362500D03*
X133700000Y-87362500D03*
D28*
X134537500Y-86525000D03*
X134537500Y-86125000D03*
X134537500Y-85725000D03*
X134537500Y-85325000D03*
X134537500Y-84925000D03*
X134537500Y-84525000D03*
X134537500Y-84125000D03*
X134537500Y-83725000D03*
X134537500Y-83325000D03*
X134537500Y-82925000D03*
X134537500Y-82525000D03*
X134537500Y-82125000D03*
X134537500Y-81725000D03*
X134537500Y-81325000D03*
D29*
X133700000Y-80487500D03*
X133300000Y-80487500D03*
X132900000Y-80487500D03*
X132500000Y-80487500D03*
X132100000Y-80487500D03*
X131700000Y-80487500D03*
X131300000Y-80487500D03*
X130900000Y-80487500D03*
X130500000Y-80487500D03*
X130100000Y-80487500D03*
X129700000Y-80487500D03*
X129300000Y-80487500D03*
X128900000Y-80487500D03*
X128500000Y-80487500D03*
D30*
X131100000Y-83925000D03*
%TD*%
D19*
%TO.C,R81*%
X157900000Y-91787500D03*
X157900000Y-88862500D03*
%TD*%
D10*
%TO.C,Z1*%
X120250000Y-28400000D03*
X123750000Y-28400000D03*
%TD*%
D31*
%TO.C,C9*%
X144000000Y-21700000D03*
X144000000Y-29100000D03*
%TD*%
D13*
%TO.C,R61*%
X118862500Y-101100000D03*
X115937500Y-101100000D03*
%TD*%
D20*
%TO.C,J5*%
X93575000Y-79200000D03*
D21*
X100875000Y-79200000D03*
D22*
X106375000Y-79200000D03*
%TD*%
D32*
%TO.C,C21*%
X133800000Y-93675000D03*
X133800000Y-96625000D03*
%TD*%
D26*
%TO.C,C35*%
X128275000Y-92400000D03*
X125325000Y-92400000D03*
%TD*%
D11*
%TO.C,R31*%
X137100000Y-100037500D03*
X137100000Y-102962500D03*
%TD*%
%TO.C,R66*%
X178925000Y-93287500D03*
X178925000Y-96212500D03*
%TD*%
D17*
%TO.C,R64*%
X156336250Y-104901250D03*
X159261250Y-104901250D03*
%TD*%
%TO.C,R12*%
X131737500Y-40600000D03*
X134662500Y-40600000D03*
%TD*%
D27*
%TO.C,C40*%
X155325000Y-44600000D03*
X158275000Y-44600000D03*
%TD*%
D17*
%TO.C,R39*%
X146537500Y-87000000D03*
X149462500Y-87000000D03*
%TD*%
D13*
%TO.C,R85*%
X163662500Y-80925000D03*
X160737500Y-80925000D03*
%TD*%
D20*
%TO.C,J3*%
X93412900Y-63515750D03*
X93412900Y-71915750D03*
D33*
X100712900Y-71915750D03*
D34*
X100712900Y-67715750D03*
X100712900Y-63515750D03*
%TD*%
D24*
%TO.C,RV5*%
X164500000Y-42600000D03*
D25*
X161250000Y-43600000D03*
D24*
X164500000Y-44600000D03*
%TD*%
D32*
%TO.C,C1*%
X138000000Y-20925000D03*
X138000000Y-23875000D03*
%TD*%
D35*
%TO.C,C4*%
X135300000Y-34800000D03*
X140700000Y-34800000D03*
%TD*%
D17*
%TO.C,R16*%
X107137500Y-26200000D03*
X110062500Y-26200000D03*
%TD*%
D24*
%TO.C,D10*%
X113520000Y-33750000D03*
X110720000Y-33750000D03*
%TD*%
D36*
%TO.C,D5*%
X122670000Y-47650000D03*
X121400000Y-47650000D03*
X120130000Y-47650000D03*
X118860000Y-47650000D03*
D37*
X118860000Y-53460000D03*
X120190000Y-53460000D03*
D38*
X119525000Y-51740000D03*
D39*
X119277000Y-49600000D03*
D37*
X121340000Y-53460000D03*
X122670000Y-53460000D03*
D39*
X122253000Y-49600000D03*
D38*
X122005000Y-51740000D03*
%TD*%
D20*
%TO.C,J2*%
X187587100Y-111884250D03*
X187587100Y-103484250D03*
D40*
X180287100Y-103484250D03*
D34*
X180287100Y-107684250D03*
X180287100Y-111884250D03*
%TD*%
D41*
%TO.C,D7*%
X121250000Y-100900000D03*
X121250000Y-98100000D03*
%TD*%
D32*
%TO.C,C24*%
X127900000Y-97775000D03*
X127900000Y-100725000D03*
%TD*%
D19*
%TO.C,R11*%
X131800000Y-36662500D03*
X131800000Y-33737500D03*
%TD*%
D23*
%TO.C,REF\u002A\u002A*%
X155150000Y-110550000D03*
%TD*%
D13*
%TO.C,R27*%
X119062500Y-93450000D03*
X116137500Y-93450000D03*
%TD*%
%TO.C,R40*%
X160712500Y-71250000D03*
X157787500Y-71250000D03*
%TD*%
D12*
%TO.C,C_1*%
X161998750Y-96301250D03*
%TD*%
%TO.C,A_1*%
X148598750Y-96301250D03*
%TD*%
D13*
%TO.C,R4*%
X134712500Y-104900000D03*
X131787500Y-104900000D03*
%TD*%
D11*
%TO.C,R17*%
X104400000Y-23037500D03*
X104400000Y-25962500D03*
%TD*%
D16*
%TO.C,C33*%
X121050000Y-75675000D03*
X121050000Y-72725000D03*
%TD*%
D42*
%TO.C,R78*%
X101762500Y-57525000D03*
X95837500Y-57525000D03*
%TD*%
D32*
%TO.C,C31*%
X118400000Y-78225000D03*
X118400000Y-81175000D03*
%TD*%
%TO.C,C25*%
X111325000Y-96650000D03*
X111325000Y-99600000D03*
%TD*%
D13*
%TO.C,R50*%
X154862500Y-51000000D03*
X151937500Y-51000000D03*
%TD*%
D17*
%TO.C,R23*%
X119087500Y-58900000D03*
X122012500Y-58900000D03*
%TD*%
D20*
%TO.C,J4*%
X93775000Y-36400000D03*
D21*
X101075000Y-36400000D03*
D22*
X106575000Y-36400000D03*
%TD*%
D11*
%TO.C,R15*%
X150600000Y-27337500D03*
X150600000Y-30262500D03*
%TD*%
%TO.C,R75*%
X111550000Y-62112500D03*
X111550000Y-65037500D03*
%TD*%
D17*
%TO.C,R71*%
X112987500Y-45000000D03*
X115912500Y-45000000D03*
%TD*%
%TO.C,R51*%
X172537500Y-102400000D03*
X175462500Y-102400000D03*
%TD*%
D43*
%TO.C,C15*%
X129350000Y-52800000D03*
X129350000Y-45400000D03*
%TD*%
D44*
%TO.C,IC2*%
X159650000Y-53338000D03*
X160300000Y-53338000D03*
X160950000Y-53338000D03*
X161600000Y-53338000D03*
X162250000Y-53338000D03*
X162900000Y-53338000D03*
X163550000Y-53338000D03*
X163550000Y-47462000D03*
X162900000Y-47462000D03*
X162250000Y-47462000D03*
X161600000Y-47462000D03*
X160950000Y-47462000D03*
X160300000Y-47462000D03*
X159650000Y-47462000D03*
%TD*%
D45*
%TO.C,BOOT*%
X94250000Y-105350000D03*
X101450000Y-105350000D03*
X94250000Y-102350000D03*
X101450000Y-102350000D03*
%TD*%
D11*
%TO.C,R69*%
X168500000Y-88437500D03*
X168500000Y-91362500D03*
%TD*%
D13*
%TO.C,R21*%
X111662500Y-103450000D03*
X108737500Y-103450000D03*
%TD*%
%TO.C,R9*%
X163862500Y-25600000D03*
X160937500Y-25600000D03*
%TD*%
D46*
%TO.C,C2*%
X165800000Y-21500000D03*
X173200000Y-21500000D03*
%TD*%
D42*
%TO.C,R77*%
X103162500Y-30800000D03*
X97237500Y-30800000D03*
%TD*%
D47*
%TO.C,Z2*%
X110700000Y-76800000D03*
X110700000Y-80300000D03*
%TD*%
D11*
%TO.C,R68*%
X171875000Y-83537500D03*
X171875000Y-86462500D03*
%TD*%
D10*
%TO.C,Z9*%
X165425000Y-97650000D03*
X168925000Y-97650000D03*
%TD*%
D19*
%TO.C,R49*%
X165400000Y-58462500D03*
X165400000Y-55537500D03*
%TD*%
D13*
%TO.C,R67*%
X176087500Y-95475000D03*
X173162500Y-95475000D03*
%TD*%
D23*
%TO.C,REF\u002A\u002A*%
X96750000Y-21250000D03*
%TD*%
D13*
%TO.C,R82*%
X168762500Y-83500000D03*
X165837500Y-83500000D03*
%TD*%
D48*
%TO.C,D1*%
X128698998Y-19200000D03*
X134953002Y-19200000D03*
%TD*%
D49*
%TO.C,U7*%
X166125000Y-107895000D03*
X166125000Y-109165000D03*
X166125000Y-110435000D03*
X166125000Y-111705000D03*
X171075000Y-111705000D03*
X171075000Y-110435000D03*
X171075000Y-109165000D03*
X171075000Y-107895000D03*
%TD*%
D26*
%TO.C,C34*%
X125975000Y-78150000D03*
X123025000Y-78150000D03*
%TD*%
D50*
%TO.C,IC4*%
X163875000Y-91200000D03*
X164375000Y-91200000D03*
X164875000Y-91200000D03*
X165375000Y-91200000D03*
X165875000Y-91200000D03*
X165875000Y-86800000D03*
X165375000Y-86800000D03*
X164875000Y-86800000D03*
X164375000Y-86800000D03*
X163875000Y-86800000D03*
%TD*%
D11*
%TO.C,R72*%
X107125000Y-60662500D03*
X107125000Y-63587500D03*
%TD*%
D27*
%TO.C,C10*%
X122925000Y-17000000D03*
X125875000Y-17000000D03*
%TD*%
D16*
%TO.C,C20*%
X123750000Y-74725000D03*
X123750000Y-71775000D03*
%TD*%
D43*
%TO.C,C28*%
X114200000Y-75150000D03*
X114200000Y-67750000D03*
%TD*%
D12*
%TO.C,J14*%
X124950000Y-59210000D03*
D51*
X127490000Y-59210000D03*
X130030000Y-59210000D03*
X132570000Y-59210000D03*
X135110000Y-59210000D03*
X124950000Y-61750000D03*
X127490000Y-61750000D03*
X130030000Y-61750000D03*
X132570000Y-61750000D03*
X135110000Y-61750000D03*
%TD*%
D11*
%TO.C,R7*%
X135200000Y-23737500D03*
X135200000Y-26662500D03*
%TD*%
D52*
%TO.C,Q3*%
X150265000Y-47150000D03*
X150265000Y-47800000D03*
D53*
X151200000Y-47515000D03*
D52*
X152135000Y-47150000D03*
X152135000Y-47800000D03*
X150265000Y-48450000D03*
D54*
X151200000Y-48575000D03*
D52*
X152135000Y-48450000D03*
%TD*%
D12*
%TO.C,TP1*%
X176100000Y-24800000D03*
%TD*%
D13*
%TO.C,R13*%
X151062500Y-17400000D03*
X148137500Y-17400000D03*
%TD*%
%TO.C,R36*%
X171237500Y-73500000D03*
X168312500Y-73500000D03*
%TD*%
D32*
%TO.C,C47*%
X170875000Y-88425000D03*
X170875000Y-91375000D03*
%TD*%
D27*
%TO.C,C38*%
X137375000Y-86600000D03*
X140325000Y-86600000D03*
%TD*%
D19*
%TO.C,R70*%
X167150000Y-103487500D03*
X167150000Y-100562500D03*
%TD*%
D55*
%TO.C,D8*%
X144100000Y-93700000D03*
X141300000Y-93700000D03*
%TD*%
D17*
%TO.C,R33*%
X129712500Y-65425000D03*
X132637500Y-65425000D03*
%TD*%
%TO.C,R19*%
X104737500Y-108200000D03*
X107662500Y-108200000D03*
%TD*%
D45*
%TO.C,RESET*%
X94200000Y-98050000D03*
X101400000Y-98050000D03*
X94200000Y-95050000D03*
X101400000Y-95050000D03*
%TD*%
D13*
%TO.C,R60*%
X156262500Y-56600000D03*
X153337500Y-56600000D03*
%TD*%
D47*
%TO.C,Z7*%
X143800000Y-85250000D03*
X143800000Y-88750000D03*
%TD*%
D19*
%TO.C,R65*%
X112600000Y-110662500D03*
X112600000Y-107737500D03*
%TD*%
D32*
%TO.C,C27*%
X104775000Y-102700000D03*
X104775000Y-105650000D03*
%TD*%
D27*
%TO.C,C55*%
X111625000Y-47600000D03*
X114575000Y-47600000D03*
%TD*%
D13*
%TO.C,R55*%
X170662500Y-56000000D03*
X167737500Y-56000000D03*
%TD*%
D26*
%TO.C,C32*%
X123475000Y-81550000D03*
X120525000Y-81550000D03*
%TD*%
D11*
%TO.C,R76*%
X147725000Y-50962500D03*
X147725000Y-53887500D03*
%TD*%
%TO.C,R20*%
X136200000Y-94687500D03*
X136200000Y-97612500D03*
%TD*%
D24*
%TO.C,D11*%
X103955000Y-55600000D03*
X106755000Y-55600000D03*
%TD*%
D42*
%TO.C,R5*%
X175212500Y-29250000D03*
X169287500Y-29250000D03*
%TD*%
D44*
%TO.C,IC1*%
X132475000Y-24862000D03*
X131825000Y-24862000D03*
X131175000Y-24862000D03*
X130525000Y-24862000D03*
X129875000Y-24862000D03*
X129225000Y-24862000D03*
X128575000Y-24862000D03*
X127925000Y-24862000D03*
X127925000Y-30738000D03*
X128575000Y-30738000D03*
X129225000Y-30738000D03*
X129875000Y-30738000D03*
X130525000Y-30738000D03*
X131175000Y-30738000D03*
X131825000Y-30738000D03*
X132475000Y-30738000D03*
D56*
X130200000Y-27800000D03*
%TD*%
D42*
%TO.C,R6*%
X180362500Y-38650000D03*
X174437500Y-38650000D03*
%TD*%
D17*
%TO.C,R38*%
X146537500Y-89600000D03*
X149462500Y-89600000D03*
%TD*%
D19*
%TO.C,R10*%
X125800000Y-31462500D03*
X125800000Y-28537500D03*
%TD*%
D57*
%TO.C,P1*%
X135380000Y-109800000D03*
D58*
X135380000Y-113800000D03*
D59*
X137650000Y-108650000D03*
D57*
X146620000Y-109800000D03*
D58*
X146620000Y-113800000D03*
D59*
X138450000Y-108650000D03*
X139750000Y-108650000D03*
X140750000Y-108650000D03*
X141250000Y-108650000D03*
X142250000Y-108650000D03*
X143550000Y-108650000D03*
X144350000Y-108650000D03*
X144050000Y-108650000D03*
X143250000Y-108650000D03*
X142750000Y-108650000D03*
X141750000Y-108650000D03*
X140250000Y-108650000D03*
X139250000Y-108650000D03*
X138750000Y-108650000D03*
X137950000Y-108650000D03*
%TD*%
D27*
%TO.C,C49*%
X164900000Y-94425000D03*
X167850000Y-94425000D03*
%TD*%
%TO.C,C36*%
X138125000Y-77800000D03*
X141075000Y-77800000D03*
%TD*%
D60*
%TO.C,R79*%
X185000000Y-55037500D03*
X185000000Y-60962500D03*
%TD*%
D16*
%TO.C,C23*%
X145200000Y-99575000D03*
X145200000Y-96625000D03*
%TD*%
D61*
%TO.C,D6*%
X173800000Y-109150000D03*
X173800000Y-110450000D03*
X175800000Y-109800000D03*
%TD*%
D13*
%TO.C,R34*%
X171287500Y-70925000D03*
X168362500Y-70925000D03*
%TD*%
D27*
%TO.C,C17*%
X127325000Y-75575000D03*
X130275000Y-75575000D03*
%TD*%
D13*
%TO.C,R28*%
X119012500Y-85400000D03*
X116087500Y-85400000D03*
%TD*%
D17*
%TO.C,R74*%
X112887500Y-42250000D03*
X115812500Y-42250000D03*
%TD*%
D45*
%TO.C,TEST*%
X94200000Y-112900000D03*
X101400000Y-112900000D03*
X94200000Y-109900000D03*
X101400000Y-109900000D03*
%TD*%
D47*
%TO.C,Z8*%
X171400000Y-53350000D03*
X171400000Y-49850000D03*
%TD*%
D62*
%TO.C,IC3*%
X152398750Y-98196250D03*
X152398750Y-99466250D03*
X152398750Y-100736250D03*
X152398750Y-102006250D03*
X157998750Y-102006250D03*
X157998750Y-100736250D03*
X157998750Y-99466250D03*
X157998750Y-98196250D03*
%TD*%
D12*
%TO.C,J11*%
X116150000Y-110710000D03*
D51*
X118690000Y-110710000D03*
X121230000Y-110710000D03*
X123770000Y-110710000D03*
X126310000Y-110710000D03*
X116150000Y-113250000D03*
X118690000Y-113250000D03*
X121230000Y-113250000D03*
X123770000Y-113250000D03*
X126310000Y-113250000D03*
%TD*%
D32*
%TO.C,C42*%
X162950000Y-109825000D03*
X162950000Y-112775000D03*
%TD*%
D26*
%TO.C,C50*%
X108475000Y-31400000D03*
X105525000Y-31400000D03*
%TD*%
D63*
%TO.C,D3*%
X160547500Y-21105500D03*
X160547500Y-19835500D03*
X160547500Y-18565500D03*
X160547500Y-17295500D03*
D64*
X154737500Y-17295500D03*
X154737500Y-18625500D03*
D65*
X156457500Y-17960500D03*
D66*
X158597500Y-17712500D03*
D64*
X154737500Y-19775500D03*
X154737500Y-21105500D03*
D66*
X158597500Y-20688500D03*
D65*
X156457500Y-20440500D03*
%TD*%
D52*
%TO.C,Q2*%
X111290000Y-57100000D03*
X111290000Y-57750000D03*
D53*
X112225000Y-57465000D03*
D52*
X113160000Y-57100000D03*
X113160000Y-57750000D03*
X111290000Y-58400000D03*
D54*
X112225000Y-58525000D03*
D52*
X113160000Y-58400000D03*
%TD*%
D67*
%TO.C,Y1*%
X128850000Y-71125000D03*
X126650000Y-71125000D03*
X126650000Y-72875000D03*
X128850000Y-72875000D03*
%TD*%
D24*
%TO.C,RV3*%
X107100000Y-18000000D03*
D25*
X110350000Y-19000000D03*
D24*
X107100000Y-20000000D03*
%TD*%
D26*
%TO.C,C5*%
X129475000Y-33800000D03*
X126525000Y-33800000D03*
%TD*%
D32*
%TO.C,C52*%
X185675000Y-49450000D03*
X185675000Y-52400000D03*
%TD*%
D27*
%TO.C,C44*%
X151925000Y-53600000D03*
X154875000Y-53600000D03*
%TD*%
D68*
%TO.C,L2*%
X121850000Y-22950000D03*
X121850000Y-25050000D03*
%TD*%
D17*
%TO.C,R24*%
X105637500Y-83650000D03*
X108562500Y-83650000D03*
%TD*%
D32*
%TO.C,C45*%
X169600000Y-102325000D03*
X169600000Y-105275000D03*
%TD*%
D17*
%TO.C,R86*%
X131787500Y-102300000D03*
X134712500Y-102300000D03*
%TD*%
D63*
%TO.C,D2*%
X169847500Y-37405500D03*
X169847500Y-36135500D03*
X169847500Y-34865500D03*
X169847500Y-33595500D03*
D64*
X164037500Y-33595500D03*
X164037500Y-34925500D03*
D65*
X165757500Y-34260500D03*
D66*
X167897500Y-34012500D03*
D64*
X164037500Y-36075500D03*
X164037500Y-37405500D03*
D66*
X167897500Y-36988500D03*
D65*
X165757500Y-36740500D03*
%TD*%
D31*
%TO.C,C16*%
X120150000Y-32600000D03*
X120150000Y-40000000D03*
%TD*%
D19*
%TO.C,R14*%
X150600000Y-24862500D03*
X150600000Y-21937500D03*
%TD*%
D24*
%TO.C,RV4*%
X154300000Y-39400000D03*
D25*
X157550000Y-40400000D03*
D24*
X154300000Y-41400000D03*
%TD*%
D12*
%TO.C,A_2*%
X148598750Y-101301250D03*
%TD*%
D52*
%TO.C,Q1*%
X111865000Y-37550000D03*
X111865000Y-38200000D03*
D53*
X112800000Y-37915000D03*
D52*
X113735000Y-37550000D03*
X113735000Y-38200000D03*
X111865000Y-38850000D03*
D54*
X112800000Y-38975000D03*
D52*
X113735000Y-38850000D03*
%TD*%
D19*
%TO.C,R2*%
X139650000Y-104962500D03*
X139650000Y-102037500D03*
%TD*%
D17*
%TO.C,R54*%
X151336250Y-104901250D03*
X154261250Y-104901250D03*
%TD*%
%TO.C,R43*%
X146537500Y-84600000D03*
X149462500Y-84600000D03*
%TD*%
D12*
%TO.C,J15*%
X154890000Y-78950000D03*
D51*
X154890000Y-81490000D03*
X154890000Y-84030000D03*
X154890000Y-86570000D03*
X154890000Y-89110000D03*
X152350000Y-78950000D03*
X152350000Y-81490000D03*
X152350000Y-84030000D03*
X152350000Y-86570000D03*
X152350000Y-89110000D03*
%TD*%
D10*
%TO.C,Z3*%
X118200000Y-61700000D03*
X114700000Y-61700000D03*
%TD*%
D32*
%TO.C,C26*%
X104875000Y-97625000D03*
X104875000Y-100575000D03*
%TD*%
D69*
%TO.C,U5*%
X140512500Y-99950000D03*
D70*
X141050000Y-100025000D03*
D69*
X141587500Y-99950000D03*
X141587500Y-98250000D03*
D70*
X141050000Y-98175000D03*
D69*
X140512500Y-98250000D03*
%TD*%
D17*
%TO.C,R42*%
X151487500Y-92000000D03*
X154412500Y-92000000D03*
%TD*%
D11*
%TO.C,R8*%
X137800000Y-26337500D03*
X137800000Y-29262500D03*
%TD*%
D19*
%TO.C,R45*%
X151150000Y-41787500D03*
X151150000Y-38862500D03*
%TD*%
D23*
%TO.C,REF\u002A\u002A*%
X183650000Y-22150000D03*
%TD*%
D36*
%TO.C,D4*%
X112894500Y-29305000D03*
X114164500Y-29305000D03*
X115434500Y-29305000D03*
X116704500Y-29305000D03*
D37*
X116704500Y-23495000D03*
X115374500Y-23495000D03*
D38*
X116039500Y-25215000D03*
D39*
X116287500Y-27355000D03*
X113311500Y-27355000D03*
D38*
X113559500Y-25215000D03*
D37*
X114224500Y-23495000D03*
X112894500Y-23495000D03*
%TD*%
D16*
%TO.C,C39*%
X168400000Y-52875000D03*
X168400000Y-49925000D03*
%TD*%
D27*
%TO.C,C6*%
X138125000Y-16800000D03*
X141075000Y-16800000D03*
%TD*%
D17*
%TO.C,R37*%
X162412500Y-71600000D03*
X165337500Y-71600000D03*
%TD*%
D24*
%TO.C,RV1*%
X126800000Y-40300000D03*
D71*
X127800000Y-37050000D03*
D24*
X128800000Y-40300000D03*
%TD*%
D17*
%TO.C,R22*%
X104487500Y-95275000D03*
X107412500Y-95275000D03*
%TD*%
D27*
%TO.C,C14*%
X107125000Y-23200000D03*
X110075000Y-23200000D03*
%TD*%
D13*
%TO.C,R29*%
X119012500Y-90500000D03*
X116087500Y-90500000D03*
%TD*%
D19*
%TO.C,R83*%
X168525000Y-80937500D03*
X168525000Y-78012500D03*
%TD*%
D32*
%TO.C,C12*%
X125700000Y-19525000D03*
X125700000Y-22475000D03*
%TD*%
D26*
%TO.C,C30*%
X116225000Y-79750000D03*
X113275000Y-79750000D03*
%TD*%
D11*
%TO.C,R41*%
X162925000Y-75162500D03*
X162925000Y-78087500D03*
%TD*%
%TO.C,R30*%
X123850000Y-98437500D03*
X123850000Y-101362500D03*
%TD*%
D26*
%TO.C,C46*%
X176175000Y-98075000D03*
X173225000Y-98075000D03*
%TD*%
D12*
%TO.C,J12*%
X116150000Y-104110000D03*
D51*
X118690000Y-104110000D03*
X121230000Y-104110000D03*
X123770000Y-104110000D03*
X126310000Y-104110000D03*
X116150000Y-106650000D03*
X118690000Y-106650000D03*
X121230000Y-106650000D03*
X123770000Y-106650000D03*
X126310000Y-106650000D03*
%TD*%
D72*
%TO.C,U3*%
X142500000Y-50700000D03*
X142500000Y-48400000D03*
D73*
X136200000Y-48400000D03*
D72*
X142500000Y-46100000D03*
%TD*%
D17*
%TO.C,R62*%
X146037500Y-93350000D03*
X148962500Y-93350000D03*
%TD*%
D13*
%TO.C,R35*%
X176087500Y-92250000D03*
X173162500Y-92250000D03*
%TD*%
D27*
%TO.C,C3*%
X154925000Y-25200000D03*
X157875000Y-25200000D03*
%TD*%
D16*
%TO.C,C13*%
X142750000Y-43575000D03*
X142750000Y-40625000D03*
%TD*%
D19*
%TO.C,R59*%
X159000000Y-59662500D03*
X159000000Y-56737500D03*
%TD*%
D55*
%TO.C,D9*%
X107400000Y-113000000D03*
X104600000Y-113000000D03*
%TD*%
D19*
%TO.C,R58*%
X162400000Y-59662500D03*
X162400000Y-56737500D03*
%TD*%
D47*
%TO.C,Z4*%
X108150000Y-97525000D03*
X108150000Y-101025000D03*
%TD*%
D16*
%TO.C,C53*%
X165975000Y-80975000D03*
X165975000Y-78025000D03*
%TD*%
D26*
%TO.C,C54*%
X163950000Y-83250000D03*
X161000000Y-83250000D03*
%TD*%
D74*
%TO.C,J6*%
X185100000Y-67800000D03*
X185100000Y-93600000D03*
D75*
X180900000Y-72300000D03*
D22*
X180900000Y-76500000D03*
X180900000Y-80700000D03*
X180900000Y-84900000D03*
X180900000Y-89100000D03*
X175400000Y-72300000D03*
X175400000Y-76500000D03*
X175400000Y-80700000D03*
X175400000Y-84900000D03*
X175400000Y-89100000D03*
%TD*%
D26*
%TO.C,C11*%
X116975000Y-20800000D03*
X114025000Y-20800000D03*
%TD*%
D19*
%TO.C,R80*%
X160350000Y-88237500D03*
X160350000Y-85312500D03*
%TD*%
D26*
%TO.C,C41*%
X169475000Y-47800000D03*
X166525000Y-47800000D03*
%TD*%
D12*
%TO.C,+5V*%
X113525000Y-51125000D03*
%TD*%
D11*
%TO.C,R84*%
X171175000Y-76687500D03*
X171175000Y-79612500D03*
%TD*%
D32*
%TO.C,C48*%
X161200000Y-89975000D03*
X161200000Y-92925000D03*
%TD*%
D24*
%TO.C,D12*%
X183275000Y-53070000D03*
X183275000Y-50270000D03*
%TD*%
D12*
%TO.C,TP12*%
X142800000Y-96600000D03*
%TD*%
%TO.C,TP3*%
X125600000Y-80550000D03*
%TD*%
D20*
%TO.C,J1*%
X186925000Y-33750000D03*
D76*
X179625000Y-33750000D03*
D77*
X174050000Y-33750000D03*
%TD*%
D12*
%TO.C,TP13*%
X138800000Y-96600000D03*
%TD*%
%TO.C,TP8*%
X116075000Y-51125000D03*
%TD*%
%TO.C,E_1*%
X161998750Y-98801250D03*
%TD*%
%TO.C,E_2*%
X161998750Y-103801250D03*
%TD*%
%TO.C,J13*%
X113440000Y-92725000D03*
D51*
X113440000Y-90185000D03*
X113440000Y-87645000D03*
X113440000Y-85105000D03*
X113440000Y-82565000D03*
X110900000Y-92725000D03*
X110900000Y-90185000D03*
X110900000Y-87645000D03*
X110900000Y-85105000D03*
X110900000Y-82565000D03*
%TD*%
D12*
%TO.C,K_2*%
X148598750Y-103751250D03*
%TD*%
%TO.C,K_1*%
X148598750Y-98801250D03*
%TD*%
%TO.C,TP3*%
X101100000Y-82950000D03*
%TD*%
%TO.C,TP10*%
X112600000Y-113800000D03*
%TD*%
D74*
%TO.C,J7*%
X185100000Y-67800000D03*
X185100000Y-42000000D03*
D21*
X180900000Y-63300000D03*
D22*
X180900000Y-59100000D03*
X180900000Y-54900000D03*
X180900000Y-50700000D03*
X180900000Y-46500000D03*
X175400000Y-63300000D03*
X175400000Y-59100000D03*
X175400000Y-54900000D03*
X175400000Y-50700000D03*
X175400000Y-46500000D03*
%TD*%
D78*
X125500000Y-87600000D03*
X159542050Y-63201000D03*
X147500000Y-64500000D03*
X148500000Y-64500000D03*
X138500000Y-54000000D03*
X151000000Y-72500000D03*
X145000000Y-64000000D03*
X137500000Y-63300000D03*
X142500000Y-64000000D03*
X152000000Y-55000000D03*
X152000000Y-57000000D03*
X152000000Y-56000000D03*
X152000000Y-58000000D03*
X153500000Y-53500000D03*
X153500000Y-51500000D03*
X153500000Y-52500000D03*
X153500000Y-50500000D03*
X122000000Y-42500000D03*
X122000000Y-40500000D03*
X122000000Y-41500000D03*
X122000000Y-39500000D03*
X126500000Y-44500000D03*
X124500000Y-44500000D03*
X125500000Y-44500000D03*
X123500000Y-44500000D03*
X133000000Y-47500000D03*
X133000000Y-45500000D03*
X133000000Y-46500000D03*
X133000000Y-44500000D03*
X131500000Y-48000000D03*
X131500000Y-46000000D03*
X131500000Y-47000000D03*
X131500000Y-45000000D03*
X146500000Y-39500000D03*
X146500000Y-40500000D03*
X146500000Y-41500000D03*
X146500000Y-38500000D03*
X146500000Y-34500000D03*
X146500000Y-35500000D03*
X146500000Y-36500000D03*
X146500000Y-33500000D03*
X146500000Y-28500000D03*
X146500000Y-29500000D03*
X146500000Y-30500000D03*
X146500000Y-27500000D03*
X156500000Y-33500000D03*
X157500000Y-33500000D03*
X158500000Y-33500000D03*
X155500000Y-33500000D03*
X151500000Y-34500000D03*
X152500000Y-34500000D03*
X153500000Y-34500000D03*
X150500000Y-34500000D03*
X161500000Y-30000000D03*
X161500000Y-31000000D03*
X161500000Y-32000000D03*
X161500000Y-29000000D03*
X178500000Y-18500000D03*
X178500000Y-19500000D03*
X178500000Y-20500000D03*
X178500000Y-17500000D03*
X178500000Y-23500000D03*
X178500000Y-24500000D03*
X178500000Y-25500000D03*
X178500000Y-22500000D03*
X180000000Y-27500000D03*
X180000000Y-28500000D03*
X180000000Y-29500000D03*
X180000000Y-26500000D03*
X184000000Y-28000000D03*
X184000000Y-29000000D03*
X184000000Y-30000000D03*
X184000000Y-27000000D03*
X184000000Y-33000000D03*
X184000000Y-34000000D03*
X184000000Y-35000000D03*
X184000000Y-32000000D03*
X188000000Y-29000000D03*
X188000000Y-30000000D03*
X188000000Y-31000000D03*
X188000000Y-28000000D03*
X188000000Y-24000000D03*
X188000000Y-25000000D03*
X188000000Y-26000000D03*
X188000000Y-23000000D03*
X188000000Y-18500000D03*
X188000000Y-19500000D03*
X188000000Y-20500000D03*
X188000000Y-17500000D03*
X97500000Y-25500000D03*
X98500000Y-25500000D03*
X99500000Y-25500000D03*
X96500000Y-25500000D03*
X101000000Y-20500000D03*
X101000000Y-21500000D03*
X101000000Y-22500000D03*
X101000000Y-19500000D03*
X92500000Y-20500000D03*
X92500000Y-21500000D03*
X92500000Y-22500000D03*
X92500000Y-19500000D03*
X94000000Y-27500000D03*
X94000000Y-28500000D03*
X94000000Y-29500000D03*
X94000000Y-26500000D03*
X92000000Y-32500000D03*
X92000000Y-33500000D03*
X92000000Y-34500000D03*
X92000000Y-31500000D03*
X92000000Y-75000000D03*
X92000000Y-76000000D03*
X92000000Y-77000000D03*
X92000000Y-74000000D03*
X92500000Y-67000000D03*
X92500000Y-68000000D03*
X92500000Y-69000000D03*
X92500000Y-66000000D03*
X93500000Y-45500000D03*
X93500000Y-47500000D03*
X93500000Y-48500000D03*
X93500000Y-46500000D03*
X93000000Y-55500000D03*
X93000000Y-57500000D03*
X93000000Y-60500000D03*
X93000000Y-58500000D03*
X93000000Y-59500000D03*
X93000000Y-56500000D03*
X96000000Y-76000000D03*
X96000000Y-78000000D03*
X96000000Y-81000000D03*
X96000000Y-79000000D03*
X96000000Y-80000000D03*
X96000000Y-77000000D03*
X99500000Y-85500000D03*
X99500000Y-87500000D03*
X99500000Y-90500000D03*
X99500000Y-88500000D03*
X99500000Y-89500000D03*
X99500000Y-86500000D03*
X131500000Y-108000000D03*
X131500000Y-110000000D03*
X131500000Y-113000000D03*
X131500000Y-111000000D03*
X131500000Y-112000000D03*
X131500000Y-109000000D03*
X132500000Y-108000000D03*
X132500000Y-110000000D03*
X132500000Y-113000000D03*
X132500000Y-111000000D03*
X132500000Y-112000000D03*
X132500000Y-109000000D03*
X159500000Y-108000000D03*
X159500000Y-110000000D03*
X159500000Y-113000000D03*
X159500000Y-111000000D03*
X159500000Y-112000000D03*
X159500000Y-109000000D03*
X151000000Y-108000000D03*
X151000000Y-113000000D03*
X151000000Y-112000000D03*
X151000000Y-111000000D03*
X151000000Y-110000000D03*
X151000000Y-109000000D03*
X152500000Y-114000000D03*
X157500000Y-114000000D03*
X177000000Y-113000000D03*
X176000000Y-113000000D03*
X189000000Y-109000000D03*
X189000000Y-106000000D03*
X187000000Y-106000000D03*
X187000000Y-109000000D03*
X184000000Y-113000000D03*
X184000000Y-111000000D03*
X184000000Y-109000000D03*
X184000000Y-107000000D03*
X184000000Y-105000000D03*
X184000000Y-103000000D03*
X184000000Y-101000000D03*
X184000000Y-99000000D03*
X184000000Y-97000000D03*
X186000000Y-101000000D03*
X186000000Y-99000000D03*
X186000000Y-97000000D03*
X188000000Y-100000000D03*
X188000000Y-98000000D03*
X188000000Y-96000000D03*
X188000000Y-94000000D03*
X188000000Y-92000000D03*
X185000000Y-85000000D03*
X185000000Y-83000000D03*
X185000000Y-81000000D03*
X185000000Y-79000000D03*
X185000000Y-77000000D03*
X185000000Y-75000000D03*
X185000000Y-73000000D03*
X185000000Y-71000000D03*
X172900000Y-73900000D03*
X169850000Y-78050000D03*
X170650000Y-78050000D03*
X171550000Y-78050000D03*
X172300000Y-63950000D03*
X172350000Y-62950000D03*
X173050000Y-57350000D03*
X169850000Y-70750000D03*
X113550000Y-46800000D03*
X116600000Y-43300000D03*
X114500000Y-42100000D03*
X115200000Y-39350000D03*
D79*
X118700000Y-54850000D03*
X114405000Y-59606500D03*
X118650000Y-56950000D03*
X111350000Y-66400000D03*
X121450000Y-65050000D03*
X117650000Y-68000000D03*
X116450000Y-68000000D03*
X116250000Y-69350000D03*
X117500000Y-69300000D03*
X117150000Y-74850000D03*
X125100000Y-69850000D03*
X123350000Y-69850000D03*
X140850000Y-75900000D03*
X130250000Y-76800000D03*
X125325000Y-94425000D03*
X113726000Y-106100000D03*
X115050000Y-99900000D03*
X118550000Y-97700000D03*
X120000000Y-95700000D03*
X120700000Y-93950000D03*
X121250000Y-91400000D03*
D80*
X132500000Y-84000000D03*
D78*
X119025000Y-22200000D03*
D80*
X167350000Y-90100000D03*
X132500000Y-82500000D03*
D78*
X128750000Y-82850000D03*
X119400000Y-20850000D03*
X128750000Y-83550000D03*
X134000000Y-65600000D03*
X130550000Y-81700000D03*
D80*
X112400000Y-17400000D03*
D78*
X122201496Y-77450000D03*
D81*
X131000000Y-84000000D03*
D78*
X125275000Y-71650000D03*
X119150000Y-21500000D03*
D79*
X142650000Y-90650000D03*
D80*
X129500000Y-82500000D03*
D78*
X133400000Y-81700000D03*
D79*
X143800000Y-89800000D03*
D80*
X112600000Y-21600000D03*
D78*
X132000000Y-81700000D03*
D80*
X134000000Y-98900000D03*
D78*
X132700000Y-81700000D03*
D80*
X167100000Y-63200000D03*
D78*
X137600000Y-70150000D03*
X129150000Y-81700000D03*
D80*
X131000000Y-85500000D03*
X119200000Y-74750000D03*
D78*
X122350000Y-73050000D03*
X119550000Y-80800000D03*
X129450000Y-86300000D03*
X120500496Y-77150286D03*
D80*
X119050000Y-25700000D03*
D78*
X133350000Y-85400000D03*
X133400000Y-75800000D03*
D79*
X162150000Y-83950000D03*
D78*
X118900000Y-22850000D03*
X135000000Y-70600000D03*
D79*
X102625000Y-99275000D03*
X156025000Y-73525000D03*
D78*
X128750000Y-84300000D03*
X133350000Y-82500000D03*
X131250000Y-81700000D03*
X118169239Y-22699392D03*
D80*
X129500000Y-84000000D03*
D79*
X152550000Y-72400000D03*
D78*
X133400000Y-73000000D03*
D80*
X132500000Y-85500000D03*
X168750000Y-63200000D03*
D79*
X159782807Y-83581407D03*
D80*
X131000000Y-82500000D03*
D79*
X111650000Y-106550000D03*
D78*
X128750000Y-82150000D03*
D79*
X144005212Y-91044788D03*
D80*
X162200000Y-17200000D03*
X129500000Y-85500000D03*
X124652054Y-96886685D03*
X119050000Y-24050000D03*
X185999000Y-62250000D03*
D78*
X128750000Y-85700000D03*
X129000000Y-73950000D03*
X129850000Y-81700000D03*
X132650000Y-70000000D03*
X130412500Y-73137500D03*
X128750000Y-85000000D03*
X133350000Y-83200000D03*
X138250000Y-73500000D03*
D80*
X131600000Y-97000000D03*
D78*
X128750000Y-86300000D03*
D80*
X123600000Y-30250000D03*
D78*
X133350000Y-83900000D03*
X156200000Y-59750000D03*
X127050000Y-79750000D03*
X133350000Y-84700000D03*
X135950000Y-75200000D03*
X131850000Y-86300000D03*
X127975000Y-69875000D03*
D80*
X174318750Y-94318750D03*
D79*
X161150000Y-63201000D03*
D78*
X132550000Y-86300000D03*
X133350000Y-86100000D03*
X131150000Y-86300000D03*
X127050000Y-80450000D03*
X118450000Y-21725000D03*
D80*
X185999000Y-63550000D03*
X112400000Y-20100000D03*
D78*
X118600000Y-20925000D03*
X158350000Y-49500000D03*
X137500000Y-68400000D03*
X130150000Y-86300000D03*
D80*
X140400000Y-45050000D03*
X135750000Y-36850000D03*
X133950000Y-36850000D03*
X140400000Y-46400000D03*
X113450000Y-31050000D03*
X151850000Y-61850000D03*
X111850000Y-30850000D03*
X134050000Y-38100000D03*
X137600000Y-38050000D03*
X135850000Y-38100000D03*
X153000000Y-59950000D03*
X137500000Y-36800000D03*
X104150000Y-73850000D03*
D78*
X161150000Y-73550000D03*
D80*
X105900000Y-73850000D03*
D82*
X102875000Y-113825000D03*
D80*
X138248702Y-88899000D03*
D79*
X153600000Y-93725000D03*
X139724000Y-94298000D03*
D80*
X117800000Y-32800000D03*
D78*
X95300000Y-106900000D03*
X143000000Y-99400000D03*
D80*
X163225000Y-93725000D03*
X145649000Y-78100000D03*
D79*
X139724000Y-93600000D03*
D80*
X171063597Y-59083697D03*
X104725000Y-75025000D03*
D78*
X106400000Y-24950000D03*
D80*
X128250000Y-94150000D03*
X117000000Y-38000000D03*
D79*
X117300000Y-44700000D03*
D78*
X117050000Y-96600000D03*
X118750000Y-83900000D03*
X118750000Y-82850000D03*
X116850000Y-95600000D03*
X166970000Y-107050000D03*
X159600000Y-82350000D03*
X159550000Y-81200000D03*
X161200000Y-110875000D03*
X158000000Y-27600000D03*
X159700000Y-45100000D03*
X120700000Y-89750000D03*
D80*
X152200000Y-18600000D03*
X153400000Y-18400000D03*
X153400000Y-16800000D03*
X154800000Y-16800000D03*
X166050000Y-23500000D03*
X167500000Y-23500000D03*
X166650000Y-22150000D03*
D78*
X139800000Y-106000000D03*
X141500000Y-106330331D03*
X157000000Y-87600000D03*
X148500000Y-88600000D03*
X165200000Y-47000000D03*
X127750000Y-88850000D03*
X164050000Y-72600000D03*
X148450000Y-86050000D03*
D80*
X146600000Y-20400000D03*
X146600000Y-23400000D03*
X148000000Y-20400000D03*
X146600000Y-21937500D03*
X149600000Y-59575000D03*
X150750000Y-59575000D03*
X148000000Y-23400000D03*
X148000000Y-21937500D03*
D78*
X150499172Y-57975000D03*
D79*
X156749000Y-79400000D03*
D78*
X149275000Y-44350000D03*
X162400000Y-55600000D03*
X170200000Y-51600000D03*
X156800000Y-52600000D03*
X121000000Y-88750000D03*
X126450000Y-89650000D03*
X164600000Y-54400000D03*
D80*
X151200000Y-45800000D03*
X176400000Y-43800000D03*
D82*
X165200000Y-26937500D03*
D80*
X156500000Y-24600000D03*
X145175000Y-54978427D03*
X112670306Y-49704694D03*
X178950000Y-67150000D03*
D78*
X128525000Y-65787500D03*
X127525000Y-68125000D03*
X104875000Y-68750000D03*
X145174000Y-68674000D03*
X111050000Y-68750000D03*
D79*
X110649946Y-63600000D03*
X137000000Y-104150000D03*
D80*
X115950000Y-31350000D03*
X144250000Y-106517638D03*
X137600000Y-106800000D03*
X116564500Y-47547500D03*
D78*
X116850000Y-83075000D03*
X119750000Y-84000000D03*
D80*
X166800000Y-31000000D03*
X165173194Y-31076806D03*
X166200000Y-29200000D03*
D78*
X158950000Y-90400000D03*
X166600000Y-96200000D03*
X119100000Y-67550000D03*
X121000000Y-87700000D03*
X158850000Y-76850000D03*
X151898959Y-73698959D03*
X164600000Y-74750000D03*
X136534591Y-92065409D03*
X132879377Y-92540010D03*
X169638541Y-92961459D03*
X132900000Y-91450000D03*
X158300000Y-78100000D03*
X166200000Y-75400000D03*
X149666025Y-73333975D03*
X165429667Y-73100000D03*
D80*
X119250000Y-17700000D03*
X117750000Y-17850000D03*
D79*
X139850000Y-78100000D03*
M02*
